<?xml version="1.0" standalone="no"?>
<!DOCTYPE svg PUBLIC "-//W3C//DTD SVG 20010904//EN"
 "http://www.w3.org/TR/2001/REC-SVG-20010904/DTD/svg10.dtd">
<svg version="1.0" xmlns="http://www.w3.org/2000/svg"
 width="2200.000000pt" height="2200.000000pt" viewBox="0 0 2200.000000 2200.000000"
 preserveAspectRatio="xMidYMid meet">
<metadata>
Created by potrace 1.11, written by Peter Selinger 2001-2013
</metadata>
<g transform="translate(0.000000,2200.000000) scale(0.100000,-0.100000)"
fill="#000000" stroke="none">
<path d="M3149 12766 c-102 -27 -190 -103 -238 -205 l-26 -56 -3 -1033 -3
-1032 578 2 578 3 0 1165 0 1165 -420 2 c-308 1 -432 -2 -466 -11z"/>
<path d="M4260 11609 l0 -1170 443 3 442 3 66 32 c78 39 140 102 177 181 l27
57 3 1033 2 1032 -580 0 -580 0 0 -1171z"/>
<path d="M6122 12258 l3 -123 205 -1 205 -2 5 -603 5 -604 125 0 125 0 2 435
c1 239 3 512 3 605 l0 170 207 0 208 0 3 123 3 122 -551 0 -551 0 3 -122z"/>
<path d="M7380 11650 l0 -731 128 3 127 3 2 270 c1 149 2 290 2 315 l1 46 290
0 c160 0 290 -3 290 -6 1 -3 2 -144 3 -315 l2 -310 125 0 125 0 0 725 0 725
-125 0 -125 0 -2 -185 c-1 -102 -2 -229 -3 -282 l0 -98 -290 0 -290 0 -1 43
c0 23 -1 150 -2 282 l-2 240 -127 3 -128 3 0 -731z"/>
<path d="M9164 12365 c-269 -60 -438 -245 -473 -520 -14 -104 -5 -387 13 -470
33 -145 119 -270 242 -350 113 -75 224 -104 382 -100 179 3 310 54 427 164 82
77 128 160 161 291 27 109 27 432 0 540 -28 111 -70 192 -134 261 -118 129
-257 189 -447 194 -67 2 -134 -2 -171 -10z m280 -246 c68 -25 132 -83 164
-150 37 -76 51 -172 50 -337 -1 -202 -40 -330 -122 -397 -69 -56 -134 -79
-226 -78 -75 0 -111 9 -167 39 -140 77 -182 191 -178 481 3 186 15 243 66 325
82 128 253 177 413 117z"/>
<path d="M10142 11653 l3 -728 125 0 125 0 5 518 5 518 48 -133 c105 -287 159
-434 167 -453 5 -11 21 -54 36 -95 38 -105 83 -226 106 -287 l20 -53 98 0 97
0 41 108 c22 59 68 181 102 272 33 91 67 181 75 200 7 19 34 89 58 155 25 66
59 156 76 200 l30 80 3 -515 3 -515 128 -3 127 -3 0 731 0 730 -172 -2 -172
-3 -19 -50 c-11 -27 -29 -77 -42 -110 -12 -33 -52 -141 -89 -240 -37 -99 -76
-205 -87 -235 -12 -30 -25 -64 -30 -75 -4 -11 -32 -83 -60 -160 -28 -77 -54
-143 -58 -147 -5 -6 -177 442 -278 722 -6 19 -34 94 -61 165 l-49 130 -181 3
-182 2 2 -727z"/>
<path d="M12225 12363 c-4 -10 -51 -146 -105 -303 -54 -157 -100 -292 -103
-300 -3 -8 -29 -85 -57 -170 -29 -85 -90 -267 -137 -404 -48 -143 -80 -253
-75 -258 5 -5 62 -7 127 -6 l119 3 28 85 c16 47 36 109 45 138 l16 52 281 0
282 0 45 -137 45 -138 124 -3 c68 -1 127 1 132 6 7 7 -78 286 -112 367 -5 11
-48 137 -96 280 -48 143 -129 382 -180 530 l-92 270 -140 3 c-126 2 -140 1
-147 -15z m256 -660 c45 -139 80 -255 78 -258 -4 -4 -264 -8 -370 -6 l-26 1
79 243 c44 133 83 251 88 262 5 11 14 40 21 65 l11 45 18 -50 c10 -27 56 -164
101 -302z"/>
<path d="M13080 11651 l0 -731 343 0 c264 1 359 4 417 16 164 33 275 127 320
270 25 82 21 220 -10 288 -22 48 -102 138 -149 167 l-24 15 36 23 c98 60 153
216 127 356 -28 146 -120 247 -271 297 -59 20 -90 22 -426 26 l-363 4 0 -731z
m687 486 c53 -19 100 -71 109 -119 11 -62 11 -59 -2 -106 -16 -55 -38 -80 -93
-105 -39 -17 -69 -20 -225 -21 -100 -1 -189 0 -198 2 -16 4 -18 21 -18 183 l0
179 198 -1 c124 0 209 -5 229 -12z m-22 -581 c108 -21 167 -92 167 -202 1 -95
-51 -157 -153 -184 -41 -11 -400 -16 -417 -6 -4 2 -6 93 -4 203 l3 198 182 -1
c100 0 200 -4 222 -8z"/>
<path d="M14345 12368 c-3 -7 -4 -335 -3 -728 l3 -715 128 -3 c126 -3 127 -2
128 20 0 13 1 137 1 276 l1 252 158 0 159 0 21 -47 c11 -27 64 -149 118 -273
l97 -225 137 -3 c101 -2 137 1 137 9 0 7 -39 100 -86 208 -47 108 -104 236
-125 285 -37 83 -38 90 -22 102 10 7 22 14 27 14 5 0 32 19 60 42 95 78 146
186 152 323 4 97 -7 150 -46 230 -50 103 -130 172 -250 216 -63 23 -76 23
-428 27 -294 3 -363 1 -367 -10z m705 -244 c39 -18 109 -82 111 -102 0 -4 3
-16 7 -27 12 -43 6 -140 -13 -175 -48 -92 -107 -110 -364 -110 l-191 0 0 219
0 220 203 -3 c179 -1 207 -4 247 -22z"/>
<path d="M16045 12368 c-3 -7 -66 -193 -141 -413 -179 -528 -264 -777 -309
-908 -23 -68 -34 -112 -28 -118 5 -5 63 -8 128 -7 l119 3 45 138 45 137 281 0
281 0 45 -137 46 -138 123 -3 c68 -1 127 1 132 6 8 8 -43 164 -238 737 -32 94
-99 292 -150 440 l-92 270 -141 3 c-108 2 -143 0 -146 -10z m248 -640 l93
-288 -85 -1 c-215 -1 -304 1 -309 6 -4 3 8 47 25 98 17 51 61 186 99 300 47
141 71 202 76 190 4 -10 49 -147 101 -305z"/>
<path d="M16645 12370 c-3 -5 86 -283 198 -617 113 -334 219 -653 238 -708 18
-55 37 -106 42 -112 7 -9 50 -13 152 -13 l142 0 16 43 c79 215 466 1402 459
1409 -5 5 -64 7 -132 6 -97 -2 -125 -6 -131 -18 -4 -8 -33 -96 -64 -195 -31
-99 -64 -205 -75 -235 -10 -30 -48 -149 -85 -265 -105 -333 -128 -401 -131
-390 -5 18 -165 517 -194 605 -16 47 -58 178 -95 293 l-66 207 -134 0 c-75 0
-136 -4 -140 -10z"/>
<path d="M18405 12364 c-33 -7 -69 -16 -80 -19 -41 -10 -141 -65 -186 -102
-55 -45 -128 -140 -157 -204 -43 -95 -55 -174 -57 -370 -2 -152 1 -202 17
-275 19 -90 62 -192 99 -235 112 -133 227 -202 379 -226 80 -14 241 -8 310 10
223 59 377 217 426 438 23 100 27 384 8 494 -41 238 -180 401 -398 471 -100
32 -267 40 -361 18z m289 -248 c29 -13 68 -37 87 -54 35 -31 85 -116 95 -163
19 -93 22 -131 19 -274 -5 -271 -53 -375 -202 -441 -130 -58 -287 -30 -384 67
-80 80 -109 195 -104 423 2 165 13 223 52 303 39 82 127 146 217 160 17 3 33
7 36 9 11 12 137 -9 184 -30z"/>
<path d="M12258 9035 c-2 -1 -48 -6 -103 -9 -54 -4 -101 -9 -105 -11 -3 -1
-34 -6 -70 -9 -71 -8 -289 -52 -350 -71 -10 -3 -27 -8 -37 -10 -37 -8 -221
-74 -303 -109 -285 -122 -590 -360 -814 -636 -42 -52 -82 -101 -87 -108 -36
-43 -168 -262 -211 -347 -124 -245 -199 -488 -253 -820 -17 -105 -27 -196 -40
-374 -7 -96 -8 -489 -1 -571 14 -159 18 -203 21 -220 2 -10 6 -47 10 -81 4
-35 8 -66 10 -69 2 -3 6 -25 10 -50 4 -25 8 -47 10 -50 2 -3 6 -23 9 -45 15
-91 78 -308 128 -435 129 -331 311 -606 558 -845 173 -167 311 -267 520 -378
239 -126 524 -218 797 -258 39 -5 81 -12 94 -14 101 -20 646 -28 769 -12 30 4
75 10 100 12 25 3 56 7 70 10 14 3 39 7 55 10 105 17 297 64 375 91 208 73
326 126 469 211 249 148 492 363 651 578 25 33 47 62 50 65 46 46 211 349 268
495 72 181 137 400 156 525 3 19 8 45 10 57 3 11 8 43 12 70 3 26 8 56 10 67
2 10 6 44 9 75 3 31 8 70 10 87 8 59 17 280 17 421 0 211 -21 490 -47 624 -3
13 -10 51 -15 84 -6 33 -20 98 -31 145 -12 47 -22 92 -24 100 -26 117 -119
358 -196 510 -162 320 -387 589 -679 813 -93 71 -278 182 -402 240 -129 60
-361 141 -462 161 -11 3 -54 12 -93 20 -40 9 -87 18 -105 21 -18 3 -44 7 -58
10 -14 2 -50 7 -80 10 -30 4 -73 9 -95 11 -42 6 -531 14 -537 9z m327 -926
c341 -9 693 -161 923 -399 42 -43 152 -176 152 -184 0 -3 13 -24 29 -48 40
-59 114 -217 145 -308 28 -83 71 -252 80 -315 4 -22 11 -65 16 -95 26 -156 39
-491 26 -690 -9 -139 -21 -255 -31 -290 -2 -8 -6 -37 -10 -65 -3 -27 -15 -86
-26 -130 -12 -44 -22 -88 -24 -97 -9 -43 -81 -231 -116 -300 -197 -393 -555
-668 -969 -744 -63 -12 -79 -14 -135 -19 -241 -23 -470 4 -670 77 -90 33 -275
127 -275 140 0 4 -5 8 -11 8 -33 0 -245 195 -326 300 -52 67 -143 206 -143
217 0 4 -15 38 -34 77 -50 101 -114 300 -135 416 -6 30 -12 64 -14 75 -3 11
-8 45 -12 75 -4 30 -9 62 -10 71 -23 122 -23 655 -1 775 2 10 7 46 10 79 4 33
9 67 12 76 2 10 6 31 9 47 6 51 45 202 72 282 173 512 552 850 1058 945 85 16
281 34 318 29 10 -2 51 -4 92 -5z"/>
<path d="M2892 6265 l0 -2685 541 2 542 3 1 2683 0 2682 -542 0 -542 0 0
-2685z"/>
<path d="M5059 8948 c-1 -1 -2 -1210 -3 -2685 l-1 -2683 542 0 543 0 2 1012 3
1012 510 2 c588 2 850 12 1070 39 22 3 60 7 85 10 80 10 241 45 304 67 138 46
334 151 461 246 83 62 231 215 289 298 67 95 140 223 175 309 31 73 77 224 86
279 3 17 10 56 15 86 35 200 34 502 -1 720 -66 403 -252 721 -569 970 -189
149 -460 255 -705 276 -33 3 -71 7 -84 9 -13 2 -65 7 -115 10 -50 3 -120 8
-156 11 -72 6 -2449 18 -2451 12z m2196 -922 c22 -3 69 -8 105 -11 359 -34
619 -260 679 -590 13 -68 10 -251 -5 -300 -6 -22 -11 -42 -11 -45 0 -3 -8 -29
-18 -59 -70 -211 -266 -385 -500 -445 -56 -14 -85 -19 -195 -32 -25 -3 -56 -7
-69 -9 -52 -9 -402 -18 -744 -19 l-357 -1 0 764 0 764 538 -6 c295 -3 555 -8
577 -11z"/>
<path d="M17145 7548 c-98 -7 -179 -16 -216 -23 -13 -3 -39 -7 -59 -10 -138
-21 -323 -78 -456 -141 -343 -163 -585 -475 -641 -829 -14 -85 -7 -343 10
-415 29 -122 36 -146 63 -205 89 -199 272 -389 476 -495 255 -133 687 -264
1418 -430 132 -30 253 -67 316 -96 123 -56 178 -171 152 -316 -30 -167 -182
-278 -460 -333 -131 -26 -388 -23 -530 6 -278 57 -468 234 -548 510 l-22 75
-87 -13 c-47 -7 -106 -15 -131 -19 -66 -8 -103 -14 -120 -19 -8 -2 -35 -6 -60
-9 -25 -3 -54 -7 -65 -10 -11 -2 -42 -7 -70 -10 -27 -4 -57 -9 -65 -11 -8 -2
-35 -6 -60 -9 -131 -17 -362 -55 -367 -60 -11 -11 58 -201 112 -311 166 -333
460 -597 820 -733 140 -53 328 -101 460 -117 28 -3 59 -8 70 -10 88 -18 512
-25 670 -11 518 45 874 190 1144 466 169 172 292 397 325 595 3 17 9 51 14 76
10 51 8 282 -2 344 -37 223 -131 409 -275 544 -88 83 -265 188 -446 265 -16 7
-41 18 -55 24 -121 54 -512 165 -793 227 -12 2 -42 9 -67 16 -25 6 -52 12 -60
14 -8 2 -44 11 -80 20 -36 9 -69 18 -75 20 -105 24 -353 98 -430 127 -172 66
-237 137 -236 259 1 206 238 315 686 313 61 0 138 -3 173 -7 67 -7 191 -35
207 -47 6 -4 21 -11 35 -15 59 -18 164 -105 236 -197 17 -21 72 -139 79 -170
4 -16 11 -28 15 -28 7 0 99 17 195 35 17 3 80 15 140 25 61 11 121 22 135 25
40 8 193 37 220 41 49 8 186 35 231 45 l46 10 -14 42 c-126 377 -342 643 -648
794 -99 49 -287 113 -375 127 -19 3 -46 8 -60 11 -43 9 -73 14 -125 20 -27 3
-61 8 -75 10 -105 18 -509 26 -675 13z"/>
</g>
</svg>
