<?xml version="1.0" standalone="no"?>
<!DOCTYPE svg PUBLIC "-//W3C//DTD SVG 20010904//EN"
 "http://www.w3.org/TR/2001/REC-SVG-20010904/DTD/svg10.dtd">
<svg version="1.0" xmlns="http://www.w3.org/2000/svg"
 width="198.000000pt" height="198.000000pt" viewBox="0 0 198.000000 198.000000"
 preserveAspectRatio="xMidYMid meet">
<metadata>
Created by potrace 1.11, written by Peter Selinger 2001-2013
</metadata>
<g transform="translate(0.000000,198.000000) scale(0.100000,-0.100000)"
fill="#000000" stroke="none">
<path d="M930 1964 c0 -11 -36 -212 -44 -249 -27 -125 -95 -371 -115 -420 -5
-11 -25 -65 -46 -120 -59 -156 -167 -369 -253 -494 -42 -63 -82 -116 -88 -118
-15 -5 -80 133 -103 220 -38 147 -21 342 44 484 79 174 259 335 438 393 25 8
38 19 42 33 2 12 13 61 23 110 11 48 17 89 13 91 -10 7 -92 -11 -162 -35 -320
-109 -557 -389 -623 -735 -13 -70 -14 -248 -2 -314 88 -463 461 -782 926 -794
193 -5 428 74 587 197 360 279 472 774 267 1180 -86 168 -230 315 -402 409
-87 48 -230 92 -335 103 l-57 6 19 -48 c10 -26 28 -78 40 -115 l22 -67 52 -11
c86 -18 228 -94 301 -162 157 -143 241 -325 245 -528 6 -266 -131 -513 -358
-646 -142 -83 -340 -122 -483 -93 -29 6 -64 13 -78 15 -78 16 -281 127 -263
145 4 4 44 10 88 14 127 10 125 10 198 87 147 157 228 319 271 543 15 81 16
345 1 425 -19 101 -51 226 -82 315 -34 97 -82 201 -83 179z"/>
<path d="M1150 1518 c0 -7 4 -28 9 -46 26 -87 33 -289 14 -403 -36 -234 -148
-450 -324 -630 -32 -33 -59 -61 -59 -63 0 -2 35 3 78 11 42 7 95 16 117 19 22
2 51 6 65 9 96 14 142 20 245 31 33 4 69 8 80 10 11 1 30 3 42 3 29 1 49 46
73 161 49 237 -39 525 -240 792 -83 111 -100 128 -100 106z"/>
</g>
</svg>
