<?xml version="1.0" standalone="no"?>
<!DOCTYPE svg PUBLIC "-//W3C//DTD SVG 20010904//EN"
 "http://www.w3.org/TR/2001/REC-SVG-20010904/DTD/svg10.dtd">
<svg version="1.0" xmlns="http://www.w3.org/2000/svg"
 width="700.000000pt" height="700.000000pt" viewBox="0 0 700.000000 700.000000"
 preserveAspectRatio="xMidYMid meet">
<metadata>
Created by potrace 1.11, written by Peter Selinger 2001-2013
</metadata>
<g transform="translate(0.000000,700.000000) scale(0.100000,-0.100000)"
fill="#000000" stroke="none">
<path d="M253 6990 c-95 -19 -193 -103 -229 -195 -19 -49 -19 -121 -19 -3295
0 -3180 0 -3246 19 -3295 26 -65 103 -147 169 -176 l52 -24 3255 0 3255 0 52
24 c66 29 143 111 169 176 19 49 19 115 19 3295 0 3180 0 3246 -19 3295 -26
65 -103 147 -169 176 l-52 24 -3230 1 c-1777 1 -3249 -2 -3272 -6z m1883
-3045 c94 -59 136 -193 99 -321 -65 -225 -404 -233 -470 -11 -43 143 10 298
119 349 32 14 59 18 122 16 70 -3 87 -7 130 -33z m3848 23 c101 -30 164 -146
153 -279 -10 -116 -67 -196 -161 -224 -131 -39 -249 6 -309 119 -32 61 -31
202 1 269 26 52 81 103 127 116 45 14 142 13 189 -1z m-4814 -38 l0 -40 -75 0
-75 0 0 -215 0 -215 -55 0 -55 0 0 215 0 215 -75 0 -75 0 0 40 0 40 205 0 205
0 0 -40z m180 -60 l0 -100 100 0 100 0 0 100 0 100 55 0 55 0 0 -255 0 -255
-55 0 -55 0 0 110 0 110 -100 0 -100 0 0 -110 0 -110 -55 0 -55 0 0 255 0 255
55 0 55 0 0 -100z m1185 -60 c23 -85 44 -161 46 -168 3 -8 25 63 49 157 l45
171 77 0 78 0 0 -255 0 -255 -45 0 -45 0 -2 198 -3 197 -50 -195 -51 -195 -51
-3 -50 -3 -51 198 -50 198 -1 -197 -1 -198 -45 0 -45 0 0 255 0 256 77 -3 76
-3 42 -155z m772 -95 l101 -255 -58 0 -57 0 -22 60 -22 60 -103 0 -102 0 -21
-57 -20 -58 -57 -3 -56 -3 21 53 c12 29 52 134 91 233 38 99 74 190 79 203 7
19 16 22 66 22 l58 0 102 -255z m689 236 c67 -41 79 -135 25 -189 l-27 -26 30
-21 c39 -26 56 -59 56 -110 0 -46 -27 -96 -67 -122 -23 -15 -54 -19 -195 -21
l-168 -4 0 256 0 256 158 0 c136 0 161 -3 188 -19z m533 1 c40 -20 71 -73 71
-120 0 -57 -27 -99 -81 -126 l-49 -24 24 -16 c19 -12 96 -119 140 -193 5 -10
-8 -13 -56 -13 l-63 0 -49 76 c-74 114 -96 134 -145 134 l-41 0 0 -105 0 -105
-50 0 -50 0 0 255 0 255 158 0 c130 0 163 -3 191 -18z m525 -205 c49 -122 96
-237 103 -254 l13 -33 -58 0 -58 0 -21 58 -20 57 -104 0 -103 0 -21 -55 -21
-55 -56 -3 -57 -3 33 83 c18 46 63 161 100 256 l68 172 56 0 57 0 89 -223z
m252 33 c54 -162 63 -182 72 -160 5 14 33 98 62 188 l53 162 54 0 c52 0 54 -1
47 -22 -4 -13 -44 -126 -89 -253 l-83 -230 -57 0 -57 0 -83 233 c-46 128 -87
242 -90 253 -6 19 -3 20 51 17 l57 -3 63 -185z m-1066 -939 c212 -62 390 -217
480 -415 53 -116 71 -213 77 -401 4 -147 2 -184 -16 -273 -39 -188 -112 -326
-232 -437 -161 -149 -357 -213 -619 -202 -151 6 -252 30 -370 89 -68 34 -103
60 -176 133 -76 76 -97 105 -137 185 -79 161 -92 230 -91 470 0 188 2 213 26
301 42 154 104 262 213 369 103 103 211 161 362 194 105 24 383 16 483 -13z
m-2972 -848 l2 -853 -175 0 -175 0 0 855 0 855 173 -2 172 -3 3 -852z m1247
837 c185 -28 325 -155 381 -345 25 -87 23 -258 -5 -346 -42 -134 -127 -232
-256 -294 -94 -46 -157 -55 -442 -62 l-243 -6 0 -319 0 -318 -170 0 -170 0 0
857 0 856 418 -6 c229 -4 449 -11 487 -17z m3223 -446 c151 -30 249 -100 310
-223 18 -35 32 -69 32 -76 0 -9 -299 -71 -305 -63 -1 2 -13 24 -28 50 -46 80
-153 112 -296 88 -110 -18 -154 -67 -120 -132 16 -30 75 -52 279 -103 290 -73
401 -124 460 -213 42 -63 53 -113 48 -212 -4 -68 -10 -96 -32 -140 -56 -107
-165 -188 -308 -227 -90 -25 -348 -24 -437 1 -135 37 -245 114 -310 215 -31
47 -65 131 -57 138 5 5 318 55 320 51 64 -154 128 -194 301 -186 114 5 173 33
192 90 16 48 1 93 -37 113 -16 8 -95 31 -177 51 -360 88 -460 139 -524 269
-26 54 -31 74 -31 141 0 188 119 324 323 368 89 20 301 20 397 0z"/>
<path d="M1924 3871 c-43 -26 -64 -76 -64 -153 0 -76 21 -123 69 -155 64 -43
156 -18 190 52 41 83 18 219 -43 256 -40 25 -111 25 -152 0z"/>
<path d="M5814 3871 c-40 -24 -64 -85 -64 -159 0 -69 23 -118 69 -149 66 -45
155 -18 194 57 24 46 19 172 -8 213 -37 57 -130 75 -191 38z"/>
<path d="M3111 3763 c-17 -49 -31 -92 -31 -96 0 -4 29 -7 65 -7 36 0 65 4 65
9 0 10 -59 173 -64 178 -2 2 -17 -36 -35 -84z"/>
<path d="M3760 3831 l0 -61 75 0 c68 0 79 3 101 25 19 19 23 31 18 48 -11 37
-22 42 -109 46 l-85 3 0 -61z"/>
<path d="M3760 3615 l0 -65 88 0 c100 0 122 12 122 67 0 50 -25 63 -123 63
l-87 0 0 -65z"/>
<path d="M4280 3826 l0 -66 88 0 c98 0 122 12 122 61 0 52 -20 64 -119 67
l-91 4 0 -66z"/>
<path d="M4876 3767 c-16 -45 -31 -88 -34 -94 -3 -10 13 -13 62 -13 46 0 66 4
66 13 0 12 -55 166 -62 173 -2 1 -17 -34 -32 -79z"/>
<path d="M3853 2565 c-120 -33 -220 -110 -276 -212 -51 -95 -70 -190 -70 -358
0 -227 40 -351 150 -461 213 -214 589 -153 721 116 48 98 65 192 65 355 -1
256 -66 409 -215 506 -99 63 -255 86 -375 54z"/>
<path d="M1950 2313 l0 -246 198 6 c274 8 338 31 389 145 22 46 25 64 20 119
-6 79 -40 133 -109 176 -40 25 -62 30 -150 38 -57 4 -158 8 -225 9 l-123 0 0
-247z"/>
</g>
</svg>
