<?xml version="1.0" standalone="no"?>
<!DOCTYPE svg PUBLIC "-//W3C//DTD SVG 20010904//EN"
 "http://www.w3.org/TR/2001/REC-SVG-20010904/DTD/svg10.dtd">
<svg version="1.0" xmlns="http://www.w3.org/2000/svg"
 width="340.000000pt" height="340.000000pt" viewBox="0 0 340.000000 340.000000"
 preserveAspectRatio="xMidYMid meet">
<metadata>
Created by potrace 1.14, written by Peter Selinger 2001-2017
</metadata>
<g transform="translate(0.000000,340.000000) scale(0.100000,-0.100000)"
fill="#000000" stroke="none">
<path d="M1105 2381 c-72 -21 -145 -53 -145 -63 0 -5 -6 -8 -12 -8 -15 0 -138
-114 -138 -127 0 -5 -8 -18 -18 -29 -10 -11 -21 -28 -25 -39 -3 -11 -15 -47
-26 -79 -20 -57 -21 -80 -21 -558 l0 -498 160 0 c157 0 160 0 165 23 2 12 6
222 7 467 3 439 3 446 25 485 30 54 52 77 88 94 17 7 38 17 47 22 25 13 102
11 135 -2 82 -33 98 -46 130 -104 32 -57 36 -123 40 -545 1 -234 3 -428 3
-432 0 -14 315 -9 328 4 9 9 12 125 12 460 0 247 4 456 9 466 5 9 15 30 22 45
13 27 38 57 73 85 8 6 26 12 40 12 14 0 28 5 31 10 9 14 77 13 127 -2 52 -16
124 -83 133 -123 3 -17 10 -38 16 -47 5 -10 9 -206 9 -468 l0 -450 165 0 c164
0 165 0 170 23 4 13 5 237 3 498 -4 477 -4 484 -40 569 -18 43 -51 103 -67
123 -39 48 -115 117 -129 117 -5 0 -17 8 -28 18 -18 16 -74 37 -170 61 -23 6
-74 11 -114 11 -40 0 -91 -5 -114 -11 -94 -24 -147 -43 -165 -61 -11 -10 -25
-18 -32 -18 -13 0 -45 -33 -90 -94 -16 -21 -29 -33 -29 -26 0 17 -127 140
-145 140 -8 0 -15 4 -15 9 0 10 -10 13 -119 42 -91 24 -213 23 -296 0z"/>
</g>
</svg>
