<svg xmlns="http://www.w3.org/2000/svg" xmlns:xlink="http://www.w3.org/1999/xlink" viewBox="0 0 65 65" fill="#fff" fill-rule="evenodd" stroke="#000" stroke-linecap="round" stroke-linejoin="round" width="300" height="300" font-family="Roboto" font-size="14px" text-anchor="middle"><defs><style type="text/css"></style></defs><use xlink:href="#A" x=".5" y=".5"></use><symbol id="A" overflow="visible"><g stroke="none" fill-rule="nonzero"><path d="M21.344 5.36c-.822 4.34-1.828 10.784-2.376 17.32-.96 11.516-.366 19.238-.366 19.238L2.38 57.316S1.146 48.68.507 38.946C.14 32.914.004 27.613.004 24.414c0-.183.09-.366.09-.548 0-.23.274-2.376 2.376-4.387 2.285-2.193 19.147-15.4 18.873-14.12" fill="#3a8aca"></path><path d="M21.344 5.36c-.822 4.34-1.828 10.784-2.376 17.32 0 0-17.96-2.148-18.964 2.194 0-.228.32-2.88 2.422-4.9C4.71 17.79 21.618 4.08 21.344 5.36" fill="#262424"></path><path d="M.004 23.82v1.005c.183-.777.503-1.325 1.142-2.193 1.325-1.69 3.473-2.148 4.34-2.24 4.387-.594 10.876-1.28 17.4-1.462 11.56-.366 19.192.594 19.192.594l16.222-15.4s-8.5-1.6-18.187-2.742A246.65 246.65 0 0 0 25.046.013c-.23 0-2.468-.274-4.57 1.737L1.923 19.388c-2.102 2.01-1.92 4.25-1.92 4.433" fill="#c8d643"></path><path d="M57.72 43.515c-4.387.594-10.876 1.325-17.4 1.554-11.56.366-19.238-.594-19.238-.594L4.848 59.92a255.63 255.63 0 0 0 18.279 2.788c5.94.685 11.196 1.05 14.394 1.234.228 0 .594-.183.822-.183s2.468-.41 4.57-2.422c2.285-2.193 16.085-17.96 14.806-17.822" fill="#63308c"></path><path d="M57.72 43.516c-4.387.594-10.876 1.325-17.4 1.554 0 0 1.234 18.05-3.107 18.827.228 0 3.2-.137 5.3-2.148 2.285-2.193 16.496-18.37 15.217-18.233" fill="#262424"></path><path d="M38.16 63.987c-.32 0-.64-.046-1.005-.046.822-.137 1.37-.41 2.24-1.05 1.736-1.234 2.285-3.38 2.468-4.25.777-4.34 1.828-10.784 2.33-17.32.914-11.515.366-19.192.366-19.192L60.78 6.684a309.23 309.23 0 0 0 1.874 18.324 311.21 311.21 0 0 1 .594 15.08c0 .228.183 2.468-1.92 4.478L42.82 62.25c-2.193 2.01-4.433 1.736-4.66 1.736" fill="#81b950"></path></g></symbol></svg>