<?xml version="1.0" standalone="no"?>
<!DOCTYPE svg PUBLIC "-//W3C//DTD SVG 20010904//EN"
 "http://www.w3.org/TR/2001/REC-SVG-20010904/DTD/svg10.dtd">
<svg version="1.0" xmlns="http://www.w3.org/2000/svg"
 width="649.000000pt" height="649.000000pt" viewBox="0 0 649.000000 649.000000"
 preserveAspectRatio="xMidYMid meet">
<metadata>
Created by potrace 1.11, written by Peter Selinger 2001-2013
</metadata>
<g transform="translate(0.000000,649.000000) scale(0.100000,-0.100000)"
fill="#000000" stroke="none">
<path d="M429 6482 c-1 -4 -2 -1167 -3 -2585 l-1 -2577 32 -15 c17 -8 69 -33
115 -54 46 -21 294 -136 553 -256 259 -119 497 -230 530 -245 33 -15 94 -43
135 -63 41 -19 224 -103 405 -187 338 -156 401 -185 540 -250 82 -38 93 -43
325 -149 74 -34 144 -67 155 -72 22 -11 36 -5 230 86 55 26 143 66 195 90 52
24 148 68 214 99 65 31 119 56 121 56 2 0 50 22 107 49 56 27 157 74 223 104
66 30 161 74 210 97 50 23 144 67 210 97 66 30 163 75 215 100 52 25 138 64
190 88 52 24 145 66 205 95 61 29 148 69 195 90 47 21 128 58 180 83 52 24
120 56 150 69 30 14 85 40 121 57 l66 31 0 2584 0 2584 -61 -28 c-33 -15 -90
-41 -126 -58 -36 -16 -96 -44 -135 -62 -202 -93 -310 -143 -400 -185 -55 -26
-174 -81 -264 -122 -91 -41 -172 -79 -180 -84 -9 -4 -106 -49 -216 -99 -110
-50 -207 -94 -216 -99 -9 -5 -124 -59 -255 -119 -131 -61 -279 -129 -329 -152
-49 -23 -139 -65 -200 -92 -60 -28 -155 -72 -211 -98 -56 -26 -128 -60 -161
-74 l-60 -27 -94 44 c-52 25 -148 69 -214 100 -163 75 -240 110 -374 173 -62
30 -115 54 -117 54 -1 0 -45 20 -96 44 -51 24 -118 55 -148 69 -30 14 -95 44
-145 67 -49 23 -115 53 -145 67 -360 166 -710 328 -770 356 -69 32 -107 50
-270 125 -30 13 -106 49 -168 78 -63 30 -115 54 -118 54 -2 0 -35 15 -74 34
-38 19 -71 31 -71 28z m1267 -1853 c60 -28 215 -100 344 -159 129 -59 284
-131 343 -159 60 -28 110 -51 112 -51 1 0 54 -24 116 -54 63 -29 137 -64 164
-76 28 -13 93 -43 145 -67 52 -25 144 -67 204 -95 125 -57 94 -60 294 34 68
32 125 58 127 58 2 0 52 23 112 51 160 75 296 138 408 189 33 15 89 41 125 58
194 91 261 122 264 122 2 0 59 26 127 59 68 32 147 68 174 81 28 12 68 31 89
41 22 10 41 17 43 15 5 -4 6 -2617 1 -2621 -2 -1 -109 -51 -238 -110 -129 -59
-286 -132 -349 -161 -62 -30 -115 -54 -116 -54 -2 0 -52 -23 -112 -51 -98 -47
-277 -130 -423 -196 -30 -14 -101 -47 -158 -74 -56 -27 -105 -49 -107 -49 -2
0 -36 -16 -76 -35 l-71 -34 -96 43 c-90 41 -154 71 -352 163 -41 20 -129 60
-195 90 -66 31 -154 71 -195 90 -41 19 -223 104 -405 188 -181 84 -350 162
-375 174 l-45 23 2 1306 c1 719 2 1308 2 1310 2 5 10 1 117 -49z"/>
</g>
</svg>
