<?xml version="1.0" standalone="no"?>
<!DOCTYPE svg PUBLIC "-//W3C//DTD SVG 20010904//EN"
 "http://www.w3.org/TR/2001/REC-SVG-20010904/DTD/svg10.dtd">
<svg version="1.0" xmlns="http://www.w3.org/2000/svg"
 width="900.000000pt" height="900.000000pt" viewBox="0 0 900.000000 900.000000"
 preserveAspectRatio="xMidYMid meet">
<metadata>
Created by potrace 1.11, written by Peter Selinger 2001-2013
</metadata>
<g transform="translate(0.000000,900.000000) scale(0.100000,-0.100000)"
fill="#000000" stroke="none">
<path d="M0 4500 l0 -4500 4500 0 4500 0 0 4500 0 4500 -4500 0 -4500 0 0
-4500z m7942 2853 c-138 -411 -269 -672 -468 -936 -256 -339 -567 -609 -1019
-883 -100 -60 -507 -266 -640 -323 -55 -24 -118 -51 -140 -61 -70 -31 -346
-146 -445 -184 -52 -20 -111 -44 -130 -53 -44 -20 -275 -105 -405 -149 -223
-77 -493 -155 -880 -254 -146 -37 -485 -132 -516 -144 -10 -5 -54 27 -135 97
-185 160 -394 311 -629 454 -370 224 -819 402 -1271 504 -134 30 -421 79 -462
79 -15 0 408 289 535 366 18 10 79 47 135 81 921 553 2047 938 3088 1057 259
30 655 56 840 56 l85 0 -60 -58 c-33 -31 -132 -124 -220 -207 -88 -82 -189
-178 -225 -212 l-65 -63 45 0 c54 0 338 23 543 45 511 54 1147 183 1487 303
30 11 87 31 126 45 304 107 577 268 749 442 55 56 101 98 103 94 2 -4 -10 -47
-26 -96z m26 -2620 c67 -3 122 -9 122 -13 0 -4 -23 -11 -52 -14 -147 -20 -564
-149 -861 -267 -256 -102 -511 -214 -807 -353 -184 -87 -982 -489 -1034 -521
-12 -7 -57 -31 -100 -55 -159 -84 -692 -378 -806 -444 -36 -21 -82 -46 -102
-57 l-37 -19 -75 145 c-180 346 -408 674 -650 935 l-51 54 105 34 c517 165
1063 295 1715 406 409 70 1097 141 1615 165 203 10 864 13 1018 4z m-1183
-1135 c-151 -157 -264 -276 -435 -458 -90 -96 -208 -220 -260 -275 -53 -55
-136 -143 -185 -195 -50 -52 -137 -144 -195 -205 -99 -103 -331 -348 -534
-565 -50 -52 -128 -135 -176 -185 -47 -49 -127 -134 -178 -187 -51 -53 -95
-92 -97 -85 -2 7 -9 57 -15 112 -31 274 -109 621 -200 890 -28 83 -52 158 -53
168 -2 15 70 51 393 193 217 97 465 206 550 244 85 37 234 103 330 145 96 42
194 85 216 95 23 10 205 91 405 179 200 88 393 173 429 190 36 16 71 30 79 31
8 0 -25 -42 -74 -92z m-1081 -1808 c59 -28 87 -76 92 -152 4 -52 1 -71 -19
-108 -68 -129 -280 -126 -344 5 -35 71 -19 169 37 225 41 41 56 47 139 49 37
1 68 -6 95 -19z"/>
<path d="M5541 1752 c-50 -25 -73 -61 -74 -118 -3 -94 39 -145 128 -152 94 -8
155 47 155 141 0 63 -22 102 -70 127 -48 25 -94 25 -139 2z m127 -49 c16 -22
15 -58 -2 -72 -13 -11 -13 -17 0 -46 19 -47 18 -57 -8 -53 -14 2 -25 14 -33
37 -17 51 -35 51 -35 2 0 -37 -2 -41 -25 -41 -25 0 -25 0 -25 93 0 52 3 97 8
101 12 13 106 -4 120 -21z"/>
<path d="M5590 1665 c0 -22 4 -26 23 -23 14 2 22 10 22 23 0 13 -8 21 -22 23
-19 3 -23 -1 -23 -23z"/>
</g>
</svg>
