<?xml version="1.0" encoding="UTF-8"?>
<svg width="200px" height="29px" viewBox="0 0 200 29" version="1.1" xmlns="http://www.w3.org/2000/svg" xmlns:xlink="http://www.w3.org/1999/xlink">
    <!-- Generator: Sketch 50.2 (55047) - http://www.bohemiancoding.com/sketch -->
    <title>Logo</title>
    <desc>Created with Sketch.</desc>
    <defs>
        <polygon id="path-1" points="0.668 0.0584 14.879 0.0584 14.879 29 0.668 29"></polygon>
        <polygon id="path-3" points="0 0.058 14.2108 0.058 14.2108 29 0 29"></polygon>
        <polygon id="path-5" points="0.0353 0.122 15.064 0.122 15.064 18.909 0.0353 18.909"></polygon>
    </defs>
    <g id="Logo" stroke="none" stroke-width="1" fill="none" fill-rule="evenodd">
        <g id="Group-3" transform="translate(16.000000, -0.058200)">
            <mask id="mask-2" fill="white">
                <use xlink:href="#path-1"></use>
            </mask>
            <g id="Clip-2"></g>
            <path d="M10.393,29.0004 L0.803,29.0004 C0.729,29.0004 0.668,28.9394 0.668,28.8654 L0.668,0.1924 C0.668,0.1184 0.729,0.0584 0.803,0.0584 L14.744,0.0584 C14.818,0.0584 14.879,0.1184 14.879,0.1924 L14.879,24.5144 C14.879,26.9914 12.871,29.0004 10.393,29.0004" id="Fill-1" fill="#17D980" mask="url(#mask-2)"></path>
        </g>
        <g id="Group-6" transform="translate(0.000000, -0.058200)">
            <mask id="mask-4" fill="white">
                <use xlink:href="#path-3"></use>
            </mask>
            <g id="Clip-5"></g>
            <path d="M4.4858,0.058 L14.0758,0.058 C14.1498,0.058 14.2108,0.119 14.2108,0.193 L14.2108,28.866 C14.2108,28.94 14.1498,29 14.0758,29 L0.1348,29 C0.0608,29 -0.0002,28.94 -0.0002,28.866 L-0.0002,4.544 C-0.0002,2.066 2.0078,0.058 4.4858,0.058" id="Fill-4" fill="#0C284C" mask="url(#mask-4)"></path>
        </g>
        <path d="M53.5639,5.3958 L39.9069,5.3958 C39.8029,5.3958 39.7189,5.4798 39.7189,5.5838 L39.7189,8.2758 C39.7189,8.3788 39.8029,8.4638 39.9069,8.4638 L45.0869,8.4638 L45.0869,23.3308 C45.0869,23.4348 45.1709,23.5188 45.2739,23.5188 L48.1959,23.5188 C48.2999,23.5188 48.3839,23.4348 48.3839,23.3308 L48.3839,8.4638 L53.5639,8.4638 C53.6679,8.4638 53.7519,8.3788 53.7519,8.2758 L53.7519,5.5838 C53.7519,5.4798 53.6679,5.3958 53.5639,5.3958" id="Fill-7" fill="#1D2A36"></path>
        <path d="M69.6294,5.411 C69.6074,5.401 69.5824,5.396 69.5564,5.396 L66.6344,5.396 C66.5834,5.396 66.5364,5.417 66.5024,5.451 C66.4674,5.485 66.4464,5.532 66.4464,5.584 L66.4464,12.476 L59.0084,12.476 L59.0084,5.584 C59.0084,5.532 58.9874,5.485 58.9534,5.451 C58.9204,5.417 58.8734,5.396 58.8204,5.396 L55.8994,5.396 C55.8474,5.396 55.8004,5.417 55.7664,5.451 C55.7324,5.485 55.7114,5.532 55.7114,5.584 L55.7114,23.331 C55.7114,23.383 55.7324,23.43 55.7664,23.464 C55.8004,23.498 55.8474,23.518 55.8994,23.518 L58.8204,23.518 C58.8734,23.518 58.9204,23.498 58.9534,23.464 C58.9874,23.43 59.0084,23.383 59.0084,23.331 L59.0084,15.62 L66.4464,15.62 L66.4464,23.331 C66.4464,23.383 66.4674,23.43 66.5024,23.464 C66.5364,23.498 66.5834,23.518 66.6344,23.518 L69.5564,23.518 C69.5824,23.518 69.6074,23.514 69.6294,23.504 C69.6964,23.475 69.7444,23.409 69.7444,23.331 L69.7444,5.584 C69.7444,5.506 69.6964,5.439 69.6294,5.411" id="Fill-9" fill="#1D2A36"></path>
        <path d="M83.1123,17.5789 C83.0863,17.6899 83.0633,17.8039 83.0313,17.9119 C82.9873,18.0599 82.9323,18.2019 82.8783,18.3449 C82.8523,18.4109 82.8323,18.4809 82.8033,18.5469 C82.7303,18.7139 82.6423,18.8709 82.5503,19.0259 C82.5283,19.0609 82.5123,19.0999 82.4903,19.1359 C82.4303,19.2279 82.3663,19.3189 82.2983,19.4059 C82.2293,19.4939 82.1563,19.5779 82.0793,19.6589 C81.9903,19.7539 81.8963,19.8429 81.7973,19.9279 C81.7253,19.9879 81.6473,20.0449 81.5693,20.0999 C81.5423,20.1199 81.5173,20.1419 81.4893,20.1609 C81.1703,20.3779 80.8103,20.5489 80.4323,20.6689 C80.4243,20.6709 80.4183,20.6749 80.4103,20.6769 C80.3133,20.7069 80.2143,20.7299 80.1143,20.7529 C80.0803,20.7609 80.0473,20.7709 80.0133,20.7779 C79.9443,20.7929 79.8723,20.8009 79.8013,20.8109 C79.7383,20.8209 79.6753,20.8339 79.6123,20.8399 C79.5923,20.8419 79.5733,20.8419 79.5533,20.8429 C79.4413,20.8519 79.3283,20.8599 79.2163,20.8599 C79.1043,20.8599 78.9923,20.8519 78.8803,20.8429 C78.8603,20.8419 78.8403,20.8419 78.8203,20.8399 C78.7583,20.8339 78.6953,20.8209 78.6323,20.8109 C78.5613,20.8009 78.4893,20.7929 78.4193,20.7779 C78.3853,20.7709 78.3533,20.7609 78.3203,20.7529 C78.2193,20.7299 78.1203,20.7069 78.0223,20.6769 C78.0153,20.6749 78.0093,20.6719 78.0023,20.6699 C77.6233,20.5499 77.2623,20.3779 76.9433,20.1609 C76.9183,20.1429 76.8963,20.1239 76.8723,20.1069 C76.7913,20.0489 76.7103,19.9909 76.6353,19.9279 C76.5363,19.8429 76.4423,19.7539 76.3533,19.6589 C76.1983,19.4979 76.0623,19.3219 75.9423,19.1359 C75.9193,19.0999 75.9043,19.0599 75.8823,19.0239 C75.7903,18.8709 75.7023,18.7129 75.6293,18.5469 C75.6003,18.4809 75.5803,18.4109 75.5543,18.3439 C75.5003,18.2019 75.4453,18.0599 75.4013,17.9129 C75.3693,17.8039 75.3463,17.6889 75.3203,17.5779 C75.2943,17.4689 75.2653,17.3609 75.2443,17.2509 C75.2133,17.0869 75.1903,16.9199 75.1683,16.7529 C75.1603,16.6919 75.1493,16.6319 75.1423,16.5709 C75.1193,16.3649 75.1023,16.1559 75.0893,15.9479 C75.0873,15.9239 75.0853,15.8989 75.0833,15.8749 C75.0713,15.6659 75.0643,15.4569 75.0583,15.2479 C75.0583,15.2179 75.0563,15.1869 75.0553,15.1569 C75.0523,15.0009 75.0523,14.8459 75.0513,14.6909 C75.0513,14.6179 75.0493,14.5409 75.0493,14.4699 C75.0493,14.3979 75.0513,14.3189 75.0513,14.2449 C75.0523,14.0909 75.0523,13.9379 75.0553,13.7829 C75.0563,13.7449 75.0583,13.7039 75.0593,13.6649 C75.0653,13.4659 75.0713,13.2659 75.0833,13.0649 C75.0853,13.0219 75.0903,12.9779 75.0933,12.9349 C75.1053,12.7449 75.1203,12.5559 75.1413,12.3679 C75.1513,12.2799 75.1663,12.1919 75.1783,12.1039 C75.1983,11.9629 75.2163,11.8219 75.2423,11.6839 C75.2683,11.5459 75.3033,11.4109 75.3363,11.2749 C75.3573,11.1889 75.3753,11.0999 75.3993,11.0159 C75.4483,10.8479 75.5093,10.6849 75.5723,10.5239 C75.5923,10.4749 75.6063,10.4229 75.6273,10.3749 C75.7043,10.1979 75.7963,10.0299 75.8953,9.8669 C75.9113,9.8399 75.9243,9.8079 75.9413,9.7819 C76.0623,9.5939 76.1983,9.4169 76.3533,9.2559 C76.4423,9.1609 76.5363,9.0719 76.6353,8.9869 C76.7103,8.9239 76.7913,8.8659 76.8723,8.8079 C76.8963,8.7899 76.9183,8.7709 76.9433,8.7539 C77.2633,8.5359 77.6263,8.3629 78.0073,8.2439 C78.0123,8.2419 78.0163,8.2399 78.0213,8.2389 C78.1213,8.2069 78.2233,8.1829 78.3253,8.1599 C78.3563,8.1529 78.3873,8.1429 78.4183,8.1369 C78.4913,8.1209 78.5663,8.1129 78.6403,8.1019 C78.7003,8.0929 78.7603,8.0809 78.8203,8.0749 C78.8463,8.0719 78.8733,8.0729 78.9003,8.0709 C79.0053,8.0619 79.1113,8.0549 79.2163,8.0549 C79.3213,8.0549 79.4273,8.0619 79.5343,8.0709 C79.5603,8.0729 79.5863,8.0719 79.6123,8.0749 C79.6733,8.0809 79.7333,8.0929 79.7943,8.1019 C79.8673,8.1129 79.9413,8.1209 80.0143,8.1369 C80.0463,8.1429 80.0773,8.1529 80.1093,8.1609 C80.2103,8.1839 80.3113,8.2069 80.4103,8.2379 C80.4163,8.2399 80.4223,8.2429 80.4273,8.2449 C80.8073,8.3639 81.1693,8.5369 81.4893,8.7539 C81.5163,8.7719 81.5403,8.7929 81.5673,8.8119 C81.6453,8.8689 81.7243,8.9259 81.7973,8.9869 C81.8963,9.0719 81.9903,9.1609 82.0793,9.2559 C82.2343,9.4169 82.3703,9.5939 82.4913,9.7819 C82.5083,9.8079 82.5203,9.8399 82.5373,9.8669 C82.6363,10.0299 82.7283,10.1979 82.8053,10.3749 C82.8253,10.4229 82.8403,10.4749 82.8593,10.5239 C82.9233,10.6849 82.9843,10.8479 83.0333,11.0169 C83.0573,11.0999 83.0743,11.1879 83.0953,11.2739 C83.1293,11.4099 83.1643,11.5449 83.1903,11.6839 C83.2163,11.8219 83.2343,11.9629 83.2543,12.1039 C83.2663,12.1919 83.2813,12.2799 83.2913,12.3679 C83.3123,12.5559 83.3263,12.7449 83.3393,12.9349 C83.3423,12.9779 83.3473,13.0219 83.3493,13.0649 C83.3613,13.2659 83.3673,13.4659 83.3733,13.6649 C83.3743,13.7039 83.3763,13.7449 83.3773,13.7829 C83.3803,13.9379 83.3803,14.0909 83.3813,14.2449 C83.3813,14.3189 83.3833,14.3979 83.3833,14.4699 C83.3833,14.5409 83.3813,14.6179 83.3813,14.6909 C83.3803,14.8459 83.3803,15.0009 83.3773,15.1569 C83.3763,15.1869 83.3743,15.2179 83.3733,15.2479 C83.3683,15.4569 83.3613,15.6659 83.3493,15.8749 C83.3473,15.8989 83.3453,15.9239 83.3433,15.9479 C83.3303,16.1559 83.3133,16.3649 83.2903,16.5709 C83.2833,16.6319 83.2723,16.6919 83.2643,16.7529 C83.2423,16.9199 83.2193,17.0869 83.1883,17.2509 C83.1673,17.3609 83.1383,17.4699 83.1123,17.5789 M86.7243,13.8069 C86.7203,13.6289 86.7153,13.4539 86.7083,13.2799 C86.7063,13.2329 86.7033,13.1879 86.7013,13.1419 C86.6953,13.0149 86.6883,12.8879 86.6803,12.7629 C86.6753,12.6849 86.6693,12.6109 86.6633,12.5359 C86.6553,12.4479 86.6493,12.3599 86.6403,12.2739 C86.6313,12.1719 86.6193,12.0739 86.6083,11.9759 C86.6013,11.9159 86.5943,11.8549 86.5873,11.7959 C86.5723,11.6839 86.5553,11.5759 86.5383,11.4689 C86.5303,11.4189 86.5243,11.3699 86.5153,11.3209 C86.4973,11.2139 86.4763,11.1099 86.4553,11.0069 C86.4453,10.9549 86.4353,10.9039 86.4253,10.8519 C86.4023,10.7499 86.3773,10.6499 86.3513,10.5499 C86.2583,10.1819 86.1453,9.8239 86.0053,9.4779 C86.0043,9.4769 86.0043,9.4769 86.0043,9.4759 C85.8853,9.1829 85.7473,8.8969 85.5883,8.6189 L85.5853,8.6149 C85.4323,8.3469 85.2603,8.0869 85.0663,7.8329 C85.0633,7.8289 85.0593,7.8259 85.0563,7.8219 C84.8683,7.5779 84.6623,7.3399 84.4303,7.1079 C84.3673,7.0449 84.2983,6.9919 84.2333,6.9319 C84.1253,6.8319 84.0193,6.7289 83.9043,6.6379 C83.8053,6.5579 83.7003,6.4889 83.5973,6.4149 C83.5083,6.3509 83.4233,6.2839 83.3313,6.2239 C83.2223,6.1539 83.1083,6.0939 82.9963,6.0309 C82.9033,5.9769 82.8123,5.9209 82.7163,5.8719 C82.6053,5.8149 82.4893,5.7679 82.3753,5.7179 C82.2723,5.6729 82.1713,5.6229 82.0653,5.5819 C81.9513,5.5379 81.8353,5.5039 81.7193,5.4659 C81.6083,5.4289 81.4983,5.3879 81.3843,5.3559 C81.2613,5.3219 81.1353,5.2969 81.0093,5.2689 C80.9003,5.2439 80.7933,5.2149 80.6813,5.1949 C80.5213,5.1659 80.3583,5.1479 80.1953,5.1279 C80.1163,5.1189 80.0403,5.1049 79.9613,5.0979 C79.7143,5.0759 79.4663,5.0639 79.2163,5.0639 C78.9663,5.0639 78.7183,5.0759 78.4713,5.0979 C78.3933,5.1039 78.3173,5.1189 78.2383,5.1279 C78.0753,5.1479 77.9123,5.1659 77.7513,5.1949 C77.6403,5.2149 77.5333,5.2439 77.4243,5.2679 C77.2983,5.2969 77.1723,5.3219 77.0483,5.3559 C76.9343,5.3879 76.8253,5.4289 76.7143,5.4649 C76.5983,5.5029 76.4813,5.5379 76.3673,5.5819 C76.2623,5.6229 76.1623,5.6719 76.0593,5.7179 C75.9443,5.7679 75.8283,5.8149 75.7163,5.8719 C75.6203,5.9199 75.5303,5.9769 75.4383,6.0299 C75.3253,6.0939 75.2103,6.1539 75.1013,6.2239 C75.0093,6.2829 74.9243,6.3509 74.8363,6.4139 C74.7333,6.4879 74.6273,6.5579 74.5283,6.6379 C74.4143,6.7289 74.3093,6.8299 74.2023,6.9289 C74.1363,6.9899 74.0663,7.0439 74.0023,7.1079 C73.7703,7.3399 73.5643,7.5779 73.3763,7.8219 C73.3723,7.8259 73.3693,7.8289 73.3663,7.8329 C73.1723,8.0869 73.0003,8.3469 72.8473,8.6149 L72.8443,8.6189 C72.6853,8.8969 72.5473,9.1829 72.4283,9.4759 C72.4283,9.4769 72.4273,9.4769 72.4273,9.4779 C72.3573,9.6509 72.2943,9.8269 72.2373,10.0059 C72.1793,10.1839 72.1273,10.3659 72.0813,10.5499 C72.0553,10.6499 72.0303,10.7499 72.0083,10.8519 C71.9973,10.9039 71.9873,10.9549 71.9773,11.0069 C71.9563,11.1099 71.9353,11.2139 71.9173,11.3209 C71.9083,11.3699 71.9023,11.4189 71.8943,11.4689 C71.8773,11.5759 71.8603,11.6839 71.8453,11.7959 C71.8383,11.8549 71.8313,11.9159 71.8243,11.9759 C71.8133,12.0739 71.8013,12.1719 71.7923,12.2739 C71.7833,12.3599 71.7763,12.4479 71.7693,12.5359 C71.7633,12.6109 71.7573,12.6849 71.7523,12.7629 C71.7433,12.8879 71.7373,13.0149 71.7313,13.1419 C71.7293,13.1879 71.7263,13.2329 71.7243,13.2799 C71.7173,13.4539 71.7123,13.6289 71.7083,13.8069 C71.7083,13.8179 71.7083,13.8289 71.7073,13.8389 C71.7033,14.0469 71.7013,14.2569 71.7013,14.4699 C71.7013,15.6069 71.7513,16.6609 71.9233,17.6409 C71.9273,17.6669 71.9333,17.6909 71.9373,17.7179 C71.9613,17.8469 71.9863,17.9749 72.0133,18.0999 C72.0263,18.1589 72.0423,18.2159 72.0553,18.2729 C72.0773,18.3649 72.0993,18.4579 72.1243,18.5479 C72.1483,18.6359 72.1753,18.7209 72.2013,18.8059 C72.2203,18.8659 72.2373,18.9269 72.2573,18.9849 C72.2943,19.0959 72.3353,19.2039 72.3763,19.3109 C72.3893,19.3459 72.4013,19.3809 72.4143,19.4149 C72.4643,19.5369 72.5173,19.6579 72.5733,19.7779 C72.5823,19.7979 72.5903,19.8169 72.5993,19.8369 C72.6593,19.9619 72.7243,20.0849 72.7913,20.2069 C72.7993,20.2219 72.8063,20.2359 72.8153,20.2509 C72.8823,20.3699 72.9543,20.4869 73.0293,20.6019 C73.0403,20.6209 73.0503,20.6399 73.0623,20.6569 C73.1303,20.7609 73.2033,20.8609 73.2783,20.9629 C73.3003,20.9929 73.3203,21.0239 73.3433,21.0549 C73.4043,21.1329 73.4693,21.2099 73.5333,21.2869 C73.5753,21.3379 73.6143,21.3899 73.6593,21.4389 C73.6853,21.4699 73.7163,21.4989 73.7423,21.5289 C73.8273,21.6219 73.9103,21.7149 74.0023,21.8059 C74.0643,21.8679 74.1323,21.9209 74.1963,21.9799 C74.3053,22.0809 74.4123,22.1829 74.5283,22.2769 C74.6263,22.3559 74.7313,22.4259 74.8343,22.4989 C74.9233,22.5619 75.0093,22.6309 75.1013,22.6899 C75.2103,22.7609 75.3233,22.8199 75.4353,22.8839 C75.5293,22.9359 75.6203,22.9939 75.7163,23.0429 C75.8273,23.0999 75.9443,23.1459 76.0583,23.1969 C76.1613,23.2419 76.2613,23.2919 76.3673,23.3329 C76.4803,23.3759 76.5963,23.4109 76.7123,23.4489 C76.8233,23.4859 76.9343,23.5259 77.0483,23.5579 C77.1703,23.5929 77.2953,23.6169 77.4183,23.6449 C77.5293,23.6699 77.6383,23.6989 77.7513,23.7199 C77.9093,23.7489 78.0703,23.7659 78.2303,23.7849 C78.3113,23.7949 78.3903,23.8089 78.4723,23.8169 C78.7183,23.8389 78.9673,23.8499 79.2163,23.8499 C79.4663,23.8499 79.7143,23.8389 79.9603,23.8169 C80.0423,23.8089 80.1213,23.7949 80.2023,23.7849 C80.3623,23.7659 80.5233,23.7489 80.6813,23.7199 C80.7943,23.6989 80.9033,23.6699 81.0143,23.6439 C81.1383,23.6169 81.2623,23.5929 81.3843,23.5579 C81.4993,23.5259 81.6093,23.4849 81.7213,23.4479 C81.8363,23.4099 81.9523,23.3759 82.0653,23.3329 C82.1713,23.2919 82.2723,23.2419 82.3763,23.1959 C82.4893,23.1449 82.6053,23.0999 82.7163,23.0429 C82.8133,22.9939 82.9043,22.9359 82.9973,22.8839 C83.1093,22.8199 83.2223,22.7609 83.3313,22.6899 C83.4233,22.6309 83.5093,22.5619 83.5983,22.4989 C83.7013,22.4259 83.8063,22.3559 83.9043,22.2769 C84.0203,22.1829 84.1273,22.0809 84.2363,21.9799 C84.3003,21.9209 84.3683,21.8679 84.4303,21.8059 C84.5223,21.7149 84.6053,21.6219 84.6903,21.5289 C84.7163,21.4989 84.7473,21.4699 84.7733,21.4389 C84.8183,21.3899 84.8573,21.3379 84.8993,21.2869 C84.9633,21.2099 85.0293,21.1329 85.0893,21.0549 C85.1123,21.0239 85.1323,20.9929 85.1543,20.9629 C85.2293,20.8609 85.3023,20.7609 85.3703,20.6569 C85.3823,20.6399 85.3923,20.6209 85.4043,20.6019 C85.4783,20.4869 85.5503,20.3699 85.6173,20.2509 C85.6263,20.2359 85.6333,20.2219 85.6403,20.2069 C85.7083,20.0849 85.7733,19.9619 85.8333,19.8369 C85.8423,19.8169 85.8503,19.7979 85.8593,19.7779 C85.9153,19.6579 85.9683,19.5369 86.0183,19.4149 C86.0313,19.3809 86.0433,19.3459 86.0563,19.3109 C86.0973,19.2039 86.1383,19.0959 86.1753,18.9849 C86.1953,18.9269 86.2123,18.8659 86.2313,18.8059 C86.2573,18.7209 86.2843,18.6359 86.3083,18.5479 C86.3333,18.4579 86.3543,18.3649 86.3773,18.2729 C86.3903,18.2159 86.4063,18.1589 86.4193,18.0999 C86.4463,17.9749 86.4713,17.8469 86.4953,17.7179 C86.4993,17.6909 86.5053,17.6669 86.5093,17.6409 C86.6813,16.6609 86.7313,15.6069 86.7313,14.4699 C86.7313,14.2569 86.7293,14.0469 86.7253,13.8389 C86.7243,13.8289 86.7243,13.8179 86.7243,13.8069" id="Fill-11" fill="#1D2A36"></path>
        <path d="M106.7002,5.3958 L102.8022,5.3958 C102.7222,5.3958 102.6522,5.4448 102.6252,5.5188 L97.8912,18.3038 L95.8582,12.7858 L93.1812,5.5188 C93.1542,5.4448 93.0842,5.3958 93.0052,5.3958 L88.8772,5.3958 C88.7732,5.3958 88.6892,5.4798 88.6892,5.5838 L88.6892,23.3308 C88.6892,23.4348 88.7732,23.5188 88.8772,23.5188 L91.6962,23.5188 C91.8002,23.5188 91.8842,23.4348 91.8842,23.3308 L91.8842,10.4328 L94.1422,16.6258 L96.5162,23.1398 C96.5432,23.2138 96.6142,23.2628 96.6932,23.2628 L98.8592,23.2628 C98.9382,23.2628 99.0082,23.2138 99.0352,23.1408 L103.6922,10.5858 L103.6932,16.7518 L103.6932,23.3308 C103.6932,23.3568 103.6982,23.3818 103.7082,23.4038 C103.7362,23.4718 103.8042,23.5188 103.8812,23.5188 L106.7002,23.5188 C106.7522,23.5188 106.7992,23.4978 106.8332,23.4638 C106.8672,23.4298 106.8872,23.3828 106.8872,23.3308 L106.8872,5.5838 C106.8872,5.5318 106.8672,5.4848 106.8332,5.4508 C106.7992,5.4168 106.7522,5.3958 106.7002,5.3958" id="Fill-13" fill="#1D2A36"></path>
        <path d="M133.1562,8.2337 C133.3462,8.2337 133.5272,8.2437 133.6992,8.2627 C133.7242,8.2657 133.7502,8.2697 133.7762,8.2737 C133.9302,8.2927 134.0792,8.3177 134.2182,8.3527 C134.2472,8.3587 134.2732,8.3677 134.3022,8.3757 C134.4382,8.4127 134.5692,8.4557 134.6892,8.5077 C134.7082,8.5157 134.7252,8.5247 134.7432,8.5327 C134.8672,8.5897 134.9842,8.6527 135.0912,8.7257 C135.0952,8.7297 135.1012,8.7327 135.1062,8.7357 C135.2412,8.8297 135.3592,8.9367 135.4622,9.0557 C135.4702,9.0657 135.4772,9.0767 135.4862,9.0867 C135.5812,9.2017 135.6632,9.3267 135.7282,9.4627 C135.7352,9.4777 135.7412,9.4937 135.7482,9.5077 C135.8102,9.6467 135.8602,9.7947 135.8932,9.9537 C135.8962,9.9687 135.8972,9.9857 135.9002,10.0017 C135.9312,10.1647 135.9492,10.3377 135.9502,10.5227 L135.9502,10.5337 C135.9502,10.7427 135.9302,10.9327 135.8942,11.1077 C135.8812,11.1787 135.8522,11.2387 135.8322,11.3057 C135.8022,11.4027 135.7772,11.5047 135.7372,11.5897 C135.6992,11.6707 135.6462,11.7377 135.5982,11.8107 C135.5592,11.8687 135.5272,11.9347 135.4822,11.9877 C135.3972,12.0877 135.2962,12.1747 135.1882,12.2557 C135.0522,12.3587 134.9042,12.4477 134.7412,12.5177 C134.6972,12.5367 134.6452,12.5487 134.5992,12.5657 C134.4962,12.6027 134.3942,12.6407 134.2842,12.6677 C134.2142,12.6847 134.1352,12.6937 134.0612,12.7067 C133.9652,12.7237 133.8712,12.7437 133.7712,12.7547 C133.6422,12.7687 133.5052,12.7727 133.3662,12.7757 C133.3152,12.7767 133.2662,12.7827 133.2162,12.7827 L129.0742,12.7827 L129.0742,8.2337 L133.1382,8.2337 C133.1442,8.2337 133.1502,8.2337 133.1562,8.2337 M134.9102,20.2677 C134.8752,20.2807 134.8412,20.2967 134.8052,20.3107 C134.7452,20.3327 134.6832,20.3527 134.6222,20.3717 C134.5932,20.3807 134.5652,20.3907 134.5362,20.3987 C134.4702,20.4167 134.4032,20.4337 134.3362,20.4487 C134.3102,20.4547 134.2852,20.4617 134.2602,20.4667 C134.1902,20.4827 134.1202,20.4947 134.0492,20.5067 C134.0252,20.5107 134.0022,20.5147 133.9792,20.5187 C133.9062,20.5287 133.8332,20.5377 133.7592,20.5457 C133.7382,20.5477 133.7172,20.5507 133.6962,20.5527 C133.6162,20.5607 133.5362,20.5667 133.4562,20.5697 C133.4432,20.5707 133.4302,20.5717 133.4192,20.5717 C133.3252,20.5767 133.2312,20.5787 133.1382,20.5787 L129.0742,20.5787 L129.0742,15.5437 L133.2412,15.5437 C133.2582,15.5437 133.2732,15.5447 133.2902,15.5447 C133.4062,15.5457 133.5162,15.5497 133.6242,15.5567 C133.6802,15.5607 133.7372,15.5657 133.7942,15.5697 C133.8532,15.5757 133.9112,15.5837 133.9682,15.5907 C134.0372,15.5997 134.1042,15.6087 134.1712,15.6197 C134.1742,15.6207 134.1772,15.6207 134.1812,15.6217 C134.4682,15.6737 134.7362,15.7527 134.9782,15.8617 C134.9802,15.8627 134.9832,15.8637 134.9862,15.8657 C135.0632,15.9007 135.1382,15.9407 135.2102,15.9817 L135.2302,15.9927 C135.2982,16.0327 135.3632,16.0757 135.4262,16.1217 C135.4362,16.1307 135.4472,16.1387 135.4572,16.1467 C135.5132,16.1897 135.5672,16.2347 135.6182,16.2827 C135.6352,16.2977 135.6502,16.3137 135.6652,16.3287 C135.7082,16.3717 135.7492,16.4157 135.7882,16.4627 C135.8082,16.4867 135.8282,16.5117 135.8472,16.5367 C135.8782,16.5767 135.9072,16.6177 135.9352,16.6607 C135.9572,16.6937 135.9772,16.7277 135.9972,16.7617 C136.0182,16.7997 136.0402,16.8387 136.0592,16.8797 C136.0792,16.9187 136.0972,16.9567 136.1142,16.9967 C136.1332,17.0377 136.1482,17.0817 136.1642,17.1247 C136.1772,17.1637 136.1932,17.2027 136.2052,17.2427 C136.2292,17.3227 136.2512,17.4047 136.2682,17.4917 C136.2732,17.5147 136.2762,17.5367 136.2802,17.5597 C136.2932,17.6347 136.3042,17.7107 136.3122,17.7897 C136.3152,17.8157 136.3182,17.8397 136.3202,17.8647 C136.3282,17.9657 136.3342,18.0677 136.3342,18.1767 C136.3342,18.2887 136.3272,18.3977 136.3152,18.5007 C136.3132,18.5187 136.3082,18.5337 136.3062,18.5517 C136.2952,18.6357 136.2812,18.7187 136.2612,18.7967 C136.2562,18.8187 136.2482,18.8397 136.2422,18.8617 C136.2212,18.9327 136.2012,19.0027 136.1752,19.0677 C136.1662,19.0907 136.1552,19.1097 136.1452,19.1317 C136.1182,19.1947 136.0902,19.2577 136.0562,19.3157 C136.0452,19.3367 136.0302,19.3567 136.0172,19.3757 C135.9832,19.4317 135.9482,19.4867 135.9092,19.5377 C135.8922,19.5597 135.8742,19.5787 135.8572,19.5997 C135.8172,19.6467 135.7782,19.6927 135.7352,19.7357 C135.7122,19.7607 135.6842,19.7817 135.6592,19.8047 C135.6182,19.8417 135.5782,19.8797 135.5352,19.9137 C135.4932,19.9457 135.4462,19.9757 135.4012,20.0067 C135.3442,20.0437 135.2882,20.0797 135.2282,20.1127 C135.1752,20.1437 135.1212,20.1737 135.0652,20.1997 C135.0142,20.2247 134.9622,20.2457 134.9102,20.2677 M139.4202,16.7097 C139.2452,16.2177 138.9852,15.7567 138.6412,15.3487 C138.6312,15.3357 138.6172,15.3247 138.6062,15.3127 C138.4762,15.1627 138.3392,15.0187 138.1862,14.8847 C138.1662,14.8677 138.1422,14.8537 138.1232,14.8367 C137.9772,14.7127 137.8272,14.5947 137.6632,14.4887 C137.5812,14.4357 137.4902,14.3937 137.4042,14.3457 C137.2962,14.2847 137.1922,14.2177 137.0752,14.1637 C137.2572,14.0817 137.4292,13.9837 137.5932,13.8717 C137.6952,13.8017 137.7842,13.7197 137.8772,13.6407 C137.9322,13.5927 137.9932,13.5517 138.0472,13.5007 C138.1542,13.3957 138.2492,13.2807 138.3432,13.1647 C138.3732,13.1267 138.4082,13.0937 138.4382,13.0547 C138.6272,12.7997 138.7762,12.5207 138.9022,12.2307 C138.9312,12.1627 138.9662,12.0987 138.9922,12.0277 C139.0512,11.8737 139.0952,11.7147 139.1362,11.5557 C139.1432,11.5297 139.1542,11.5047 139.1602,11.4787 C139.2012,11.3087 139.2302,11.1367 139.2532,10.9647 C139.2562,10.9457 139.2602,10.9267 139.2632,10.9077 C139.2862,10.7127 139.2992,10.5197 139.2992,10.3287 C139.2992,8.7707 138.5322,7.2617 137.2032,6.3927 C137.1842,6.3807 137.1662,6.3727 137.1472,6.3607 C137.0212,6.2817 136.8912,6.2067 136.7572,6.1377 C136.7122,6.1147 136.6652,6.0947 136.6192,6.0727 C136.5072,6.0197 136.3922,5.9667 136.2742,5.9207 C136.2272,5.9017 136.1792,5.8857 136.1332,5.8677 C136.0152,5.8247 135.8952,5.7837 135.7722,5.7467 C135.7192,5.7307 135.6672,5.7167 135.6152,5.7027 C135.4992,5.6707 135.3822,5.6407 135.2612,5.6137 C135.1932,5.5987 135.1242,5.5867 135.0552,5.5727 C134.9522,5.5527 134.8472,5.5337 134.7402,5.5177 C134.6452,5.5027 134.5502,5.4907 134.4542,5.4797 C134.3702,5.4697 134.2862,5.4587 134.2002,5.4507 C134.0652,5.4377 133.9292,5.4287 133.7952,5.4207 C133.7392,5.4177 133.6852,5.4127 133.6292,5.4107 C133.4222,5.4007 133.2162,5.3957 133.0102,5.3957 L125.9902,5.3957 C125.9382,5.3957 125.8912,5.4167 125.8572,5.4507 C125.8242,5.4847 125.8022,5.5317 125.8022,5.5837 L125.8022,23.3567 C125.8022,23.4077 125.8242,23.4547 125.8572,23.4887 C125.8912,23.5237 125.9382,23.5437 125.9902,23.5437 L133.0102,23.5437 C133.2462,23.5437 133.4802,23.5397 133.7142,23.5327 C133.7282,23.5317 133.7422,23.5307 133.7572,23.5307 C133.9622,23.5237 134.1652,23.5127 134.3682,23.4967 C134.4272,23.4917 134.4832,23.4837 134.5412,23.4797 C134.6912,23.4647 134.8412,23.4497 134.9882,23.4297 C135.0952,23.4147 135.1992,23.3947 135.3042,23.3757 C135.3982,23.3587 135.4942,23.3447 135.5882,23.3237 C135.7322,23.2927 135.8722,23.2537 136.0112,23.2137 C136.0652,23.1987 136.1212,23.1867 136.1742,23.1697 C136.3322,23.1197 136.4862,23.0617 136.6382,22.9987 C136.6762,22.9837 136.7142,22.9717 136.7512,22.9557 C136.9012,22.8907 137.0472,22.8147 137.1912,22.7337 C137.2312,22.7117 137.2722,22.6937 137.3122,22.6717 C137.4612,22.5837 137.6052,22.4837 137.7482,22.3797 C137.7792,22.3577 137.8112,22.3407 137.8422,22.3167 C137.9312,22.2487 138.0092,22.1727 138.0922,22.0997 C138.1552,22.0427 138.2242,21.9907 138.2852,21.9317 C138.3902,21.8277 138.4832,21.7167 138.5762,21.6057 C138.6052,21.5697 138.6392,21.5377 138.6682,21.5017 C138.7712,21.3677 138.8642,21.2287 138.9512,21.0857 C138.9632,21.0667 138.9772,21.0487 138.9892,21.0287 C139.1452,20.7647 139.2672,20.4827 139.3692,20.1907 C139.3912,20.1247 139.4192,20.0637 139.4392,19.9957 C139.4792,19.8627 139.5102,19.7257 139.5402,19.5877 C139.5502,19.5387 139.5652,19.4927 139.5742,19.4427 C139.6062,19.2757 139.6282,19.1067 139.6452,18.9347 C139.6472,18.9097 139.6522,18.8877 139.6552,18.8627 C139.6732,18.6627 139.6822,18.4597 139.6822,18.2537 C139.6822,17.8567 139.6332,17.4627 139.5342,17.0837 C139.5022,16.9567 139.4632,16.8317 139.4202,16.7097" id="Fill-15" fill="#1D2A36"></path>
        <path d="M150.6513,13.5096 C150.6393,13.5136 150.6303,13.5206 150.6173,13.5246 C150.5653,13.5416 150.5033,13.5486 150.4483,13.5636 C150.1243,13.6496 149.7693,13.7036 149.3703,13.7036 L144.9733,13.7036 L144.9733,8.2836 L149.3193,8.2836 C149.3243,8.2836 149.3283,8.2846 149.3323,8.2846 C149.5343,8.2856 149.7283,8.3026 149.9163,8.3326 C149.9343,8.3356 149.9553,8.3376 149.9743,8.3406 C150.1543,8.3726 150.3253,8.4206 150.4903,8.4786 C150.5143,8.4876 150.5403,8.4936 150.5633,8.5036 C150.7253,8.5656 150.8803,8.6426 151.0253,8.7306 C151.0423,8.7416 151.0603,8.7506 151.0773,8.7606 C151.2313,8.8596 151.3763,8.9716 151.5073,9.0996 C151.5113,9.1036 151.5163,9.1086 151.5203,9.1126 C151.6423,9.2316 151.7503,9.3616 151.8443,9.4996 C151.8503,9.5086 151.8563,9.5166 151.8623,9.5246 C151.9533,9.6606 152.0303,9.8056 152.0943,9.9556 C152.0993,9.9676 152.1053,9.9796 152.1103,9.9906 C152.1723,10.1426 152.2193,10.3016 152.2533,10.4636 C152.2553,10.4736 152.2573,10.4846 152.2593,10.4946 C152.2923,10.6616 152.3083,10.8336 152.3093,11.0096 L152.3093,11.0196 C152.3093,11.4466 152.2433,11.8276 152.1133,12.1586 C151.8583,12.8106 151.3583,13.2696 150.6513,13.5096 M155.5743,10.4006 C155.5573,10.2366 155.5373,10.0736 155.5073,9.9126 C155.5033,9.8846 155.4943,9.8576 155.4893,9.8296 C155.4593,9.6786 155.4263,9.5286 155.3843,9.3816 C155.3793,9.3596 155.3703,9.3386 155.3643,9.3176 C155.3203,9.1666 155.2713,9.0176 155.2143,8.8716 C155.2093,8.8566 155.2013,8.8426 155.1953,8.8276 C155.1353,8.6776 155.0713,8.5306 154.9983,8.3866 C154.9913,8.3736 154.9833,8.3616 154.9763,8.3486 C154.9023,8.2066 154.8243,8.0676 154.7373,7.9316 C154.7233,7.9116 154.7083,7.8926 154.6943,7.8716 C154.6113,7.7476 154.5263,7.6246 154.4313,7.5076 C154.3963,7.4636 154.3563,7.4246 154.3203,7.3816 C154.2193,7.2646 154.1143,7.1506 154.0033,7.0416 C153.8913,6.9316 153.7733,6.8256 153.6483,6.7256 C153.6183,6.7016 153.5863,6.6816 153.5543,6.6586 C153.4293,6.5626 153.3013,6.4686 153.1653,6.3826 C153.1273,6.3586 153.0853,6.3386 153.0463,6.3156 C152.9123,6.2356 152.7753,6.1566 152.6303,6.0866 C152.5913,6.0676 152.5503,6.0526 152.5113,6.0346 C152.3623,5.9656 152.2113,5.8996 152.0503,5.8416 C152.0103,5.8266 151.9683,5.8156 151.9283,5.8016 C151.7663,5.7466 151.6023,5.6936 151.4293,5.6496 C151.3803,5.6366 151.3293,5.6276 151.2793,5.6156 C151.1133,5.5766 150.9453,5.5396 150.7683,5.5106 C150.6943,5.4986 150.6163,5.4916 150.5413,5.4826 C150.3843,5.4606 150.2293,5.4386 150.0653,5.4256 C149.9103,5.4136 149.7493,5.4106 149.5893,5.4066 C149.4983,5.4046 149.4123,5.3956 149.3193,5.3956 L141.8643,5.3956 C141.8383,5.3956 141.8133,5.4016 141.7913,5.4106 C141.7233,5.4396 141.6763,5.5066 141.6763,5.5836 L141.6763,23.3306 C141.6763,23.4086 141.7233,23.4756 141.7913,23.5036 C141.8133,23.5136 141.8383,23.5186 141.8643,23.5186 L144.8113,23.5186 C144.9153,23.5186 145.0003,23.4346 145.0003,23.3306 L145.0003,16.6686 L149.0123,16.6686 L151.9793,23.4056 C152.0083,23.4746 152.0773,23.5186 152.1513,23.5186 L155.3173,23.5186 C155.3473,23.5186 155.3743,23.5096 155.3993,23.4976 C155.4013,23.4956 155.4043,23.4966 155.4063,23.4946 C155.4623,23.4646 155.4993,23.4076 155.5043,23.3456 C155.5043,23.3436 155.5033,23.3416 155.5033,23.3406 C155.5053,23.3126 155.5013,23.2826 155.4883,23.2536 L152.2843,16.1066 C152.2973,16.1016 152.3083,16.0956 152.3203,16.0906 C152.4333,16.0476 152.5443,16.0026 152.6523,15.9516 C152.7593,15.9026 152.8633,15.8476 152.9653,15.7916 C152.9773,15.7846 152.9893,15.7806 153.0003,15.7736 C153.4583,15.5166 153.8653,15.1916 154.2133,14.8116 C154.5603,14.4316 154.8493,13.9956 155.0733,13.5166 C155.0763,13.5106 155.0793,13.5046 155.0823,13.4986 C155.1273,13.4016 155.1683,13.3006 155.2073,13.1996 C155.2173,13.1726 155.2303,13.1456 155.2403,13.1176 C155.2713,13.0356 155.2973,12.9506 155.3243,12.8666 C155.3393,12.8186 155.3573,12.7716 155.3713,12.7226 C155.3903,12.6566 155.4053,12.5896 155.4223,12.5226 C155.4393,12.4526 155.4593,12.3836 155.4733,12.3126 C155.4833,12.2666 155.4903,12.2196 155.4983,12.1746 C155.5153,12.0796 155.5343,11.9866 155.5473,11.8896 C155.5493,11.8746 155.5503,11.8586 155.5523,11.8426 C155.5703,11.7086 155.5843,11.5736 155.5923,11.4366 C155.6023,11.2996 155.6073,11.1606 155.6073,11.0196 C155.6073,10.8306 155.5973,10.6436 155.5823,10.4576 C155.5803,10.4386 155.5763,10.4196 155.5743,10.4006" id="Fill-17" fill="#1D2A36"></path>
        <g id="Group-21" transform="translate(185.000000, 4.941800)">
            <mask id="mask-6" fill="white">
                <use xlink:href="#path-5"></use>
            </mask>
            <g id="Clip-20"></g>
            <path d="M11.4443,12.643 C11.4193,12.752 11.3953,12.864 11.3653,12.97 C11.3213,13.12 11.2653,13.263 11.2103,13.407 C11.1843,13.472 11.1653,13.54 11.1363,13.604 C11.0633,13.772 10.9753,13.93 10.8823,14.085 C10.8613,14.121 10.8453,14.159 10.8243,14.193 C10.7043,14.38 10.5673,14.556 10.4123,14.717 C10.3243,14.812 10.2293,14.901 10.1313,14.986 C10.0583,15.046 9.9803,15.103 9.9033,15.159 C9.8763,15.178 9.8503,15.2 9.8233,15.219 C9.5043,15.436 9.1433,15.607 8.7653,15.727 C8.7573,15.729 8.7513,15.733 8.7443,15.735 C8.6463,15.765 8.5473,15.789 8.4473,15.811 C8.4143,15.819 8.3813,15.83 8.3473,15.836 C8.2773,15.851 8.2063,15.859 8.1353,15.87 C8.0723,15.879 8.0083,15.892 7.9453,15.898 C7.9253,15.9 7.9063,15.9 7.8873,15.901 C7.7743,15.911 7.6623,15.918 7.5493,15.918 C7.4363,15.918 7.3233,15.911 7.2093,15.901 C7.1903,15.9 7.1733,15.9 7.1543,15.898 C7.0893,15.891 7.0233,15.878 6.9583,15.869 C6.8893,15.858 6.8203,15.85 6.7533,15.836 C6.7153,15.829 6.6793,15.817 6.6423,15.809 C6.5463,15.787 6.4503,15.764 6.3563,15.735 C6.3443,15.731 6.3343,15.726 6.3223,15.723 C5.9483,15.603 5.5923,15.433 5.2763,15.219 C5.2463,15.199 5.2193,15.175 5.1903,15.154 C5.1153,15.099 5.0393,15.045 4.9683,14.986 C4.8703,14.901 4.7753,14.812 4.6873,14.717 C4.5323,14.556 4.3963,14.38 4.2753,14.194 C4.2533,14.158 4.2373,14.118 4.2153,14.081 C4.1233,13.928 4.0353,13.771 3.9633,13.605 C3.9333,13.538 3.9123,13.465 3.8853,13.396 C3.8323,13.256 3.7773,13.117 3.7353,12.971 C3.7033,12.86 3.6783,12.744 3.6523,12.628 C3.6273,12.523 3.5983,12.417 3.5783,12.31 C3.5473,12.144 3.5233,11.975 3.5013,11.805 C3.4933,11.747 3.4823,11.689 3.4763,11.63 C3.4533,11.422 3.4353,11.212 3.4233,11.001 C3.4213,10.979 3.4183,10.956 3.4173,10.934 C3.4053,10.724 3.3973,10.515 3.3923,10.305 C3.3913,10.276 3.3893,10.245 3.3893,10.215 C3.3863,10.059 3.3853,9.904 3.3843,9.749 C3.3843,9.676 3.3833,9.599 3.3833,9.528 C3.3833,9.456 3.3843,9.377 3.3843,9.303 C3.3853,9.149 3.3863,8.996 3.3893,8.841 C3.3903,8.803 3.3923,8.763 3.3933,8.725 C3.3983,8.524 3.4053,8.323 3.4173,8.122 C3.4193,8.081 3.4233,8.039 3.4263,7.997 C3.4393,7.806 3.4543,7.614 3.4753,7.425 C3.4843,7.339 3.5003,7.254 3.5113,7.168 C3.5313,7.025 3.5493,6.882 3.5763,6.742 C3.6013,6.606 3.6353,6.474 3.6693,6.34 C3.6903,6.251 3.7083,6.16 3.7333,6.074 C3.7813,5.907 3.8413,5.747 3.9043,5.588 C3.9243,5.538 3.9393,5.483 3.9613,5.433 C4.0383,5.256 4.1303,5.089 4.2273,4.927 C4.2453,4.899 4.2573,4.867 4.2753,4.84 C4.3953,4.652 4.5323,4.476 4.6873,4.314 C4.7753,4.219 4.8703,4.13 4.9683,4.045 C5.0393,3.986 5.1153,3.932 5.1903,3.877 C5.2193,3.856 5.2463,3.832 5.2763,3.812 C5.5933,3.597 5.9513,3.426 6.3273,3.307 C6.3373,3.304 6.3453,3.299 6.3553,3.296 C6.4523,3.267 6.5493,3.244 6.6473,3.221 C6.6823,3.213 6.7163,3.202 6.7523,3.195 C6.8233,3.18 6.8943,3.172 6.9653,3.162 C7.0283,3.152 7.0903,3.139 7.1543,3.133 C7.1783,3.13 7.2043,3.131 7.2283,3.129 C7.3363,3.12 7.4433,3.113 7.5493,3.113 C7.6553,3.113 7.7613,3.12 7.8673,3.129 C7.8933,3.131 7.9203,3.13 7.9453,3.133 C8.0063,3.139 8.0663,3.151 8.1283,3.161 C8.2013,3.171 8.2743,3.18 8.3473,3.195 C8.3803,3.201 8.4103,3.211 8.4423,3.219 C8.5443,3.242 8.6453,3.266 8.7443,3.296 C8.7503,3.298 8.7553,3.301 8.7603,3.303 C9.1413,3.422 9.5033,3.595 9.8233,3.812 C9.8493,3.83 9.8743,3.851 9.9003,3.871 C9.9793,3.927 10.0573,3.984 10.1313,4.045 C10.2293,4.13 10.3243,4.219 10.4123,4.314 C10.5673,4.476 10.7043,4.652 10.8243,4.84 C10.8413,4.866 10.8533,4.896 10.8703,4.923 C10.9683,5.087 11.0613,5.256 11.1383,5.434 C11.1593,5.48 11.1733,5.531 11.1913,5.578 C11.2563,5.74 11.3173,5.905 11.3673,6.075 C11.3903,6.157 11.4073,6.243 11.4273,6.326 C11.4623,6.465 11.4983,6.602 11.5243,6.744 C11.5483,6.879 11.5673,7.018 11.5863,7.156 C11.5983,7.247 11.6143,7.336 11.6253,7.427 C11.6453,7.613 11.6603,7.8 11.6733,7.988 C11.6753,8.034 11.6803,8.079 11.6833,8.124 C11.6943,8.324 11.7013,8.523 11.7063,8.723 C11.7073,8.762 11.7103,8.803 11.7103,8.841 C11.7143,8.997 11.7143,9.149 11.7153,9.303 C11.7153,9.377 11.7153,9.456 11.7153,9.528 C11.7153,9.599 11.7153,9.676 11.7153,9.749 C11.7143,9.904 11.7143,10.058 11.7103,10.215 C11.7103,10.246 11.7083,10.277 11.7073,10.307 C11.7023,10.515 11.6953,10.724 11.6823,10.933 C11.6813,10.958 11.6783,10.984 11.6763,11.009 C11.6633,11.217 11.6463,11.423 11.6243,11.628 C11.6163,11.692 11.6053,11.754 11.5963,11.817 C11.5753,11.982 11.5523,12.147 11.5223,12.308 C11.5013,12.421 11.4703,12.531 11.4443,12.643 M15.0583,8.897 C15.0573,8.886 15.0573,8.876 15.0573,8.865 C15.0533,8.687 15.0483,8.512 15.0413,8.338 C15.0393,8.291 15.0373,8.247 15.0343,8.201 C15.0283,8.073 15.0223,7.946 15.0133,7.821 C15.0083,7.743 15.0023,7.668 14.9963,7.593 C14.9893,7.505 14.9823,7.418 14.9733,7.332 C14.9643,7.231 14.9533,7.133 14.9413,7.035 C14.9343,6.975 14.9273,6.914 14.9203,6.853 C14.9053,6.743 14.8893,6.635 14.8723,6.529 C14.8643,6.479 14.8573,6.428 14.8483,6.378 C14.8303,6.272 14.8093,6.169 14.7893,6.067 C14.7783,6.015 14.7693,5.962 14.7573,5.91 C14.7353,5.808 14.7103,5.709 14.6853,5.61 C14.5913,5.241 14.4783,4.883 14.3383,4.536 L14.3383,4.535 C14.2183,4.241 14.0803,3.955 13.9223,3.677 L13.9193,3.673 C13.7663,3.405 13.5933,3.145 13.3993,2.892 L13.3903,2.88 C13.2023,2.636 12.9953,2.398 12.7643,2.166 C12.7013,2.103 12.6313,2.05 12.5673,1.99 C12.4593,1.89 12.3523,1.788 12.2383,1.696 C12.1393,1.616 12.0353,1.547 11.9323,1.474 C11.8433,1.41 11.7573,1.342 11.6653,1.282 C11.5563,1.213 11.4433,1.153 11.3323,1.09 C11.2373,1.037 11.1463,0.979 11.0493,0.93 C10.9393,0.874 10.8243,0.828 10.7123,0.778 C10.6073,0.731 10.5053,0.682 10.3983,0.64 C10.2863,0.597 10.1703,0.562 10.0553,0.525 C9.9433,0.487 9.8333,0.446 9.7173,0.414 C9.5953,0.38 9.4703,0.356 9.3463,0.328 C9.2353,0.303 9.1273,0.273 9.0143,0.253 C8.8543,0.224 8.6923,0.206 8.5293,0.187 C8.4513,0.178 8.3743,0.163 8.2943,0.156 C8.0483,0.134 7.7983,0.122 7.5493,0.122 C7.3003,0.122 7.0513,0.134 6.8053,0.156 C6.7253,0.163 6.6493,0.178 6.5703,0.187 C6.4073,0.206 6.2453,0.224 6.0853,0.253 C5.9723,0.273 5.8643,0.303 5.7543,0.328 C5.6293,0.356 5.5043,0.38 5.3823,0.414 C5.2663,0.446 5.1563,0.487 5.0443,0.525 C4.9293,0.562 4.8133,0.597 4.7013,0.64 C4.5943,0.682 4.4923,0.731 4.3883,0.778 C4.2753,0.828 4.1603,0.874 4.0493,0.93 C3.9533,0.979 3.8623,1.037 3.7683,1.09 C3.6563,1.153 3.5433,1.213 3.4343,1.282 C3.3423,1.342 3.2563,1.41 3.1673,1.474 C3.0643,1.547 2.9603,1.616 2.8613,1.696 C2.7473,1.788 2.6403,1.89 2.5333,1.99 C2.4673,2.05 2.3983,2.103 2.3363,2.166 C2.1043,2.398 1.8973,2.636 1.7093,2.88 L1.7003,2.892 C1.5063,3.145 1.3333,3.405 1.1803,3.673 L1.1773,3.677 C1.0183,3.955 0.8813,4.241 0.7613,4.535 C0.7613,4.535 0.7613,4.536 0.7603,4.536 C0.6213,4.883 0.5063,5.241 0.4143,5.609 C0.3883,5.709 0.3643,5.808 0.3413,5.911 C0.3303,5.962 0.3203,6.015 0.3103,6.067 C0.2893,6.169 0.2683,6.272 0.2513,6.378 C0.2423,6.428 0.2353,6.478 0.2273,6.528 C0.2103,6.635 0.1933,6.742 0.1793,6.853 C0.1713,6.914 0.1653,6.976 0.1573,7.037 C0.1463,7.133 0.1343,7.231 0.1253,7.331 C0.1173,7.418 0.1103,7.506 0.1023,7.593 C0.0963,7.669 0.0903,7.744 0.0863,7.821 C0.0773,7.946 0.0703,8.073 0.0643,8.2 C0.0623,8.246 0.0593,8.291 0.0573,8.338 C0.0503,8.512 0.0463,8.687 0.0423,8.865 C0.0423,8.876 0.0413,8.886 0.0413,8.897 C0.0373,9.105 0.0353,9.315 0.0353,9.528 C0.0353,10.666 0.0853,11.721 0.2563,12.701 C0.2603,12.723 0.2653,12.745 0.2693,12.766 C0.2933,12.899 0.3183,13.031 0.3473,13.16 C0.3593,13.215 0.3743,13.27 0.3873,13.326 C0.4103,13.419 0.4323,13.514 0.4583,13.607 C0.4813,13.692 0.5073,13.775 0.5333,13.858 C0.5523,13.92 0.5703,13.984 0.5903,14.045 C0.6273,14.153 0.6673,14.258 0.7073,14.363 C0.7203,14.4 0.7333,14.437 0.7483,14.474 C0.7973,14.594 0.8493,14.713 0.9043,14.831 C0.9153,14.852 0.9233,14.874 0.9333,14.896 C0.9923,15.019 1.0563,15.141 1.1233,15.261 C1.1313,15.277 1.1393,15.293 1.1483,15.31 C1.2153,15.427 1.2863,15.542 1.3593,15.657 C1.3723,15.676 1.3833,15.697 1.3963,15.716 C1.4643,15.819 1.5373,15.919 1.6113,16.02 C1.6333,16.051 1.6543,16.082 1.6763,16.113 C1.7363,16.19 1.8013,16.266 1.8653,16.343 C1.9083,16.394 1.9483,16.447 1.9933,16.498 C2.0163,16.525 2.0433,16.551 2.0673,16.578 C2.1543,16.674 2.2413,16.77 2.3363,16.864 C2.3963,16.925 2.4643,16.977 2.5273,17.036 C2.6363,17.137 2.7453,17.242 2.8613,17.335 C2.9593,17.414 3.0633,17.482 3.1653,17.555 C3.2553,17.62 3.3413,17.689 3.4353,17.748 C3.5433,17.818 3.6553,17.877 3.7663,17.94 C3.8613,17.994 3.9533,18.051 4.0493,18.101 C4.1603,18.157 4.2753,18.204 4.3883,18.253 C4.4923,18.299 4.5943,18.35 4.7013,18.391 C4.8123,18.434 4.9273,18.468 5.0413,18.505 C5.1543,18.543 5.2663,18.584 5.3823,18.617 C5.5033,18.651 5.6263,18.674 5.7483,18.703 C5.8603,18.728 5.9703,18.757 6.0853,18.778 C6.2423,18.806 6.4023,18.824 6.5613,18.843 C6.6423,18.853 6.7223,18.868 6.8053,18.875 C7.0523,18.897 7.3003,18.909 7.5493,18.909 C7.7983,18.909 8.0483,18.897 8.2943,18.875 C8.3773,18.868 8.4573,18.853 8.5393,18.843 C8.6983,18.824 8.8573,18.806 9.0143,18.778 C9.1293,18.757 9.2393,18.728 9.3513,18.703 C9.4733,18.674 9.5963,18.651 9.7173,18.617 C9.8343,18.584 9.9453,18.543 10.0583,18.505 C10.1723,18.468 10.2873,18.434 10.3983,18.391 C10.5053,18.35 10.6073,18.299 10.7123,18.253 C10.8243,18.204 10.9393,18.157 11.0493,18.101 C11.1473,18.051 11.2383,17.994 11.3333,17.94 C11.4443,17.877 11.5563,17.818 11.6653,17.748 C11.7573,17.689 11.8443,17.62 11.9343,17.555 C12.0363,17.482 12.1403,17.414 12.2383,17.335 C12.3543,17.242 12.4633,17.137 12.5723,17.036 C12.6353,16.977 12.7033,16.925 12.7643,16.864 C12.8553,16.773 12.9393,16.68 13.0233,16.586 C13.0503,16.557 13.0803,16.528 13.1073,16.497 C13.1513,16.447 13.1913,16.395 13.2333,16.343 C13.2983,16.267 13.3623,16.191 13.4223,16.113 C13.4463,16.081 13.4663,16.049 13.4903,16.018 C13.5633,15.918 13.6353,15.818 13.7033,15.716 C13.7153,15.697 13.7263,15.678 13.7383,15.66 C13.8123,15.543 13.8843,15.427 13.9513,15.309 L13.9743,15.265 C14.0423,15.143 14.1063,15.02 14.1663,14.895 C14.1753,14.874 14.1843,14.853 14.1943,14.832 C14.2493,14.714 14.3023,14.595 14.3503,14.473 C14.3653,14.437 14.3783,14.401 14.3913,14.364 C14.4323,14.258 14.4723,14.153 14.5083,14.045 C14.5293,13.984 14.5473,13.92 14.5653,13.859 C14.5913,13.775 14.6183,13.692 14.6413,13.607 C14.6673,13.515 14.6883,13.42 14.7113,13.327 C14.7243,13.271 14.7393,13.216 14.7523,13.16 C14.7813,13.03 14.8063,12.898 14.8303,12.765 C14.8343,12.744 14.8393,12.722 14.8423,12.701 C15.0143,11.721 15.0643,10.666 15.0643,9.528 C15.0643,9.315 15.0623,9.105 15.0583,8.897" id="Fill-19" fill="#1D2A36" mask="url(#mask-6)"></path>
        </g>
        <path d="M117.6963,17.078 L113.7063,17.078 L116.2873,9.435 L117.4423,12.852 L118.8693,17.077 L117.6963,17.078 Z M124.4123,23.216 L118.1983,5.522 C118.1723,5.447 118.1003,5.396 118.0203,5.396 L114.6823,5.396 C114.6033,5.396 114.5323,5.447 114.5063,5.522 L108.2973,23.202 C108.2963,23.202 108.2963,23.203 108.2963,23.203 L108.2923,23.214 C108.2833,23.237 108.2783,23.264 108.2783,23.291 C108.2783,23.417 108.3813,23.518 108.5063,23.518 L108.5073,23.518 L111.3733,23.518 C111.4543,23.518 111.5253,23.468 111.5503,23.391 L112.6833,20.043 L119.8913,20.043 L121.0243,23.391 C121.0503,23.468 121.1223,23.518 121.2033,23.518 L124.1953,23.518 L124.1973,23.518 C124.3223,23.518 124.4253,23.417 124.4253,23.291 C124.4253,23.265 124.4203,23.239 124.4123,23.216 Z" id="Fill-22" fill="#1D2A36"></path>
        <path d="M165.8222,17.078 L161.8322,17.078 L164.4132,9.435 L165.5672,12.852 L166.9952,17.077 L165.8222,17.078 Z M172.5372,23.216 L166.3232,5.522 C166.2972,5.447 166.2252,5.396 166.1462,5.396 L162.8082,5.396 C162.7282,5.396 162.6572,5.447 162.6312,5.522 L156.4222,23.202 L156.4222,23.203 L156.4182,23.214 C156.4092,23.237 156.4032,23.264 156.4032,23.291 C156.4032,23.417 156.5062,23.518 156.6322,23.518 L156.6332,23.518 L159.4982,23.518 C159.5792,23.518 159.6502,23.468 159.6762,23.391 L160.8082,20.043 L168.0172,20.043 L169.1502,23.391 C169.1762,23.468 169.2472,23.518 169.3282,23.518 L172.3202,23.518 L172.3222,23.518 C172.4482,23.518 172.5502,23.417 172.5502,23.291 C172.5502,23.265 172.5462,23.239 172.5372,23.216 Z" id="Fill-24" fill="#1D2A36"></path>
        <path d="M184.9902,5.4173 C184.9862,5.4153 184.9802,5.4153 184.9762,5.4143 C184.9542,5.4043 184.9302,5.3963 184.9052,5.3963 L181.9782,5.3963 C181.8962,5.3963 181.8242,5.4493 181.8002,5.5273 L177.4702,19.2233 L175.5102,13.0563 L173.1242,5.5523 C173.0942,5.4613 173.0092,5.3963 172.9082,5.3963 L169.8872,5.3963 C169.7612,5.3963 169.6602,5.4983 169.6602,5.6243 C169.6602,5.6483 169.6642,5.6723 169.6712,5.6953 L175.5362,23.3903 C175.5612,23.4663 175.6332,23.5193 175.7142,23.5193 L179.0722,23.5193 C179.1532,23.5193 179.2252,23.4663 179.2512,23.3893 L185.0832,5.6433 C185.0912,5.6183 185.0912,5.5943 185.0892,5.5703 C185.0892,5.5653 185.0912,5.5603 185.0902,5.5553 C185.0812,5.4963 185.0432,5.4443 184.9902,5.4173" id="Fill-26" fill="#1D2A36"></path>
    </g>
</svg>