<?xml version="1.0" encoding="UTF-8"?>
<svg width="1100px" height="1100px" viewBox="0 0 1100 1100" version="1.1" xmlns="http://www.w3.org/2000/svg" xmlns:xlink="http://www.w3.org/1999/xlink">
    <!-- Generator: Sketch 56.2 (81672) - https://sketch.com -->
    <title>App Icon</title>
    <desc>Created with Sketch.</desc>
    <defs>
        <polygon id="path-1" points="0 0 61.9250102 0 61.9250102 124 0 124"></polygon>
    </defs>
    <g id="App-Icon" stroke="none" stroke-width="1" fill="none" fill-rule="evenodd">
        <rect id="Rectangle" stroke="#979797" fill="#2E343B" x="0.5" y="0.5" width="1099" height="1099" rx="50"></rect>
        <g id="white-logo" transform="translate(117.000000, 454.000000)">
            <path d="M115.427846,124 L73.5869496,124 C73.2627445,124 73,123.741987 73,123.423621 L73,0.576379256 C73,0.258012703 73.2627445,0 73.5869496,0 L134.411514,0 C134.735719,0 135,0.258012703 135,0.576379256 L135,104.780317 C135,115.39505 126.237243,124 115.427846,124" id="Fill-1" fill="#FFFFFF" fill-rule="nonzero"></path>
            <g id="Group-5">
                <g id="Fill-3-Clipped">
                    <mask id="mask-2" fill="white">
                        <use xlink:href="#path-1"></use>
                    </mask>
                    <g id="path-1"></g>
                    <path d="M19.5474314,0 L61.3387562,0 C61.6625773,0 61.9250102,0.258012703 61.9250102,0.576379256 L61.9250102,123.422112 C61.9250102,123.740478 61.6625773,124 61.3387562,124 L0.586254127,124 C0.26243313,124 0,123.740478 0,123.422112 L0,19.2181743 C0,8.60495 8.7508404,0 19.5474314,0" id="Fill-3" fill="#FFFFFF" fill-rule="nonzero" mask="url(#mask-2)"></path>
                </g>
            </g>
            <path d="M229.224182,21 L172.775818,21 C172.347881,21 172,21.3576176 172,21.7990284 L172,33.235309 C172,33.6767198 172.347881,34.0328411 172.775818,34.0328411 L194.185761,34.0328411 L194.185761,97.2024681 C194.185761,97.643879 194.533641,98 194.961578,98 L207.038422,98 C207.467815,98 207.81424,97.643879 207.81424,97.2024681 L207.81424,34.0328411 L229.224182,34.0328411 C229.652119,34.0328411 230,33.6767198 230,33.235309 L230,21.7990284 C230,21.3576176 229.652119,21 229.224182,21" id="Fill-6" fill="#FFFFFF" fill-rule="nonzero"></path>
            <path d="M296.525485,21.0628449 C296.432329,21.0224446 296.330439,21 296.222727,21 L284.147339,21 C283.93337,21 283.738324,21.0897785 283.598589,21.2334241 C283.4574,21.3785659 283.371521,21.5775748 283.371521,21.7990284 L283.371521,51.0847652 L252.628479,51.0847652 L252.628479,21.7990284 C252.628479,21.5775748 252.541145,21.3785659 252.401411,21.2334241 C252.26022,21.0897785 252.06663,21 251.852661,21 L239.775818,21 C239.561849,21 239.366803,21.0897785 239.227068,21.2334241 C239.087334,21.3785659 239,21.5775748 239,21.7990284 L239,97.2024681 C239,97.4224251 239.087334,97.6229308 239.227068,97.7665763 C239.366803,97.9117182 239.561849,98 239.775818,98 L251.852661,98 C252.06663,98 252.26022,97.9117182 252.401411,97.7665763 C252.541145,97.6229308 252.628479,97.4224251 252.628479,97.2024681 L252.628479,64.4423049 L283.371521,64.4423049 L283.371521,97.2024681 C283.371521,97.4224251 283.4574,97.6229308 283.598589,97.7665763 C283.738324,97.9117182 283.93337,98 284.147339,98 L296.222727,98 C296.330439,98 296.432329,97.9790517 296.525485,97.9371552 C296.803498,97.8159544 297,97.5331521 297,97.2024681 L297,21.7990284 C297,21.4683444 296.803498,21.1840459 296.525485,21.0628449" id="Fill-8" fill="#FFFFFF" fill-rule="nonzero"></path>
            <path d="M357.867754,72.2933997 C357.751581,72.7509513 357.647969,73.2142766 357.506678,73.660281 C357.312011,74.2665003 357.067107,74.8496263 356.822203,75.4313085 C356.707601,75.7055507 356.616547,75.992783 356.490955,76.2598086 C356.164417,76.9439709 355.773513,77.590605 355.359061,78.2228054 C355.264867,78.368587 355.195792,78.5302453 355.095318,78.6716969 C354.826866,79.0541926 354.541145,79.4251412 354.236586,79.7845431 C353.932026,80.1425011 353.607058,80.4874692 353.261681,80.8180029 C352.867637,81.2062725 352.446905,81.572891 352.004194,81.919302 C351.682366,82.169007 351.336988,82.3985045 350.990042,82.6280019 C350.86916,82.7073877 350.757697,82.7968774 350.635245,82.8748198 C349.21135,83.7624986 347.606917,84.4668681 345.919279,84.9576172 C345.886311,84.9662777 345.856483,84.9792678 345.823516,84.9879282 C345.390224,85.1120589 344.945944,85.2073219 344.501663,85.3025853 C344.352524,85.3343396 344.204953,85.3776406 344.055813,85.405065 C343.741834,85.4642436 343.424715,85.4974413 343.110736,85.5407428 C342.826585,85.5797142 342.545574,85.6331191 342.262993,85.6591 C342.176648,85.6677601 342.090304,85.6648734 342.00553,85.6720905 C341.501594,85.7110615 340.999227,85.7428159 340.5,85.7428159 C340.002343,85.7428159 339.501546,85.7110615 338.99918,85.6720905 C338.912836,85.6648734 338.824921,85.6677601 338.737007,85.6591 C338.455996,85.6331191 338.176555,85.5811576 337.895543,85.5421861 C337.578425,85.4974413 337.259736,85.4642436 336.944186,85.405065 C336.796616,85.3776406 336.650616,85.3343396 336.504616,85.3040286 C336.057196,85.2087652 335.612915,85.1135022 335.174914,84.9879282 C335.146656,84.9807111 335.118398,84.9691644 335.08857,84.9605039 C333.397793,84.4697547 331.79022,83.7639419 330.364755,82.8748198 C330.254862,82.8055374 330.155959,82.7261516 330.049206,82.6539824 C329.68813,82.4172683 329.328624,82.1791104 328.994236,81.9178586 C328.553095,81.572891 328.132363,81.2062725 327.738319,80.8180029 C327.047566,80.156935 326.440016,79.4366883 325.904682,78.6716969 C325.802638,78.5288019 325.733563,78.3657003 325.637799,78.2184754 C325.226487,77.586275 324.834013,76.9425275 324.509045,76.2598086 C324.381883,75.9913397 324.290829,75.7026636 324.176226,75.426978 C323.932893,74.8467392 323.686419,74.2665003 323.493322,73.660281 C323.352031,73.2142766 323.248419,72.7480646 323.130676,72.2890697 C323.014504,71.841622 322.885772,71.3999477 322.791579,70.9467261 C322.654998,70.2784415 322.551385,69.5928358 322.454051,68.9072302 C322.419513,68.6589689 322.369277,68.4121505 322.339449,68.1624459 C322.235836,67.3180687 322.160481,66.4635876 322.100825,65.6076632 C322.094545,65.5095135 322.081986,65.4084767 322.075707,65.3103266 C322.02233,64.4529588 321.989362,63.5955911 321.965814,62.7396667 C321.964244,62.6169794 321.956394,62.4899621 321.953254,62.3687181 C321.939126,61.7249706 321.935986,61.0913265 321.932846,60.4562395 C321.931276,60.1574596 321.926566,59.842803 321.926566,59.5512402 C321.926566,59.255347 321.931276,58.9320299 321.932846,58.6274767 C321.937555,57.998163 321.939126,57.371736 321.953254,56.7352052 C321.956394,56.5778769 321.965814,56.4133315 321.970523,56.2531165 C321.992502,55.4347198 322.02233,54.6134368 322.074137,53.7935967 C322.085126,53.6160608 322.107104,53.437082 322.119664,53.2581027 C322.17618,52.4801208 322.242115,51.7035822 322.334739,50.9342607 C322.378696,50.5734155 322.447772,50.2154574 322.501148,49.8560555 C322.587492,49.2787039 322.670697,48.698465 322.783729,48.1341034 C322.899902,47.5668548 323.055321,47.0140402 323.204461,46.4583388 C323.297085,46.1032673 323.37558,45.7409789 323.483902,45.3960111 C323.702118,44.704632 323.97371,44.0392338 324.257861,43.379609 C324.344205,43.1789792 324.408571,42.9668023 324.501195,42.7690593 C324.843432,42.043039 325.254745,41.3545467 325.694316,40.6877051 C325.769671,40.573678 325.823047,40.4466606 325.901542,40.3355203 C326.438446,39.5661987 327.045995,38.8430653 327.738319,38.1805538 C328.132363,37.7922845 328.553095,37.4256659 328.994236,37.0806981 C329.328624,36.8208897 329.68813,36.5812886 330.049206,36.3445742 C330.155959,36.2738486 330.254862,36.1930193 330.364755,36.1237371 C331.796499,35.2302848 333.410352,34.5230285 335.108979,34.0322793 C335.132528,34.0250623 335.152936,34.0164021 335.173345,34.0106286 C335.619195,33.8836111 336.074465,33.7854613 336.528165,33.6887548 C336.667885,33.6598872 336.804466,33.6194725 336.942617,33.5934917 C337.269155,33.5314263 337.600403,33.4967852 337.930081,33.4520405 C338.200103,33.415956 338.466985,33.3654377 338.735437,33.3394568 C338.85318,33.3293531 338.970922,33.3322399 339.088664,33.3221363 C339.559633,33.2874951 340.032171,33.2571841 340.5,33.2571841 C340.969399,33.2571841 341.443507,33.2874951 341.916046,33.3221363 C342.032218,33.3322399 342.14839,33.3293531 342.264563,33.3394568 C342.534584,33.3654377 342.804606,33.415956 343.076198,33.4534838 C343.402737,33.4982286 343.732415,33.5328697 344.057383,33.5934917 C344.198674,33.6194725 344.336824,33.6613306 344.478115,33.6901982 C344.930245,33.7869047 345.382375,33.8850545 345.825086,34.0106286 C345.850204,34.0178455 345.873752,34.0279491 345.897301,34.035166 C347.594358,34.5244719 349.20507,35.2317282 350.635245,36.1237371 C350.752988,36.1987929 350.86131,36.2853956 350.979052,36.3633382 C351.329139,36.5957224 351.679226,36.8266632 352.005764,37.0806981 C352.446905,37.4256659 352.867637,37.7922845 353.261681,38.1805538 C353.954005,38.8430653 354.561554,39.5661987 355.098458,40.3355203 C355.176953,40.4466606 355.230329,40.573678 355.305684,40.6877051 C355.745255,41.3545467 356.154998,42.043039 356.498805,42.7690593 C356.591429,42.9653589 356.654225,43.1775358 356.740569,43.3767223 C357.02472,44.0377904 357.297882,44.7031886 357.516097,45.3960111 C357.62442,45.7409789 357.699775,46.1003806 357.793969,46.451122 C357.943109,47.0097101 358.100098,47.5654114 358.216271,48.1341034 C358.329303,48.698465 358.412508,49.2787039 358.498852,49.8560555 C358.553798,50.2154574 358.619734,50.5734155 358.665261,50.9342607 C358.757885,51.7035822 358.82382,52.4801208 358.880336,53.2581027 C358.892896,53.437082 358.914874,53.6160608 358.925863,53.7935967 C358.97767,54.6134368 359.007498,55.4347198 359.029477,56.2531165 C359.034186,56.4133315 359.043606,56.5778769 359.046745,56.7352052 C359.060874,57.371736 359.062445,57.998163 359.065584,58.6274767 C359.067154,58.9320299 359.073434,59.255347 359.073434,59.5512402 C359.073434,59.842803 359.067154,60.1574596 359.067154,60.4562395 C359.062445,61.0913265 359.060874,61.7249706 359.046745,62.3687181 C359.043606,62.4899621 359.035756,62.6169794 359.032616,62.7396667 C359.010638,63.5955911 358.97924,64.4529588 358.922724,65.3103266 C358.916444,65.4084767 358.905455,65.5095135 358.897605,65.6076632 C358.839519,66.4635876 358.764164,67.3180687 358.660551,68.1624459 C358.629153,68.4121505 358.580487,68.6589689 358.544379,68.9072302 C358.447045,69.5928358 358.345002,70.2784415 358.208421,70.9467261 C358.114228,71.4028343 357.983926,71.8445087 357.867754,72.2933997 M373.968602,56.8347987 C373.952903,56.1058916 373.927785,55.3856449 373.896387,54.6740588 C373.888538,54.4806457 373.875978,54.2958931 373.866559,54.10681 C373.839871,53.5857498 373.810043,53.0675763 373.772365,52.5551766 C373.750386,52.2361895 373.722129,51.9301929 373.69701,51.6213097 C373.665612,51.2633511 373.632645,50.9039497 373.596537,50.5503217 C373.55258,50.1331845 373.502343,49.7304816 373.452107,49.329222 C373.420709,49.0824041 373.390881,48.8355861 373.356343,48.5916549 C373.291977,48.1341034 373.218192,47.6895421 373.141267,47.2493112 C373.106729,47.047238 373.075332,46.8437214 373.037654,46.6430915 C372.95602,46.2057473 372.863395,45.7799502 372.770772,45.3570398 C372.723675,45.1463063 372.682858,44.9341294 372.632621,44.7248393 C372.532147,44.3033723 372.420685,43.8934524 372.307653,43.4849758 C371.8932,41.9766435 371.386124,40.5101693 370.761306,39.0913266 C370.761306,39.0898833 370.759736,39.0869965 370.758166,39.0841098 C370.229111,37.8817741 369.612142,36.7097494 368.905689,35.5709225 C368.900979,35.5637056 368.89627,35.5579321 368.89313,35.5521586 C368.211795,34.456633 367.444117,33.3885317 366.577534,32.3507414 C366.564975,32.3334209 366.549276,32.318987 366.535147,32.3016665 C365.696823,31.3028474 364.775294,30.3256791 363.745443,29.3788217 C363.464431,29.1204566 363.155162,28.9010629 362.864731,28.6542449 C362.382773,28.2457683 361.910235,27.8257447 361.400019,27.4490225 C360.958878,27.1228185 360.489479,26.8384727 360.03107,26.5368062 C359.635456,26.2769978 359.253972,25.9984254 358.844229,25.7559376 C358.359131,25.4687049 357.850485,25.2218869 357.349688,24.9620785 C356.933666,24.7455715 356.530203,24.5117439 356.101622,24.3111141 C355.605535,24.0801732 355.090609,23.8882037 354.581963,23.6818003 C354.121983,23.4941609 353.671423,23.2906443 353.198885,23.1232122 C352.693379,22.944233 352.172173,22.8027818 351.657247,22.6468968 C351.16116,22.4953419 350.672923,22.3279097 350.165847,22.1980055 C349.616383,22.0565543 349.052791,21.9555177 348.495478,21.8400473 C348.00724,21.7390107 347.528422,21.6192101 347.032335,21.5369374 C346.314893,21.4171369 345.588031,21.3435245 344.86117,21.2641386 C344.512653,21.2266107 344.171986,21.1674321 343.818759,21.1385645 C342.719832,21.0476315 341.613056,21 340.5,21 C339.388514,21 338.281738,21.0476315 337.181241,21.1385645 C336.829584,21.1674321 336.490487,21.2266107 336.14354,21.2641386 C335.415109,21.3435245 334.686677,21.4171369 333.967665,21.5369374 C333.473148,21.6192101 332.9959,21.7375673 332.509232,21.8386039 C331.950349,21.9555177 331.385187,22.0565543 330.834153,22.1980055 C330.328647,22.3279097 329.841979,22.4938985 329.347462,22.64401 C328.830967,22.8013384 328.306621,22.9427897 327.801115,23.1232122 C327.331716,23.2906443 326.884296,23.4927175 326.425887,23.6774702 C325.914101,23.8853169 325.396035,24.0787299 324.896809,24.3111141 C324.471367,24.5103005 324.071043,24.7426847 323.656591,24.9577484 C323.154225,25.2190002 322.644009,25.4672615 322.155771,25.7559376 C321.747599,25.9969821 321.367684,26.274111 320.97364,26.5324761 C320.513661,26.8355859 320.042692,27.1213752 319.599981,27.4490225 C319.094475,27.8228579 318.626646,28.2385514 318.147828,28.6426978 C317.854258,28.893846 317.540278,29.1161265 317.254557,29.3788217 C316.224706,30.3256791 315.303177,31.3028474 314.464853,32.3016665 C314.450724,32.318987 314.435025,32.3334209 314.422466,32.3507414 C313.554314,33.3885317 312.788205,34.456633 312.10687,35.5521586 C312.10373,35.5579321 312.099021,35.5637056 312.094311,35.5709225 C311.387858,36.7097494 310.770889,37.8817741 310.241834,39.0841098 C310.240264,39.0869965 310.238694,39.0898833 310.237125,39.0913266 C309.924715,39.8000263 309.642134,40.5217164 309.386241,41.2549535 C309.130348,41.9867472 308.899574,42.730088 308.692347,43.4849758 C308.579315,43.8934524 308.467852,44.3033723 308.365809,44.7248393 C308.317142,44.9341294 308.274755,45.1463063 308.229228,45.3570398 C308.135034,45.7799502 308.04398,46.2057473 307.960776,46.6430915 C307.924668,46.8437214 307.893271,47.047238 307.858733,47.2493112 C307.781808,47.6895421 307.708023,48.1341034 307.643657,48.5916549 C307.60755,48.8355861 307.579291,49.0824041 307.547893,49.329222 C307.496087,49.7304816 307.44585,50.1331845 307.401893,50.5503217 C307.365786,50.9039497 307.335958,51.2633511 307.30456,51.6213097 C307.276302,51.9301929 307.249614,52.2361895 307.226065,52.5551766 C307.188388,53.0675763 307.160129,53.5857498 307.133441,54.10681 C307.122452,54.2958931 307.111462,54.4806457 307.103613,54.6740588 C307.070645,55.3856449 307.047097,56.1058916 307.031398,56.8347987 C307.029828,56.8795435 307.028258,56.9214017 307.028258,56.9661465 C307.009419,57.8177404 307,58.6765515 307,59.5512402 C307,64.2133581 307.222925,68.5333945 307.987464,72.5459915 C308.007873,72.6528016 308.031422,72.7552818 308.0534,72.8606486 C308.157013,73.3889254 308.266905,73.9143156 308.390927,74.4310458 C308.449014,74.6692037 308.516519,74.9030312 308.579315,75.1397457 C308.678218,75.5164676 308.775552,75.8946334 308.885445,76.2655819 C308.992197,76.6235405 309.113079,76.9713947 309.230822,77.3221361 C309.312456,77.5675107 309.389381,77.8157725 309.477295,78.0597037 C309.642134,78.5114814 309.822672,78.9545992 310.00792,79.3962735 C310.066006,79.5362813 310.117812,79.6777329 310.179038,79.8162974 C310.398824,80.3200371 310.639018,80.8151163 310.888631,81.3073088 C310.929448,81.3866946 310.963986,81.4675242 311.004803,81.5469101 C311.271686,82.0607531 311.558976,82.5644928 311.860396,83.0653458 C311.896504,83.1245244 311.927902,83.1865898 311.96401,83.2457684 C312.26229,83.7321876 312.582548,84.2113896 312.916936,84.6862617 C312.968743,84.7598741 313.014269,84.8363733 313.066076,84.9099858 C313.369066,85.3328963 313.695604,85.7471463 314.028422,86.1599531 C314.127325,86.285527 314.218379,86.4139877 314.320423,86.5381183 C314.588875,86.8585487 314.879306,87.1746491 315.166596,87.4893062 C315.353414,87.698596 315.529242,87.9107729 315.727049,88.1171765 C315.844791,88.2413071 315.978232,88.3611078 316.100684,88.4837951 C316.475889,88.8634041 316.849525,89.2458998 317.254557,89.6168484 C317.532429,89.8723268 317.836988,90.0902771 318.12428,90.3342084 C318.609377,90.7455717 319.085056,91.1670385 319.598411,91.5480909 C320.037982,91.8742951 320.507381,92.1571973 320.96422,92.4588639 C321.362974,92.7201157 321.744459,92.9986879 322.155771,93.2440625 C322.640869,93.5298519 323.147945,93.7752265 323.647172,94.035035 C324.063194,94.2529852 324.468227,94.4868127 324.896809,94.6874429 C325.394465,94.9183837 325.910961,95.1117963 326.421177,95.3181999 C326.881156,95.5058392 327.328577,95.7079123 327.801115,95.8753444 C328.303482,96.0543237 328.823117,96.1957749 329.336473,96.3502165 C329.8357,96.5017714 330.325507,96.6706469 330.835723,96.8005513 C331.378907,96.9405591 331.93465,97.0401526 332.487253,97.1556227 C332.980201,97.2581029 333.466868,97.3793468 333.969235,97.4616193 C334.675687,97.5799766 335.39156,97.6521457 336.105862,97.7315316 C336.466938,97.7705026 336.818595,97.8311245 337.182811,97.8614355 C338.281738,97.9509252 339.388514,98 340.5,98 C341.611486,98 342.718262,97.9509252 343.817189,97.8614355 C344.182975,97.8311245 344.536201,97.7690592 344.897277,97.7300882 C345.611579,97.6521457 346.325882,97.5799766 347.030765,97.4616193 C347.533132,97.3793468 348.021369,97.2581029 348.515886,97.1541794 C349.06692,97.0401526 349.622663,96.9405591 350.164277,96.8005513 C350.676063,96.6706469 351.16744,96.5017714 351.668236,96.3502165 C352.180022,96.1943315 352.696518,96.0543237 353.197315,95.8753444 C353.672993,95.7079123 354.123553,95.5029525 354.585102,95.3153133 C355.092179,95.1089097 355.607104,94.9183837 356.101622,94.6874429 C356.531773,94.4868127 356.938376,94.2515419 357.355968,94.0335916 C357.855195,93.7737832 358.360701,93.5284086 358.842659,93.2440625 C359.255541,92.9986879 359.637026,92.7201157 360.03578,92.4574206 C360.492619,92.1571973 360.960448,91.8742951 361.400019,91.5480909 C361.914944,91.1670385 362.390623,90.7455717 362.87572,90.3342084 C363.163012,90.0902771 363.467571,89.8723268 363.745443,89.6168484 C364.150475,89.2458998 364.524111,88.8634041 364.899316,88.4837951 C365.020198,88.3611078 365.155209,88.2413071 365.272951,88.1171765 C365.469188,87.9107729 365.645016,87.698596 365.833404,87.4893062 C366.119125,87.1746491 366.411125,86.8585487 366.678007,86.5381183 C366.781621,86.4139877 366.871105,86.285527 366.971578,86.1599531 C367.302826,85.7471463 367.630934,85.3328963 367.932354,84.9099858 C367.985731,84.8363733 368.031257,84.7598741 368.083064,84.6862617 C368.415882,84.2113896 368.73771,83.7321876 369.03599,83.2457684 C369.072098,83.1865898 369.103496,83.1245244 369.139604,83.0653458 C369.441024,82.5644928 369.728314,82.0607531 369.995197,81.5469101 C370.036014,81.4675242 370.070552,81.3866946 370.111369,81.3073088 C370.360982,80.8151163 370.599606,80.3200371 370.819392,79.8162974 C370.880617,79.6777329 370.932424,79.5362813 370.99051,79.3962735 C371.175758,78.9545992 371.357866,78.5114814 371.521135,78.0597037 C371.610619,77.8157725 371.685974,77.5675107 371.769178,77.3221361 C371.886921,76.9713947 372.007803,76.6235405 372.114555,76.2655819 C372.226018,75.8946334 372.321782,75.5164676 372.420685,75.1397457 C372.481911,74.9030312 372.550986,74.6692037 372.607503,74.4310458 C372.733095,73.9143156 372.842987,73.3889254 372.9466,72.8606486 C372.968578,72.7552818 372.992127,72.6528016 373.012536,72.5459915 C373.777075,68.5333945 374,64.2133581 374,59.5512402 C374,58.6765515 373.990581,57.8177404 373.971742,56.9661465 C373.971742,56.9214017 373.968602,56.8795435 373.968602,56.8347987" id="Fill-10" fill="#FFFFFF" fill-rule="nonzero"></path>
            <path d="M462.195518,21 L445.485545,21 C445.148961,21 444.847091,21.2079868 444.730872,21.5207151 L424.43922,75.8426742 L415.727273,52.398523 L404.25624,21.5222114 C404.140021,21.2094831 403.838152,21 403.500058,21 L385.805991,21 C385.360734,21 385,21.3576176 385,21.7990284 L385,97.2024681 C385,97.643879 385.360734,98 385.805991,98 L397.888309,98 C398.333566,98 398.69279,97.643879 398.69279,97.2024681 L398.69279,42.4016907 L408.372228,68.7157599 L418.548241,96.3899731 C418.66446,96.7041976 418.96633,96.9136807 419.304424,96.9136807 L428.588413,96.9136807 C428.926506,96.9136807 429.226866,96.7071904 429.343086,96.3944619 L449.304191,43.0525846 L449.30721,69.2514382 L449.30721,97.2024681 C449.30721,97.3131951 449.32985,97.4179364 449.370602,97.5137002 C449.49286,97.7994948 449.778126,98 450.111691,98 L462.195518,98 C462.415883,98 462.618135,97.9117182 462.764542,97.7665763 C462.910948,97.6229308 463,97.4224251 463,97.2024681 L463,21.7990284 C463,21.5775748 462.910948,21.3785659 462.764542,21.2334241 C462.618135,21.0897785 462.415883,21 462.195518,21" id="Fill-12" fill="#FFFFFF" fill-rule="nonzero"></path>
            <path d="M571.730641,33.0401685 C572.523851,33.0431568 573.278801,33.0849941 573.996955,33.1641861 C574.105856,33.1746454 574.211817,33.1940699 574.317774,33.2075176 C574.965292,33.2896979 575.584849,33.3987736 576.169087,33.5437099 C576.286818,33.5735937 576.398659,33.6109484 576.513451,33.6423263 C577.085913,33.8007103 577.63189,33.981507 578.138131,34.2026469 C578.213187,34.235519 578.285293,34.2773563 578.360349,34.3117226 C578.878365,34.5522869 579.368416,34.8197466 579.812852,35.1275494 C579.834927,35.1424913 579.855527,35.1574332 579.877603,35.172375 C580.44124,35.5713233 580.935706,36.0255565 581.365421,36.5276037 C581.399271,36.569441 581.430177,36.617255 581.464022,36.6575981 C581.862837,37.1461976 582.204252,37.6781286 582.47945,38.2578737 C582.50741,38.3191354 582.530956,38.3863738 582.557446,38.4491297 C582.817924,39.0363457 583.026897,39.6624105 583.166703,40.3392778 C583.178474,40.4035279 583.184364,40.4752489 583.196134,40.5409932 C583.32564,41.2342965 583.399221,41.9664487 583.402161,42.7508975 C583.402161,42.7673336 583.405106,42.7822755 583.405106,42.7987116 C583.405106,43.6847652 583.321225,44.493121 583.172588,45.2357325 C583.112253,45.5360643 582.994521,45.7915705 582.91211,46.0739721 C582.788494,46.486368 582.682532,46.9166942 582.513295,47.2812761 C582.357303,47.6204569 582.133616,47.908835 581.936418,48.2151438 C581.771596,48.4646731 581.636204,48.7455805 581.449307,48.9682147 C581.093173,49.3925639 580.670812,49.7631229 580.220492,50.1082801 C579.65097,50.5415948 579.035827,50.9226126 578.352989,51.2184618 C578.169036,51.2976538 577.952709,51.3499508 577.758451,51.4216717 C577.330206,51.5785612 576.901961,51.7399338 576.43987,51.8519979 C576.148486,51.9252128 575.820312,51.964062 575.509793,52.0193471 C575.109513,52.091068 574.716584,52.1777306 574.298643,52.2225565 C573.762967,52.2793356 573.183144,52.2972659 572.604792,52.3122077 C572.392875,52.3181843 572.189792,52.3435858 571.976404,52.3435858 L554.671475,52.3435858 L554.671475,33.0386743 L571.657061,33.0386743 C571.682076,33.0386743 571.705626,33.0401685 571.730641,33.0401685 M579.057902,84.0965791 C578.912211,84.1578408 578.766519,84.223585 578.620827,84.2788701 C578.370649,84.3730039 578.113116,84.4581725 577.854107,84.5388586 C577.734906,84.5777078 577.617174,84.6180506 577.496498,84.6524172 C577.221305,84.7331033 576.941696,84.8033301 576.659143,84.8705684 C576.553181,84.8944754 576.447225,84.9228649 576.342739,84.9452778 C576.051355,85.008034 575.755556,85.0618245 575.458288,85.112627 C575.361161,85.1290628 575.26256,85.1469932 575.166904,85.161935 C574.862275,85.2082549 574.554706,85.2456096 574.247133,85.2799762 C574.160307,85.2889414 574.07201,85.3008946 573.986654,85.3083658 C573.652595,85.3397434 573.315591,85.3651448 572.981532,85.3830752 C572.928551,85.3845692 572.875571,85.3905458 572.825535,85.3920404 C572.435555,85.4099702 572.04557,85.4204299 571.657061,85.4204299 L554.671475,85.4204299 L554.671475,64.0550328 L572.082361,64.0550328 C572.151527,64.0550328 572.219223,64.0595154 572.289863,64.0610094 C572.772559,64.063998 573.23318,64.0834223 573.682026,64.1103178 C573.921904,64.1267537 574.157366,64.146178 574.392825,64.1700855 C574.643003,64.1939924 574.885821,64.223876 575.125699,64.2552541 C575.408252,64.2941029 575.692276,64.328469 575.967474,64.3792715 C575.983659,64.38226 575.996904,64.3867426 576.013095,64.3882367 C577.212474,64.6078824 578.329443,64.9440748 579.343401,65.4087672 C579.353701,65.4132498 579.364001,65.4162383 579.374301,65.4222149 C579.699535,65.5716338 580.011519,65.7359944 580.311733,65.9138028 C580.341168,65.9302391 580.369129,65.946675 580.397089,65.9646053 C580.679643,66.1334485 580.950421,66.3157395 581.210904,66.5099842 C581.256525,66.5443504 581.30067,66.5802111 581.344821,66.6145772 C581.578809,66.7968682 581.803971,66.9881244 582.017354,67.1913338 C582.08505,67.255584 582.149806,67.3228223 582.214557,67.3885665 C582.392624,67.5693635 582.563331,67.7561371 582.728153,67.9533698 C582.812039,68.0579628 582.89445,68.1640504 582.973916,68.2701379 C583.101948,68.4389811 583.225569,68.615295 583.341826,68.796092 C583.431597,68.9350516 583.516953,69.0769993 583.597889,69.2204416 C583.690605,69.3833077 583.778901,69.5521509 583.862782,69.7239827 C583.942253,69.8883434 584.021719,70.052704 584.09089,70.2200532 C584.165941,70.3963676 584.232167,70.5816466 584.296917,70.7654321 C584.355783,70.9312868 584.419064,71.097142 584.469099,71.2659852 C584.572111,71.6051657 584.661882,71.9533114 584.735463,72.3208819 C584.754593,72.4180042 584.764893,72.5136321 584.782554,72.6092604 C584.838479,72.926028 584.88557,73.2502671 584.92089,73.5864591 C584.93119,73.6940406 584.94149,73.7986341 584.94885,73.9062157 C584.984171,74.3320593 585.006241,74.7668681 585.006241,75.2255839 C585.006241,75.7052181 584.979756,76.1624398 584.92972,76.6002367 C584.92089,76.6749462 584.90323,76.743679 584.89293,76.8168943 C584.844364,77.1754992 584.785498,77.5251394 584.704558,77.8583433 C584.682482,77.9524771 584.648637,78.0406343 584.623617,78.133274 C584.539735,78.4350998 584.451439,78.7324435 584.341063,79.0118568 C584.305747,79.1044961 584.261597,79.1896652 584.221862,79.2793164 C584.105605,79.5467761 583.986404,79.8127416 583.846597,80.0607769 C583.798031,80.1474396 583.739166,80.2311142 583.68766,80.3162828 C583.543438,80.5523648 583.397746,80.7854578 583.231454,81.0036094 C583.165228,81.0932607 583.087232,81.1754412 583.015122,81.2635984 C582.851774,81.4638192 582.685477,81.6625465 582.504465,81.8448375 C582.405869,81.9449479 582.294023,82.0375877 582.188066,82.1347101 C582.017354,82.2915996 581.851062,82.4514776 581.66858,82.5964139 C581.491983,82.7338795 581.2992,82.8608854 581.109358,82.9893854 C580.87684,83.1492635 580.636967,83.3001768 580.388259,83.4421246 C580.161626,83.570625 579.937938,83.700619 579.706891,83.8126832 C579.494978,83.9157821 579.275705,84.0039393 579.057902,84.0965791 M597.902161,69.0007959 C597.173702,66.914909 596.086169,64.9590166 594.649856,63.2287465 C594.604235,63.1734619 594.54831,63.1286361 594.502689,63.0748455 C593.961132,62.4383214 593.38425,61.8286922 592.748502,61.2609008 C592.664621,61.1861914 592.567495,61.1279183 592.483609,61.0547029 C591.875826,60.5332314 591.248909,60.0296898 590.560185,59.5784452 C590.218766,59.3528224 589.840556,59.1780025 589.482952,58.9718046 C589.026746,58.7133101 588.594086,58.4294142 588.106975,58.1993093 C588.864864,57.8526577 589.584493,57.4357792 590.268802,56.9606271 C590.697047,56.6647779 591.070842,56.3181263 591.456411,55.9819339 C591.690399,55.7802185 591.942047,55.6053987 592.16574,55.385753 C592.616056,54.943473 593.011926,54.4563677 593.40191,53.9632858 C593.529942,53.8019132 593.677104,53.662954 593.80072,53.4941108 C594.59099,52.4153067 595.214963,51.2289215 595.738864,49.9977104 C595.861006,49.7093319 596.006698,49.4373897 596.115599,49.140046 C596.358422,48.4840975 596.54826,47.8117129 596.720442,47.1363399 C596.749872,47.0257699 596.792553,46.9211768 596.819043,46.8091127 C596.99122,46.0859256 597.113367,45.3567617 597.207553,44.6275979 C597.217853,44.5469117 597.239928,44.4677198 597.250228,44.3855394 C597.345884,43.5622417 597.397395,42.7404382 597.397395,41.9320824 C597.397395,35.3173113 594.19365,28.916209 588.638231,25.2300468 C588.56318,25.1822328 588.483714,25.1448781 588.408658,25.0970641 C587.880342,24.7593775 587.33584,24.4411154 586.775148,24.1467603 C586.586776,24.0496381 586.391048,23.9659636 586.199736,23.8748181 C585.730285,23.6462073 585.252004,23.4235733 584.759008,23.2248462 C584.563281,23.1456543 584.364613,23.0784158 584.167411,23.0037064 C583.67736,22.8199213 583.177004,22.643607 582.660462,22.4867173 C582.442659,22.420973 582.221912,22.3626997 582.002639,22.3014379 C581.519943,22.166961 581.029892,22.039955 580.526591,21.9263967 C580.239622,21.8636408 579.952654,21.8083558 579.665685,21.7515767 C579.2345,21.6679021 578.798894,21.5857218 578.348574,21.5169891 C577.951234,21.4542332 577.550949,21.404925 577.150669,21.3556168 C576.798944,21.3122854 576.45164,21.2674597 576.091091,21.2330934 C575.525984,21.1793026 574.960877,21.1404537 574.39724,21.1060874 C574.163252,21.0926397 573.939564,21.0732152 573.702631,21.0627559 C572.840255,21.023907 571.979349,21 571.122859,21 L541.78438,21 C541.568052,21 541.372325,21.0896513 541.229578,21.2345876 C541.088301,21.3780296 541,21.5782509 541,21.7978965 L541,97.2035978 C541,97.4232435 541.088301,97.6234648 541.229578,97.766907 C541.372325,97.9118428 541.568052,98 541.78438,98 L571.122859,98 C572.105906,98 573.084543,97.9835642 574.057295,97.9521861 C574.119101,97.9491975 574.176497,97.9447154 574.236833,97.9432209 C575.093323,97.9133373 575.945399,97.8670174 576.791589,97.7982846 C577.037352,97.7788603 577.274285,97.7474822 577.517103,97.7235752 C578.142546,97.663808 578.767989,97.6010519 579.384606,97.5128947 C579.833452,97.450139 580.267582,97.3634758 580.704658,97.2842838 C581.100528,97.2125629 581.499343,97.1513013 581.889323,97.0661326 C582.49122,96.9331496 583.076932,96.7672949 583.6597,96.5999457 C583.886332,96.5342015 584.115905,96.483399 584.339593,96.4116781 C585.001826,96.2009976 585.643459,95.9514683 586.280677,95.6855027 C586.435199,95.6212525 586.597076,95.5719445 586.751598,95.5032117 C587.377046,95.2252929 587.986298,94.9010537 588.588196,94.5633673 C588.755963,94.4707275 588.929615,94.3960181 589.095912,94.2974017 C589.71694,93.9283371 590.320312,93.503988 590.917795,93.060214 C591.045826,92.9660802 591.181213,92.8943593 591.309249,92.7957425 C591.684514,92.5028819 592.008273,92.1816312 592.354107,91.8723343 C592.620471,91.6317702 592.908914,91.4106305 593.160562,91.1596067 C593.599108,90.7173267 593.989093,90.2466577 594.376132,89.7744942 C594.499749,89.6235813 594.641026,89.4876102 594.760227,89.3337087 C595.194358,88.7674114 595.579927,88.1757126 595.943422,87.5720606 C595.993453,87.4883864 596.055263,87.4151711 596.103829,87.3300024 C596.758702,86.2063729 597.266418,85.008034 597.690249,83.7723404 C597.784435,83.4944211 597.900691,83.22995 597.986047,82.9460541 C598.153814,82.3812508 598.277431,81.7970236 598.403988,81.21429 C598.446668,81.008092 598.509949,80.8123533 598.549679,80.6016727 C598.680656,79.8934277 598.771897,79.1717349 598.845478,78.4410769 C598.855783,78.339472 598.876383,78.2438437 598.885214,78.1407447 C598.961739,77.2905519 599,76.4269109 599,75.5528112 C599,73.8658724 598.793972,72.1983585 598.380442,70.5891178 C598.245056,70.052704 598.084644,69.5237614 597.902161,69.0007959" id="Fill-14" fill="#FFFFFF" fill-rule="nonzero"></path>
            <path d="M645.368555,55.4734358 C645.318703,55.4913913 645.277652,55.5198211 645.22633,55.5362806 C645.00786,55.6095998 644.749805,55.639526 644.521073,55.7008744 C643.172133,56.0689662 641.69563,56.2964052 640.032917,56.2964052 L621.728391,56.2964052 L621.728391,33.2712204 L639.821778,33.2712204 C639.83937,33.2712204 639.855502,33.274213 639.87456,33.274213 C640.714715,33.2772056 641.522612,33.352021 642.304119,33.4792072 C642.38476,33.492674 642.468336,33.4971629 642.547512,33.512126 C643.29823,33.6467937 644.010818,33.8502915 644.697018,34.0986786 C644.795256,34.13459 644.902291,34.1630199 644.999064,34.2019239 C645.677932,34.4667704 646.317215,34.7944617 646.924239,35.170035 C646.993148,35.2134279 647.070859,35.2523319 647.141239,35.2972212 C647.781987,35.7146911 648.383144,36.1935096 648.931515,36.7366693 C648.949112,36.754625 648.968175,36.7725807 648.987232,36.7920327 C649.493087,37.299281 649.941753,37.8499223 650.336173,38.4349787 C650.359636,38.4708901 650.384559,38.5068014 650.409488,38.5442091 C650.787775,39.121784 651.110349,39.7337738 651.377201,40.3741936 C651.396263,40.4235718 651.419722,40.4744462 651.440249,40.5253207 C651.696844,41.168733 651.896252,41.8405752 652.035546,42.5333658 C652.044342,42.5752624 652.054604,42.6186553 652.061935,42.6620483 C652.195363,43.3742908 652.267208,44.104489 652.270143,44.848154 C652.270143,44.8646134 652.271609,44.8780801 652.271609,44.8930432 C652.271609,46.7080646 651.993025,48.3270696 651.454911,49.7350954 C650.393355,52.5047613 648.312765,54.4529537 645.368555,55.4734358 M665.863641,42.2625341 C665.796192,41.5667509 665.70822,40.8739604 665.586523,40.1901477 C665.564525,40.0704431 665.532271,39.9552274 665.508812,39.8370191 C665.38418,39.1965993 665.247822,38.5591722 665.074803,37.9337156 C665.049879,37.8409445 665.01469,37.7526623 664.988296,37.6613875 C664.803551,37.0194715 664.601208,36.3865333 664.365145,35.7655655 C664.340217,35.7027206 664.310893,35.6443646 664.285969,35.5815197 C664.036705,34.9455889 663.768383,34.3186359 663.464872,33.7096386 C663.435548,33.6527789 663.403293,33.6019044 663.373969,33.546541 C663.066057,32.9420327 662.740552,32.3494948 662.378392,31.7764089 C662.322675,31.6881267 662.256696,31.6073261 662.199508,31.5190439 C661.853475,30.9908473 661.498646,30.4701322 661.105697,29.9703653 C660.962003,29.7848232 660.794855,29.618733 660.642364,29.4376798 C660.224486,28.9409056 659.784616,28.4561019 659.321282,27.9907501 C658.855018,27.5239021 658.365296,27.076506 657.846249,26.6500583 C657.721617,26.5483094 657.582323,26.4630198 657.456226,26.3642635 C656.935714,25.9572678 656.402001,25.5607463 655.831638,25.1926545 C655.671816,25.0909056 655.498802,25.0041197 655.337515,24.9053634 C654.778878,24.5657016 654.21144,24.2350175 653.607352,23.9342596 C653.44753,23.8549553 653.275982,23.7891178 653.111764,23.7128061 C652.491544,23.421026 651.861062,23.1397202 651.193925,22.8928294 C651.026772,22.8314808 650.850823,22.7835989 650.68367,22.7252429 C650.010668,22.4903226 649.327399,22.2643801 648.60748,22.0758453 C648.403672,22.0219783 648.188132,21.9860669 647.981394,21.9351924 C647.289329,21.7705986 646.589933,21.6089973 645.853882,21.4863001 C645.545974,21.4354256 645.221935,21.4084921 644.909627,21.3665954 C644.255682,21.2768169 643.610538,21.1810533 642.925804,21.1256899 C642.280661,21.0748154 641.610589,21.0643412 640.943447,21.0463856 C640.566625,21.0344151 640.207396,21 639.821778,21 L608.781507,21 C608.674473,21 608.570368,21.0224446 608.477996,21.0628449 C608.196477,21.1840459 608,21.4668481 608,21.7990284 L608,97.2024681 C608,97.5331521 608.196477,97.8159544 608.477996,97.9371552 C608.570368,97.9790517 608.674473,98 608.781507,98 L621.053924,98 C621.486463,98 621.835426,97.643879 621.835426,97.2024681 L621.835426,68.8953168 L638.544682,68.8953168 L650.896275,97.5241741 C651.019441,97.8129616 651.30096,98 651.611803,98 L664.793284,98 C664.917916,98 665.030817,97.9625927 665.131986,97.9102218 C665.142252,97.9057326 665.155449,97.907229 665.16571,97.9012438 C665.397377,97.7740578 665.549863,97.5316557 665.570391,97.2638165 C665.570391,97.2563349 665.565995,97.2503498 665.565995,97.2443646 C665.573326,97.1216674 665.56013,96.9974737 665.505877,96.8762729 L652.166039,66.5057134 C652.217356,66.4862611 652.265743,66.4608241 652.315595,66.4413722 C652.786259,66.2588225 653.248123,66.0657989 653.69826,65.8518266 C654.143996,65.6408476 654.576535,65.4089198 655.003209,65.168014 C655.05013,65.142577 655.099982,65.1201323 655.146904,65.0931989 C657.054481,63.9993976 658.746518,62.6198021 660.195162,61.0037896 C661.645272,59.3892735 662.847587,57.5398367 663.777184,55.5033621 C663.788911,55.4764282 663.802108,55.4524876 663.81384,55.4270501 C664.001515,55.0125731 664.170134,54.5861253 664.335821,54.1566847 C664.379807,54.039973 664.431124,53.9277497 664.473645,53.8095417 C664.601208,53.4609018 664.709713,53.101788 664.822613,52.7426742 C664.887127,52.5376798 664.958972,52.3371747 665.01762,52.1291879 C665.096796,51.8508744 665.158379,51.5635834 665.228759,51.2807811 C665.302069,50.9830162 665.38125,50.6897395 665.444294,50.3874854 C665.485349,50.1944618 665.511743,49.9939566 665.548398,49.7994366 C665.621713,49.3984258 665.696488,49.0019043 665.752206,48.5934124 C665.761002,48.5260784 665.763937,48.4572484 665.772734,48.3899144 C665.846044,47.8228139 665.901762,47.2467354 665.939887,46.6646716 C665.979472,46.0826079 666,45.4915663 666,44.8930432 C666,44.0940148 665.963345,43.2964828 665.894431,42.5064323 C665.887099,42.4241353 665.869507,42.344831 665.863641,42.2625341" id="Fill-16" fill="#FFFFFF" fill-rule="nonzero"></path>
            <path d="M847.862668,72.3164941 C847.748059,72.7653851 847.646014,73.2214933 847.506292,73.6573943 C847.311621,74.2708308 847.063572,74.8597297 846.815522,75.4471857 C846.704057,75.7156541 846.61457,75.9971135 846.492115,76.2583653 C846.163999,76.9454142 845.771515,77.5934917 845.357056,78.2285792 C845.264426,78.3714736 845.19535,78.5316891 845.096448,78.6716969 C844.559529,79.4381317 843.953534,80.1583783 843.261195,80.8194463 C842.867142,81.2077158 842.44797,81.5743344 842.00525,81.919302 C841.681843,82.1704504 841.33803,82.3985045 840.991073,82.6280019 C840.870187,82.7073877 840.758721,82.7983207 840.634697,82.8748198 C839.210769,83.7639419 837.607868,84.4668681 835.920193,84.9576172 C835.887224,84.9677211 835.857394,84.9792678 835.824425,84.9893716 C835.389556,85.1135022 834.945262,85.2087652 834.502542,85.3025853 C834.3534,85.3343396 834.205826,85.3776406 834.055114,85.4065083 C833.742696,85.4656869 833.42557,85.4974413 833.111583,85.5421861 C832.827426,85.5797142 832.546408,85.6331191 832.262251,85.6605434 C832.177472,85.6677601 832.091129,85.6648734 832.003212,85.6720905 C831.5024,85.7125049 831.000024,85.7428159 830.499218,85.7428159 C829.995268,85.7428159 829.488179,85.7125049 828.981091,85.6706472 C828.899455,85.6648734 828.81782,85.6677601 828.737754,85.6605434 C828.445746,85.6331191 828.153738,85.5782709 827.86173,85.5378561 C827.555594,85.4945546 827.249457,85.4642436 826.948029,85.4065083 C826.781615,85.3761973 826.619913,85.3285658 826.455069,85.2924815 C826.028046,85.2001052 825.597885,85.1091722 825.180283,84.9893716 C825.128478,84.9763811 825.078238,84.9547306 825.028002,84.9402968 C823.360733,84.4509909 821.773534,83.7538381 820.365303,82.8748198 C820.231858,82.7925469 820.110972,82.6943972 819.98224,82.6077943 C819.644704,82.385514 819.308737,82.1632332 818.99475,81.919302 C818.553599,81.5743344 818.132858,81.2077158 817.740374,80.8194463 C817.048036,80.1583783 816.440471,79.4381317 815.905126,78.6731402 C815.803081,78.5273586 815.730861,78.3613698 815.635097,78.212702 C815.223773,77.5833884 814.834432,76.9425275 814.511024,76.2612519 C814.379153,75.9855663 814.284954,75.6867864 814.167211,75.4038842 C813.928582,74.830862 813.683671,74.260727 813.493708,73.664611 C813.350848,73.2070595 813.24252,72.7307441 813.123203,72.2602021 C813.011742,71.8243015 812.884574,71.3941743 812.793519,70.9510566 C812.653796,70.2726677 812.550182,69.5798453 812.451275,68.8841359 C812.418306,68.6445351 812.371209,68.4078205 812.339809,68.1667759 C812.236194,67.315182 812.159267,66.4534838 812.10118,65.5903427 C812.094898,65.4994097 812.082339,65.40559 812.077631,65.3146571 C812.022683,64.4544022 811.989714,63.5955911 811.967735,62.73678 C811.964596,62.615536 811.956745,62.4899621 811.953607,62.3687181 C811.939479,61.7264139 811.937905,61.0927703 811.933197,60.4576828 C811.933197,60.1589029 811.926915,59.842803 811.926915,59.5526836 C811.926915,59.255347 811.933197,58.9320299 811.933197,58.6274767 C811.937905,57.9996064 811.939479,57.371736 811.953607,56.7352052 C811.956745,56.5793203 811.967735,56.4162186 811.970874,56.2588899 C811.992853,55.4376069 812.024253,54.6134368 812.074488,53.7907101 C812.085478,53.6203913 812.107457,53.4471853 812.118447,53.2768666 C812.174964,52.4916679 812.242472,51.7079127 812.335101,50.931374 C812.377486,50.5791893 812.444993,50.2313346 812.498372,49.8820365 C812.58472,49.2931377 812.669494,48.7056817 812.785668,48.1312162 C812.898703,47.5740717 813.052558,47.0313608 813.198562,46.4857631 C813.292756,46.1220313 813.372822,45.7481958 813.485862,45.3931243 C813.700942,44.7104055 813.969397,44.0551109 814.248846,43.4041465 C814.338333,43.1948564 814.40584,42.9725758 814.503178,42.7676159 C814.845421,42.043039 815.253603,41.3588768 815.691615,40.6920352 C815.768543,40.5780082 815.823491,40.448104 815.901988,40.3355203 C816.438902,39.5661987 817.046466,38.8430653 817.740374,38.1805538 C818.132858,37.7922845 818.553599,37.4256659 818.99475,37.0806981 C819.308737,36.8367669 819.644704,36.6144863 819.98224,36.3907624 C820.110972,36.3041596 820.231858,36.2074531 820.365303,36.1237371 C821.779811,35.2418318 823.371722,34.5432358 825.048412,34.0524866 C825.092371,34.0394962 825.133186,34.0221756 825.178714,34.0106286 C825.605736,33.8879413 826.043748,33.7955649 826.478617,33.7017452 C826.635611,33.6685475 826.787897,33.6223593 826.94646,33.5934917 C827.260447,33.5343131 827.579142,33.5011154 827.896268,33.457814 C828.177286,33.4188427 828.456735,33.366881 828.73618,33.3409002 C828.847646,33.3293531 828.959111,33.3322399 829.069008,33.3235796 C829.547835,33.2874951 830.026667,33.2571841 830.499218,33.2571841 C830.970194,33.2571841 831.444314,33.2874951 831.916864,33.3235796 C832.033037,33.3322399 832.149216,33.3293531 832.26382,33.3409002 C832.535418,33.3654377 832.805447,33.415956 833.075476,33.4534838 C833.403591,33.4982286 833.731707,33.5328697 834.056684,33.5934917 C834.197975,33.6194725 834.337702,33.6613306 834.478994,33.6916415 C834.931134,33.7869047 835.383274,33.8850545 835.825994,34.0106286 C835.851116,34.0178455 835.873096,34.0279491 835.898214,34.035166 C837.59374,34.5259153 839.204492,35.2331715 840.634697,36.1251805 C840.755583,36.2002363 840.862336,36.286839 840.978514,36.3633382 C841.330179,36.5957224 841.680273,36.8281066 842.00682,37.0806981 C842.44797,37.4271093 842.867142,37.7937279 843.261195,38.1805538 C843.955103,38.8430653 844.561098,39.5661987 845.099586,40.3355203 C845.17494,40.4437738 845.22675,40.5679045 845.300539,40.6790448 C845.743259,41.3487732 846.154579,42.0401523 846.499966,42.771946 C846.587883,42.9610288 846.650678,43.1674321 846.733887,43.3594017 C847.021182,44.0262433 847.297493,44.7003019 847.517281,45.3988978 C847.622465,45.733762 847.697824,46.0859468 847.78731,46.4280279 C847.941165,46.9952763 848.098154,47.5596379 848.217471,48.1384334 C848.328937,48.6941345 848.410572,49.2628267 848.493777,49.830075 C848.550294,50.1995803 848.619376,50.5690855 848.666473,50.9385907 C848.757528,51.7006955 848.823466,52.470017 848.878415,53.2407822 C848.892543,53.4255348 848.914522,53.6131741 848.927081,53.7964834 C848.977317,54.6148802 849.007147,55.4347198 849.029126,56.2502298 C849.033834,56.4104448 849.044824,56.5778769 849.047967,56.736649 C849.062095,57.371736 849.063665,57.9996064 849.066803,58.6274767 C849.068373,58.9334733 849.073085,59.255347 849.073085,59.5526836 C849.073085,59.842803 849.068373,60.1589029 849.068373,60.4562395 C849.063665,61.0913265 849.062095,61.7249706 849.047967,62.3687181 C849.044824,62.4914054 849.036978,62.619866 849.033834,62.7439971 C849.010286,63.5955911 848.978886,64.4529588 848.925512,65.3088833 C848.917661,65.4128067 848.905102,65.5196169 848.897251,65.6235403 C848.839164,66.4736914 848.763806,67.3209553 848.66176,68.1595593 C848.628791,68.4179243 848.578555,68.6748461 848.542448,68.9332112 C848.44511,69.608713 848.344634,70.2842148 848.20962,70.9438395 C848.112287,71.4086077 847.980411,71.8603859 847.862668,72.3164941 M863.971739,56.9661465 C863.971739,56.9214017 863.97017,56.8781002 863.9686,56.8333554 C863.952903,56.1058916 863.927785,55.3856449 863.896385,54.672615 C863.888534,54.482089 863.875975,54.2987798 863.866555,54.1096971 C863.839868,53.5886369 863.810037,53.0690201 863.77393,52.5566199 C863.750381,52.2361895 863.723694,51.9287496 863.695433,51.618423 C863.664033,51.2619078 863.634208,50.9053931 863.596526,50.551765 C863.554142,50.1360716 863.503901,49.7333682 863.453665,49.3349954 C863.420696,49.0852908 863.392435,48.8355861 863.356328,48.5887677 C863.291959,48.1355467 863.218175,47.6953157 863.142817,47.2608582 C863.108278,47.0544548 863.075309,46.8466081 863.037633,46.6416481 C862.955997,46.2071907 862.864937,45.7857237 862.772312,45.3671435 C862.725215,45.1520799 862.682825,44.9355728 862.63259,44.7233959 C862.533683,44.3048157 862.420648,43.8992259 862.309182,43.4921927 C861.894723,41.9795303 861.387635,40.5116127 860.762798,39.0913266 C860.761229,39.0884399 860.761229,39.0884399 860.75966,39.0869965 C860.229023,37.8817741 859.613607,36.7111928 858.905571,35.5709225 C858.900858,35.565149 858.89772,35.5593754 858.893012,35.553602 C858.213228,34.456633 857.445531,33.3885317 856.578932,32.3507414 C856.564799,32.3348642 856.549101,32.318987 856.534973,32.3031099 C855.696626,31.3028474 854.775079,30.3271225 853.745204,29.3788217 C853.464186,29.1219 853.156476,28.9010629 852.867611,28.6556882 C852.384071,28.2472117 851.911521,27.827188 851.401294,27.4490225 C850.963281,27.1242619 850.495444,26.8428028 850.04016,26.5425798 C849.641399,26.2798846 849.258335,25.9998688 848.843872,25.7559376 C848.361906,25.4701483 847.856387,25.226217 847.360288,24.9664086 C846.939547,24.7470149 846.532935,24.5117439 846.102774,24.3111141 C845.609813,24.0816166 845.098017,23.8925338 844.594067,23.6875738 C844.129368,23.4970476 843.675658,23.2935311 843.198396,23.1232122 C842.697589,22.9456764 842.182649,22.8056686 841.672422,22.6512269 C841.170046,22.4982286 840.678655,22.3293531 840.16529,22.1980055 C839.62052,22.0579977 839.063195,21.9584044 838.50901,21.842934 C838.017623,21.740454 837.532514,21.6206535 837.033272,21.5369374 C836.317385,21.4185802 835.593647,21.3449679 834.868339,21.265582 C834.51667,21.2266107 834.174427,21.1674321 833.819624,21.1385645 C832.719099,21.0476315 831.612297,21 830.499218,21 C829.387703,21 828.280901,21.0476315 827.18195,21.1385645 C826.827143,21.1674321 826.484899,21.2266107 826.131666,21.265582 C825.407927,21.3449679 824.682615,21.4185802 823.968297,21.5369374 C823.46906,21.6206535 822.983951,21.740454 822.49256,21.842934 C821.938374,21.9584044 821.38105,22.0579977 820.836284,22.1980055 C820.322914,22.3293531 819.831528,22.4982286 819.329147,22.6512269 C818.81892,22.8056686 818.30398,22.9456764 817.803174,23.1232122 C817.325916,23.2935311 816.872201,23.4970476 816.405933,23.6875738 C815.901988,23.8925338 815.390187,24.0816166 814.8988,24.3111141 C814.468639,24.5117439 814.060453,24.7470149 813.641282,24.9664086 C813.145183,25.226217 812.638094,25.4701483 812.157698,25.7559376 C811.743234,25.9998688 811.36017,26.2798846 810.961409,26.5425798 C810.50613,26.8428028 810.038288,27.1242619 809.600276,27.4490225 C809.090049,27.827188 808.617498,28.2472117 808.133958,28.6556882 C807.845094,28.9010629 807.535814,29.1219 807.25637,29.3788217 C806.224921,30.3271225 805.303374,31.3028474 804.463457,32.3031099 C804.450899,32.318987 804.435201,32.3348642 804.421073,32.3507414 C803.554469,33.3885317 802.786772,34.456633 802.105419,35.5521586 C802.10228,35.5593754 802.099142,35.565149 802.094429,35.5709225 C801.386393,36.7111928 800.770977,37.8817741 800.24034,39.0855531 C800.238771,39.0884399 800.237202,39.0884399 800.237202,39.0913266 C799.61237,40.5116127 799.105282,41.9795303 798.690818,43.4907493 C798.577783,43.8977825 798.466317,44.3048157 798.36741,44.7233959 C798.315605,44.9355728 798.273216,45.1520799 798.226119,45.3657001 C798.133494,45.7857237 798.044007,46.2071907 797.960798,46.6416481 C797.923121,46.8451647 797.891722,47.0515681 797.855614,47.2565281 C797.781825,47.6924289 797.708041,48.1341034 797.643672,48.5887677 C797.607565,48.8370295 797.577734,49.0896208 797.544765,49.3407692 C797.496099,49.7362554 797.445863,50.1360716 797.401905,50.547435 C797.365797,50.9025064 797.334397,51.2633511 797.302998,51.622753 C797.276311,51.9301929 797.249619,52.2376329 797.22607,52.5566199 C797.188393,53.0690201 797.158563,53.5871931 797.131876,54.1096971 C797.122455,54.2973364 797.111466,54.482089 797.102045,54.6740588 C797.069076,55.3856449 797.047097,56.1058916 797.02983,56.8333554 C797.02983,56.8781002 797.028261,56.9214017 797.026692,56.9661465 C797.00942,57.8191837 797,58.6779953 797,59.5526836 C797,64.2176881 797.222932,68.5391683 797.98749,72.5546515 C798.004757,72.6455845 798.026736,72.7336308 798.044007,72.8231204 C798.150761,73.3658316 798.263796,73.9056556 798.392533,74.4368196 C798.447477,74.6648737 798.511845,74.8885973 798.571501,75.1137648 C798.673547,75.5020338 798.770884,75.8903034 798.887058,76.2699124 C798.989103,76.6177667 799.106851,76.9569614 799.221455,77.297599 C799.306229,77.5530774 799.3863,77.811442 799.478925,78.0640337 C799.637488,78.5057081 799.816461,78.9358353 799.997003,79.3674059 C800.059798,79.5175175 800.114746,79.6719591 800.180684,79.8206274 C800.397334,80.3157066 800.632824,80.8021258 800.876166,81.2856583 C800.921694,81.3722608 800.96094,81.4631938 801.004898,81.5497967 C801.268645,82.0564231 801.554376,82.5558328 801.849523,83.0494686 C801.890338,83.1144206 801.924876,83.1822598 801.965696,83.2486551 C802.259274,83.7278576 802.57483,84.1998425 802.902946,84.6689412 C802.959463,84.7497703 803.011273,84.8320433 803.067791,84.9128724 C803.369214,85.3343396 803.695761,85.7485897 804.027019,86.1599531 C804.127496,86.285527 804.216977,86.4139877 804.320597,86.5381183 C804.585913,86.8571054 804.874782,87.1688758 805.158939,87.482089 C805.350471,87.694266 805.527875,87.9093296 805.728822,88.1186198 C805.834011,88.2283166 805.953323,88.3365701 806.061651,88.4448236 C806.447853,88.8388665 806.835625,89.2329093 807.25637,89.6182917 C807.527968,89.8694397 807.827822,90.0830599 808.11041,90.3226612 C808.600232,90.7383546 809.080628,91.1655951 809.600276,91.5495342 C810.035149,91.8714079 810.499848,92.1528673 810.951989,92.4502034 C811.353893,92.7157857 811.740096,92.9972446 812.157698,93.2440625 C812.638094,93.5284086 813.140475,93.7708965 813.635005,94.0292616 C814.057314,94.2500986 814.465496,94.4853693 814.8988,94.6888863 C815.390187,94.9169404 815.901988,95.1074663 816.405933,95.3124261 C816.872201,95.5015092 817.325916,95.7079123 817.803174,95.8767878 C818.299273,96.0528804 818.811069,96.1914448 819.316588,96.3458865 C819.823677,96.5003281 820.319775,96.6706469 820.837854,96.8019947 C821.374768,96.9405591 821.924246,97.0372654 822.467442,97.1527361 C822.969822,97.2566595 823.461209,97.3779035 823.971436,97.4630627 C824.673195,97.5799766 825.382805,97.6521457 826.092415,97.7286449 C826.458212,97.7690592 826.814584,97.8311245 827.183519,97.8614355 C828.28247,97.9523685 829.389272,98 830.499218,98 C831.610728,98 832.719099,97.9523685 833.818055,97.8614355 C834.186985,97.8311245 834.543362,97.7690592 834.909154,97.7286449 C835.618765,97.6521457 836.328375,97.5799766 837.030134,97.4630627 C837.540361,97.3779035 838.031752,97.2566595 838.534128,97.1527361 C839.077324,97.0372654 839.626801,96.9405591 840.16372,96.8019947 C840.681794,96.6706469 841.177893,96.5003281 841.683412,96.3458865 C842.1905,96.1914448 842.702297,96.0528804 843.198396,95.8767878 C843.675658,95.7079123 844.129368,95.5015092 844.594067,95.3124261 C845.099586,95.1074663 845.609813,94.9169404 846.102774,94.6888863 C846.536073,94.4853693 846.944255,94.2500986 847.366569,94.0292616 C847.861094,93.7708965 848.363475,93.5284086 848.843872,93.2440625 C849.259904,92.9972446 849.647681,92.7157857 850.049581,92.4502034 C850.501721,92.1528673 850.96642,91.8714079 851.401294,91.5495342 C851.920941,91.1655951 852.401342,90.7383546 852.891159,90.3226612 C853.173747,90.0830599 853.472032,89.8694397 853.745204,89.6182917 C854.151817,89.244456 854.527029,88.8634041 854.902242,88.4823517 C855.023128,88.3596644 855.156573,88.2413071 855.274316,88.1171765 C855.47213,87.9093296 855.649529,87.6957093 855.839491,87.4849757 C856.123648,87.1717624 856.412518,86.8585487 856.677834,86.5395616 C856.784592,86.411101 856.877217,86.2797532 856.980832,86.1512926 C857.308947,85.7413725 857.633924,85.3314525 857.932214,84.9128724 C857.987158,84.83493 858.034259,84.7569875 858.089203,84.679045 C858.420462,84.2070596 858.739157,83.7307443 859.035873,83.2457684 C859.073554,83.1865898 859.104949,83.1230811 859.142631,83.0624591 C859.440916,82.5644928 859.729785,82.0607531 859.995102,81.5483534 C860.03906,81.4631938 860.076737,81.3765913 860.120696,81.2914316 C860.365606,80.8064558 860.602666,80.3171499 860.819316,79.8206274 C860.883685,79.6719591 860.938633,79.5218475 861.001428,79.3731797 C861.18197,78.9401653 861.360943,78.5057081 861.521075,78.0640337 C861.612131,77.8128858 861.692202,77.5545207 861.776976,77.301929 C861.89158,76.9584047 862.009327,76.6177667 862.112942,76.2699124 C862.225977,75.8917467 862.324884,75.504921 862.42536,75.1209814 C862.485016,74.891484 862.550954,74.666317 862.607472,74.4353763 C862.736204,73.9027689 862.849239,73.3615011 862.955997,72.8173471 C862.973264,72.7293008 862.995243,72.6441411 863.010941,72.5560953 C863.777068,68.5391683 864,64.2176881 864,59.5526836 C864,58.6779953 863.98901,57.8191837 863.971739,56.9661465" id="Fill-18" fill="#FFFFFF" fill-rule="nonzero"></path>
            <path d="M508.080897,70.6325301 L491.523798,70.6325301 L502.234034,38.1611544 L507.025801,52.6798289 L512.948655,70.6325301 L508.080897,70.6325301 Z M535.947391,96.7116791 L510.161859,21.5326856 C510.052261,21.2139721 509.757067,21 509.426801,21 L495.57612,21 C495.245854,21 494.950665,21.2139721 494.839601,21.5326856 L469.07599,96.6533231 C469.074529,96.6548195 469.074529,96.6563159 469.073068,96.6578118 L469.058454,96.7012047 C469.020459,96.8044501 469,96.9151771 469,97.0318892 C469,97.5660711 469.423792,98 469.945494,98 C469.946955,98 469.946955,98 469.948416,98 L481.84235,98 C482.175538,98 482.473653,97.7815394 482.58033,97.4583365 L487.280034,83.2299457 L517.190959,83.2299457 L521.892124,97.4583365 C521.998801,97.7815394 522.296916,98 522.630104,98 L535.04866,98 L535.04866,97.9985041 C535.050121,97.9985041 535.053047,98 535.054507,98 C535.576206,98 536,97.5660711 536,97.0318892 C536,96.9196658 535.982464,96.8119317 535.947391,96.7116791 Z" id="Fill-20" fill="#FFFFFF" fill-rule="nonzero"></path>
            <path d="M711.081505,70.6325301 L694.523304,70.6325301 L705.233308,38.1611544 L710.024972,52.6798289 L715.947699,70.6325301 L711.081505,70.6325301 Z M738.945931,96.7116791 L713.162425,21.5326856 C713.052826,21.2139721 712.756177,21 712.42592,21 L698.575541,21 C698.245284,21 697.951555,21.2139721 697.840496,21.5326856 L672.075987,96.6533231 C672.075987,96.6548195 672.074526,96.6563159 672.074526,96.6578118 L672.058451,96.7012047 C672.021918,96.8044501 672,96.9151771 672,97.0318892 C672,97.5660711 672.42378,98 672.945469,98 C672.94693,98 672.948395,98 672.949856,98 L684.842068,98 C685.175246,98 685.473356,97.7815394 685.580034,97.4583365 L690.281095,83.2299457 L720.191369,83.2299457 L724.890969,97.4583365 C724.997647,97.7815394 725.295753,98 725.630396,98 L738.047223,98 L738.047223,97.9985041 C738.050144,97.9985041 738.051605,98 738.054526,98 C738.57622,98 739,97.5660711 739,97.0318892 C739,96.9196658 738.981003,96.8119317 738.945931,96.7116791 Z" id="Fill-22" fill="#FFFFFF" fill-rule="nonzero"></path>
            <path d="M795.566701,21.0897767 C795.54682,21.0807991 795.525413,21.0822953 795.504006,21.074814 C795.40767,21.0359107 795.308276,21 795.195118,21 L782.48946,21 C782.133168,21 781.819696,21.2259381 781.711128,21.558112 L762.91336,79.7513847 L754.399084,53.5470551 L744.040664,21.6643478 C743.910683,21.2783079 743.540632,21.0029926 743.101769,21.0014963 L743.101769,21 L729.990888,21 L729.990888,21.0014963 C729.989357,21.0014963 729.989357,21 729.98783,21 C729.441926,21 729,21.4339209 729,21.9680924 C729,22.0743282 729.016822,22.1760751 729.048936,22.2703406 L754.513769,97.4523623 C754.6254,97.7785508 754.937345,98 755.289047,98 L769.870963,98 C770.224196,98 770.536141,97.7785508 770.646241,97.4508659 L795.970397,22.0473951 C796.004037,21.9441519 796.002506,21.8409087 795.993331,21.740658 C795.991804,21.7182138 796.002506,21.6957696 796,21.6748217 C795.958164,21.4234469 795.79607,21.2064865 795.566701,21.0897767" id="Fill-24" fill="#FFFFFF" fill-rule="nonzero"></path>
        </g>
        <g id="Thoma-Bravo-IPOs" transform="translate(119.000000, 582.000000)" fill="#FFFFFF" font-family="Arial-BoldMT, Arial" font-size="375" font-weight="bold" letter-spacing="2.34375">
            <text id="IPOs">
                <tspan x="0" y="339">IPOs</tspan>
            </text>
        </g>
    </g>
</svg>