<?xml version="1.0" encoding="UTF-8"?>
<svg width="1100px" height="1100px" viewBox="0 0 1100 1100" version="1.1" xmlns="http://www.w3.org/2000/svg" xmlns:xlink="http://www.w3.org/1999/xlink">
    <!-- Generator: Sketch 56.2 (81672) - https://sketch.com -->
    <title>App Icon</title>
    <desc>Created with Sketch.</desc>
    <defs>
        <polygon id="path-1" points="0 0 57.9298482 0 57.9298482 117 0 117"></polygon>
    </defs>
    <g id="App-Icon" stroke="none" stroke-width="1" fill="none" fill-rule="evenodd">
        <rect id="Rectangle" stroke="#979797" fill="#2E343B" x="0.5" y="0.5" width="1099" height="1099" rx="50"></rect>
        <g id="white-logo" transform="translate(144.000000, 461.000000)">
            <path d="M108.690565,117 L69.5490819,117 C69.2457933,117 69,116.756553 69,116.456158 L69,0.543841717 C69,0.24344747 69.2457933,0 69.5490819,0 L126.449481,0 C126.752769,0 127,0.24344747 127,0.543841717 L127,98.8652988 C127,108.880813 118.802583,117 108.690565,117" id="Fill-1" fill="#FFFFFF" fill-rule="nonzero"></path>
            <g id="Group-5">
                <g id="Fill-3-Clipped">
                    <mask id="mask-2" fill="white">
                        <use xlink:href="#path-1"></use>
                    </mask>
                    <g id="path-1"></g>
                    <path d="M18.2863068,0 L57.3814171,0 C57.6843465,0 57.9298482,0.24344747 57.9298482,0.543841717 L57.9298482,116.454735 C57.9298482,116.755129 57.6843465,117 57.3814171,117 L0.54843128,117 C0.24550196,117 0,116.755129 0,116.454735 L0,18.1332774 C0,8.11918669 8.18627005,0 18.2863068,0" id="Fill-3" fill="#FFFFFF" fill-rule="nonzero" mask="url(#mask-2)"></path>
                </g>
            </g>
            <path d="M216.264311,20 L162.735689,20 C162.329887,20 162,20.33904 162,20.7575204 L162,31.5997086 C162,32.0181889 162.329887,32.3558104 162.735689,32.3558104 L183.038221,32.3558104 L183.038221,92.2438983 C183.038221,92.6623788 183.368108,93 183.77391,93 L195.22609,93 C195.633272,93 195.961779,92.6623788 195.961779,92.2438983 L195.961779,32.3558104 L216.264311,32.3558104 C216.670113,32.3558104 217,32.0181889 217,31.5997086 L217,20.7575204 C217,20.33904 216.670113,20 216.264311,20" id="Fill-6" fill="#FFFFFF" fill-rule="nonzero"></path>
            <path d="M279.550029,20.0595803 C279.461691,20.0212787 279.365072,20 279.262931,20 L267.812131,20 C267.60923,20 267.424273,20.0851147 267.291766,20.2212981 C267.157879,20.3589001 267.076442,20.5475709 267.076442,20.7575204 L267.076442,48.5219202 L237.923558,48.5219202 L237.923558,20.7575204 C237.923558,20.5475709 237.840741,20.3589001 237.708234,20.2212981 C237.574347,20.0851147 237.39077,20 237.187869,20 L225.735689,20 C225.532788,20 225.347831,20.0851147 225.215324,20.2212981 C225.082817,20.3589001 225,20.5475709 225,20.7575204 L225,92.2438983 C225,92.452429 225.082817,92.6425188 225.215324,92.7787022 C225.347831,92.9163043 225.532788,93 225.735689,93 L237.187869,93 C237.39077,93 237.574347,92.9163043 237.708234,92.7787022 C237.840741,92.6425188 237.923558,92.452429 237.923558,92.2438983 L237.923558,61.1855618 L267.076442,61.1855618 L267.076442,92.2438983 C267.076442,92.452429 267.157879,92.6425188 267.291766,92.7787022 C267.424273,92.9163043 267.60923,93 267.812131,93 L279.262931,93 C279.365072,93 279.461691,92.98014 279.550029,92.9404199 C279.813662,92.8255152 280,92.5574039 280,92.2438983 L280,20.7575204 C280,20.4440148 279.813662,20.174485 279.550029,20.0595803" id="Fill-8" fill="#FFFFFF" fill-rule="nonzero"></path>
            <path d="M337.830873,68.6288075 C337.721636,69.0625902 337.624209,69.5018467 337.491354,69.924682 C337.308309,70.4994094 337.078026,71.0522431 336.847743,71.603708 C336.739983,71.8637039 336.654365,72.1360151 336.536272,72.3891692 C336.229228,73.0377906 335.861662,73.6508333 335.471953,74.2501921 C335.383383,74.3884006 335.318431,74.5416611 335.223956,74.6757646 C334.971531,75.0383904 334.702868,75.3900689 334.416491,75.7308006 C334.130114,76.0701634 333.824547,76.3972111 333.499789,76.7105742 C333.12927,77.0786739 332.733656,77.4262474 332.317377,77.7546629 C332.014762,77.9913963 331.690004,78.2089718 331.36377,78.4265473 C331.250105,78.5018091 331.145297,78.58665 331.030156,78.6605435 C329.69127,79.5021091 328.182623,80.1698879 326.59574,80.6351436 C326.564741,80.6433542 326.536693,80.6556694 326.505694,80.66388 C326.098271,80.7815623 325.680515,80.8718766 325.262758,80.9621913 C325.122522,80.992296 324.983762,81.0333476 324.843526,81.0593473 C324.548292,81.1154517 324.250106,81.1469248 323.954871,81.1879769 C323.687685,81.2249239 323.42345,81.2755544 323.157739,81.3001858 C323.07655,81.3083959 322.995361,81.3056592 322.915647,81.3125014 C322.441797,81.349448 321.969422,81.3795527 321.5,81.3795527 C321.032054,81.3795527 320.561156,81.349448 320.088781,81.3125014 C320.007592,81.3056592 319.924926,81.3083959 319.842261,81.3001858 C319.578026,81.2755544 319.315268,81.2262922 319.051033,81.1893453 C318.752847,81.1469248 318.453184,81.1154517 318.156474,81.0593473 C318.017714,81.0333476 317.88043,80.992296 317.743146,80.9635596 C317.322438,80.8732449 316.904681,80.7829307 316.49283,80.66388 C316.466259,80.6570378 316.439688,80.6460909 316.411641,80.6378803 C314.821805,80.1726246 313.310207,79.5034774 311.969844,78.6605435 C311.866512,78.5948601 311.773513,78.5195982 311.673134,78.4511781 C311.333615,78.2267609 310.995571,78.0009748 310.681147,77.7532945 C310.266344,77.4262474 309.87073,77.0786739 309.500211,76.7105742 C308.850696,76.0838474 308.279418,75.4010162 307.776044,74.6757646 C307.680093,74.5402928 307.615141,74.3856639 307.525095,74.246087 C307.138338,73.6467283 306.769295,73.0364222 306.463728,72.3891692 C306.344158,72.1346467 306.258541,71.8609668 306.15078,71.5996025 C305.921974,71.049506 305.690215,70.4994094 305.508646,69.924682 C305.375791,69.5018467 305.278364,69.0598535 305.167651,68.6247025 C305.058414,68.2004988 304.937368,67.7817686 304.848798,67.352091 C304.720371,66.7185224 304.622944,66.0685327 304.531421,65.4185429 C304.498945,65.1831783 304.451708,64.9491817 304.423661,64.7124487 C304.326234,63.9119352 304.255378,63.1018428 304.199283,62.290382 C304.193378,62.197331 304.181569,62.1015429 304.175664,62.0084914 C304.125474,61.1956623 304.094475,60.3828331 304.072332,59.5713723 C304.070856,59.4550584 304.063475,59.3346394 304.060523,59.2196938 C304.047238,58.6093877 304.044285,58.0086602 304.041333,57.4065647 C304.039857,57.1233058 304.035428,56.824995 304.035428,56.5485784 C304.035428,56.2680562 304.039857,55.9615349 304.041333,55.6728026 C304.045761,55.0761805 304.047238,54.4822952 304.060523,53.8788309 C304.063475,53.7296755 304.072332,53.5736779 304.076761,53.4217858 C304.097427,52.6459032 304.125474,51.8672843 304.174188,51.0900333 C304.184521,50.92172 304.205188,50.7520388 304.216997,50.5823571 C304.270139,49.8447898 304.332138,49.1085909 304.419233,48.3792342 C304.460565,48.0371342 304.525517,47.6977713 304.575707,47.3570397 C304.656896,46.8096803 304.735133,46.2595837 304.841417,45.7245395 C304.950654,45.1867585 305.096795,44.6626615 305.237031,44.1358277 C305.324125,43.7992015 305.397933,43.4557333 305.499789,43.1286858 C305.704977,42.4732225 305.960354,41.8423905 306.227541,41.2170319 C306.308731,41.0268244 306.369254,40.8256697 306.456347,40.638199 C306.778153,39.9498941 307.164909,39.2971677 307.578237,38.6649672 C307.649093,38.5568636 307.699283,38.4364445 307.773091,38.3310777 C308.277942,37.6017209 308.84922,36.9161528 309.500211,36.2880575 C309.87073,35.919958 310.266344,35.5723846 310.681147,35.2453372 C310.995571,34.9990253 311.333615,34.771871 311.673134,34.5474535 C311.773513,34.4804019 311.866512,34.4037716 311.969844,34.3380884 C313.316111,33.4910492 314.833614,32.8205335 316.430831,32.3552777 C316.452974,32.3484357 316.472164,32.3402254 316.491354,32.3347518 C316.910586,32.2143326 317.338676,32.1212815 317.765289,32.0295987 C317.896668,32.0022307 318.025095,31.9639155 318.154998,31.9392843 C318.462041,31.8804432 318.773513,31.8476016 319.083509,31.8051812 C319.33741,31.7709712 319.588359,31.7230773 319.840784,31.6984461 C319.951497,31.6888673 320.06221,31.6916041 320.172923,31.6820253 C320.615774,31.6491837 321.060101,31.6204473 321.5,31.6204473 C321.941375,31.6204473 322.387178,31.6491837 322.831506,31.6820253 C322.940742,31.6916041 323.049979,31.6888673 323.159216,31.6984461 C323.413117,31.7230773 323.667018,31.7709712 323.922395,31.8065496 C324.229439,31.84897 324.539435,31.8818116 324.845002,31.9392843 C324.977857,31.9639155 325.10776,32.0035991 325.240616,32.0309671 C325.665753,32.1226499 326.09089,32.215701 326.50717,32.3347518 C326.530789,32.3415938 326.552931,32.3511725 326.575074,32.3580145 C328.170814,32.8219019 329.685365,33.4924176 331.030156,34.3380884 C331.140869,34.4092452 331.242725,34.4913491 331.353437,34.5652427 C331.682623,34.785555 332.011809,35.0044989 332.318853,35.2453372 C332.733656,35.5723846 333.12927,35.919958 333.499789,36.2880575 C334.15078,36.9161528 334.722058,37.6017209 335.226909,38.3310777 C335.300717,38.4364445 335.350907,38.5568636 335.421763,38.6649672 C335.835091,39.2971677 336.220371,39.9498941 336.543653,40.638199 C336.630746,40.8243013 336.689793,41.025456 336.770983,41.2142951 C337.03817,41.8410221 337.295023,42.4718541 337.500211,43.1286858 C337.602067,43.4557333 337.672923,43.7964647 337.761493,44.1289858 C337.901729,44.6585563 338.049346,45.1853901 338.158583,45.7245395 C338.264867,46.2595837 338.343104,46.8096803 338.424293,47.3570397 C338.475959,47.6977713 338.537958,48.0371342 338.580767,48.3792342 C338.667862,49.1085909 338.729861,49.8447898 338.783003,50.5823571 C338.794812,50.7520388 338.815479,50.92172 338.825812,51.0900333 C338.874526,51.8672843 338.902573,52.6459032 338.923239,53.4217858 C338.927668,53.5736779 338.936525,53.7296755 338.939477,53.8788309 C338.952762,54.4822952 338.954239,55.0761805 338.957191,55.6728026 C338.958667,55.9615349 338.964572,56.2680562 338.964572,56.5485784 C338.964572,56.824995 338.958667,57.1233058 338.958667,57.4065647 C338.954239,58.0086602 338.952762,58.6093877 338.939477,59.2196938 C338.936525,59.3346394 338.929144,59.4550584 338.926192,59.5713723 C338.905525,60.3828331 338.876002,61.1956623 338.82286,62.0084914 C338.816955,62.1015429 338.806622,62.197331 338.799241,62.290382 C338.744622,63.1018428 338.673766,63.9119352 338.576339,64.7124487 C338.546816,64.9491817 338.501055,65.1831783 338.467102,65.4185429 C338.37558,66.0685327 338.279629,66.7185224 338.151202,67.352091 C338.062632,67.7845053 337.94011,68.2032355 337.830873,68.6288075 M352.970477,53.9732507 C352.955715,53.2822089 352.932096,52.5993777 352.902573,51.924757 C352.895192,51.7413914 352.883382,51.5662363 352.874525,51.3869757 C352.849431,50.8929836 352.821383,50.4017282 352.785955,49.9159466 C352.765289,49.6135303 352.738718,49.3234297 352.715099,49.0305923 C352.685576,48.691229 352.654576,48.3504978 352.620624,48.01524 C352.579292,47.6197723 352.532054,47.237989 352.484817,46.8575741 C352.455293,46.6235779 352.427246,46.3895817 352.39477,46.1583222 C352.334247,45.7245395 352.264867,45.3030724 352.192535,44.8857106 C352.160059,44.6941347 352.130536,44.5011904 352.095107,44.3109829 C352.018347,43.8963579 351.931252,43.4926801 351.844159,43.0917391 C351.799874,42.8919527 351.761493,42.690798 351.714256,42.4923801 C351.61978,42.0928075 351.514972,41.7041821 351.408688,41.3169251 C351.018979,39.8869478 350.542176,38.4966541 349.954661,37.1515175 C349.954661,37.1501491 349.953184,37.1474123 349.951708,37.1446755 C349.454239,36.0047988 348.874104,34.8936585 348.209827,33.8139915 C348.205399,33.8071495 348.20097,33.8016758 348.198018,33.7962023 C347.55736,32.7575872 346.835513,31.7449716 346.020666,30.7610925 C346.008857,30.7446717 345.994095,30.7309877 345.98081,30.7145669 C345.192535,29.7676346 344.326023,28.8412282 343.357655,27.9435582 C343.093421,27.6986147 342.802615,27.4906181 342.529523,27.2566218 C342.076339,26.8693647 341.632012,26.4711605 341.152256,26.1140083 C340.737452,25.80475 340.296078,25.5351754 339.865036,25.2491799 C339.493041,25.002868 339.134332,24.738767 338.749051,24.5088759 C338.292914,24.2365644 337.814635,24.0025681 337.343737,23.7562562 C336.952551,23.5509963 336.573176,23.3293156 336.170181,23.1391081 C335.703712,22.9201642 335.219528,22.7381671 334.741248,22.542486 C334.30873,22.3645941 333.885069,22.1716498 333.440742,22.0129155 C332.965416,21.8432339 332.475327,21.7091308 331.991143,21.5613437 C331.524673,21.4176618 331.065584,21.2589274 330.588781,21.1357715 C330.072121,21.0016684 329.542176,20.9058804 329.018136,20.7964084 C328.559047,20.7006205 328.108815,20.5870433 327.642345,20.5090446 C326.967735,20.3954674 326.284268,20.3256791 325.600801,20.2504171 C325.273092,20.2148387 324.952763,20.1587343 324.620624,20.1313664 C323.587305,20.0451572 322.546605,20 321.5,20 C320.454872,20 319.414171,20.0451572 318.379376,20.1313664 C318.048714,20.1587343 317.729861,20.2148387 317.403627,20.2504171 C316.718684,20.3256791 316.033741,20.3954674 315.357655,20.5090446 C314.892661,20.5870433 314.443906,20.6992521 313.986293,20.79504 C313.460776,20.9058804 312.929355,21.0016684 312.411219,21.1357715 C311.935892,21.2589274 311.478279,21.4162934 311.013286,21.5586069 C310.527626,21.7077624 310.034584,21.8418655 309.559258,22.0129155 C309.117883,22.1716498 308.697174,22.3632257 308.266133,22.5383808 C307.784901,22.7354303 307.297764,22.9187958 306.828342,23.1391081 C306.4283,23.3279472 306.051877,23.5482595 305.662168,23.752151 C305.189793,23.9998313 304.710038,24.235196 304.250949,24.5088759 C303.867145,24.7373986 303.509912,25.0001312 303.139393,25.2450747 C302.706875,25.5324386 302.264024,25.8033816 301.847744,26.1140083 C301.372417,26.4684237 300.932518,26.8625227 300.482286,27.2456746 C300.206242,27.4837761 299.911008,27.6945096 299.642345,27.9435582 C298.673977,28.8412282 297.807465,29.7676346 297.01919,30.7145669 C297.005905,30.7309877 296.991143,30.7446717 296.979334,30.7610925 C296.163011,31.7449716 295.44264,32.7575872 294.801982,33.7962023 C294.79903,33.8016758 294.794601,33.8071495 294.790173,33.8139915 C294.125896,34.8936585 293.545761,36.0047988 293.048292,37.1446755 C293.046816,37.1474123 293.045339,37.1501491 293.043863,37.1515175 C292.750106,37.8234016 292.484395,38.5076012 292.243779,39.2027481 C292.003163,39.8965266 291.786166,40.6012522 291.591312,41.3169251 C291.485028,41.7041821 291.380219,42.0928075 291.284268,42.4923801 C291.238507,42.690798 291.19865,42.8919527 291.155841,43.0917391 C291.067271,43.4926801 290.981653,43.8963579 290.903416,44.3109829 C290.869464,44.5011904 290.839941,44.6941347 290.807465,44.8857106 C290.735133,45.3030724 290.665753,45.7245395 290.60523,46.1583222 C290.571278,46.3895817 290.544707,46.6235779 290.515183,46.8575741 C290.46647,47.237989 290.419232,47.6197723 290.3779,48.01524 C290.343948,48.3504978 290.3159,48.691229 290.286377,49.0305923 C290.259806,49.3234297 290.234711,49.6135303 290.212569,49.9159466 C290.177141,50.4017282 290.150569,50.8929836 290.125475,51.3869757 C290.115141,51.5662363 290.104808,51.7413914 290.097427,51.924757 C290.066428,52.5993777 290.044285,53.2822089 290.029523,53.9732507 C290.028047,54.0156711 290.026571,54.0553548 290.026571,54.0977752 C290.008857,54.9051305 290,55.719328 290,56.5485784 C290,60.9685083 290.209616,65.0641272 290.928511,68.8682776 C290.947701,68.9695392 290.969844,69.0666957 290.99051,69.1665889 C291.087938,69.6674228 291.191269,70.16552 291.307887,70.655407 C291.362505,70.8811931 291.425981,71.1028737 291.485028,71.3272914 C291.578026,71.6844434 291.669549,72.0429641 291.772881,72.3946426 C291.87326,72.7340059 291.986925,73.0637898 292.097638,73.3963109 C292.174399,73.6289387 292.246731,73.8643038 292.329397,74.0955633 C292.484395,74.523872 292.654154,74.9439706 292.828342,75.3627009 C292.882961,75.4954355 292.931674,75.629539 292.989245,75.7609053 C293.195909,76.2384767 293.421763,76.7078375 293.656474,77.1744616 C293.694855,77.2497235 293.72733,77.3263542 293.765711,77.401616 C294.01666,77.8887659 294.286799,78.3663373 294.570223,78.841172 C294.604176,78.8972764 294.633699,78.9561176 294.667651,79.012222 C294.948123,79.4733727 295.249262,79.9276811 295.563686,80.3778844 C295.6124,80.4476729 295.655209,80.5201981 295.703923,80.5899865 C295.988823,80.9909277 296.295867,81.3836582 296.608815,81.7750204 C296.701814,81.8940711 296.787431,82.0158584 296.883383,82.1335407 C297.135808,82.4373254 297.408899,82.737005 297.679038,83.0353162 C297.854702,83.2337338 298.020034,83.4348886 298.206031,83.6305699 C298.316744,83.7482522 298.442218,83.8618294 298.55736,83.9781434 C298.910164,84.3380325 299.261493,84.7006583 299.642345,85.0523368 C299.903627,85.2945436 300.190004,85.5011718 300.460144,85.7324313 C300.91628,86.1224252 301.36356,86.5219975 301.846267,86.883255 C302.259595,87.1925135 302.70097,87.4607196 303.130535,87.7467151 C303.505483,87.9943954 303.864192,88.2584964 304.250949,88.4911242 C304.707086,88.7620674 305.183889,88.9946953 305.653311,89.2410072 C306.044496,89.4476354 306.425348,89.6693159 306.828342,89.8595238 C307.296288,90.0784677 307.781949,90.2618329 308.261704,90.4575142 C308.694222,90.635406 309.114931,90.8269818 309.559258,90.9857162 C310.031632,91.1553978 310.520244,91.2895008 311.002953,91.4359195 C311.472374,91.5796015 311.93294,91.7397042 312.412695,91.8628604 C312.92345,91.995595 313.446014,92.0900148 313.965626,92.1994865 C314.429144,92.296643 314.886757,92.4115886 315.359131,92.4895871 C316.023408,92.601796 316.696541,92.6702161 317.368199,92.745478 C317.707718,92.7824245 318.03838,92.8398973 318.380852,92.8686337 C319.414171,92.9534745 320.454872,93 321.5,93 C322.545128,93 323.585829,92.9534745 324.619148,92.8686337 C324.963096,92.8398973 325.295234,92.7810562 325.634753,92.7441096 C326.306411,92.6702161 326.978068,92.601796 327.640869,92.4895871 C328.113243,92.4115886 328.572332,92.296643 329.037326,92.1981181 C329.555462,92.0900148 330.078026,91.995595 330.587305,91.8628604 C331.068537,91.7397042 331.530578,91.5796015 332.001476,91.4359195 C332.482708,91.2881325 332.968368,91.1553978 333.439266,90.9857162 C333.886546,90.8269818 334.310207,90.6326693 334.744201,90.4547775 C335.221004,90.2590962 335.705188,90.0784677 336.170181,89.8595238 C336.574652,89.6693159 336.95698,89.446267 337.349642,89.2396388 C337.819064,88.9933269 338.294391,88.7606991 338.747575,88.4911242 C339.135808,88.2584964 339.494517,87.9943954 339.869465,87.7453468 C340.29903,87.4607196 340.738929,87.1925135 341.152256,86.883255 C341.63644,86.5219975 342.08372,86.1224252 342.539856,85.7324313 C342.809996,85.5011718 343.096373,85.2945436 343.357655,85.0523368 C343.738507,84.7006583 344.089836,84.3380325 344.44264,83.9781434 C344.556305,83.8618294 344.683256,83.7482522 344.793969,83.6305699 C344.97849,83.4348886 345.143821,83.2337338 345.320962,83.0353162 C345.589625,82.737005 345.864192,82.4373254 346.115141,82.1335407 C346.212569,82.0158584 346.29671,81.8940711 346.391185,81.7750204 C346.702657,81.3836582 347.011177,80.9909277 347.294601,80.5899865 C347.344791,80.5201981 347.3876,80.4476729 347.436314,80.3778844 C347.749262,79.9276811 348.051877,79.4733727 348.332349,79.012222 C348.366301,78.9561176 348.395824,78.8972764 348.429777,78.841172 C348.713201,78.3663373 348.98334,77.8887659 349.234289,77.401616 C349.27267,77.3263542 349.305145,77.2497235 349.343526,77.1744616 C349.578237,76.7078375 349.802615,76.2384767 350.009279,75.7609053 C350.066849,75.629539 350.115563,75.4954355 350.170181,75.3627009 C350.344369,74.9439706 350.515605,74.523872 350.669127,74.0955633 C350.753269,73.8643038 350.824125,73.6289387 350.902362,73.3963109 C351.013075,73.0637898 351.12674,72.7340059 351.227119,72.3946426 C351.331927,72.0429641 351.421974,71.6844434 351.514972,71.3272914 C351.572543,71.1028737 351.637495,70.8811931 351.690637,70.655407 C351.808731,70.16552 351.912062,69.6674228 352.00949,69.1665889 C352.030156,69.0666957 352.052299,68.9695392 352.071489,68.8682776 C352.790384,65.0641272 353,60.9685083 353,56.5485784 C353,55.719328 352.991143,54.9051305 352.973429,54.0977752 C352.973429,54.0553548 352.970477,54.0156711 352.970477,53.9732507" id="Fill-10" fill="#FFFFFF" fill-rule="nonzero"></path>
            <path d="M436.236774,20 L420.383722,20 C420.064399,20 419.77801,20.1971823 419.66775,20.493665 L400.416696,71.9937041 L392.151515,49.7674309 L381.268741,20.4950836 C381.158481,20.1986009 380.872092,20 380.551337,20 L363.764658,20 C363.342235,20 363,20.33904 363,20.7575204 L363,92.2438983 C363,92.6623788 363.342235,93 363.764658,93 L375.22737,93 C375.649793,93 375.990596,92.6623788 375.990596,92.2438983 L375.990596,40.2899146 L385.173652,65.2370191 L394.827818,91.4736109 C394.938078,91.771512 395.224467,91.9701129 395.545222,91.9701129 L404.35311,91.9701129 C404.673865,91.9701129 404.958822,91.7743493 405.069082,91.4778664 L424.00654,40.9069958 L424.009404,65.74487 L424.009404,92.2438983 C424.009404,92.3488732 424.030884,92.4481735 424.069546,92.5389625 C424.185533,92.8099107 424.456171,93 424.77263,93 L436.236774,93 C436.445838,93 436.637718,92.9163043 436.776617,92.7787022 C436.915515,92.6425188 437,92.452429 437,92.2438983 L437,20.7575204 C437,20.5475709 436.915515,20.3589001 436.776617,20.2212981 C436.637718,20.0851147 436.445838,20 436.236774,20" id="Fill-12" fill="#FFFFFF" fill-rule="nonzero"></path>
            <path d="M539.141126,31.4147052 C539.893307,31.4175383 540.609207,31.4572022 541.290216,31.5322803 C541.393484,31.5421963 541.493965,31.5606117 541.59444,31.5733608 C542.208466,31.651272 542.795978,31.7546815 543.349996,31.8920886 C543.461638,31.92042 543.567694,31.9558342 543.676548,31.9855821 C544.2194,32.1357383 544.737137,32.307143 545.217193,32.5167951 C545.288367,32.5479596 545.356743,32.5876235 545.427917,32.6202046 C545.919139,32.848272 546.383843,33.1018377 546.80529,33.3936507 C546.826224,33.4078164 546.845759,33.4219821 546.866692,33.4361478 C547.401175,33.8143714 547.870066,34.2450081 548.277554,34.720975 C548.309654,34.7606388 548.338961,34.805969 548.371056,34.8442164 C548.749242,35.3074341 549.072997,35.8117323 549.333961,36.3613607 C549.360475,36.41944 549.382803,36.4831856 549.407923,36.5426814 C549.654928,37.0993927 549.853092,37.6929347 549.985667,38.33464 C549.996828,38.3955524 550.002414,38.4635477 550.013575,38.5258767 C550.136383,39.1831642 550.206158,39.8772826 550.208946,40.6209808 C550.208946,40.636563 550.211739,40.6507287 550.211739,40.666311 C550.211739,41.5063358 550.132196,42.2726991 549.991248,42.9767334 C549.934033,43.2614636 549.822391,43.5036967 549.744242,43.7714281 C549.62702,44.1624009 549.526539,44.5703724 549.366056,44.916015 C549.218133,45.237576 549.006015,45.5109734 548.819017,45.8013701 C548.66272,46.0379369 548.534332,46.3042516 548.357102,46.5153205 C548.019388,46.9176255 547.618874,47.2689347 547.191846,47.5961616 C546.651782,48.0069665 546.068457,48.3681912 545.420938,48.6486716 C545.2465,48.7237497 545.041362,48.77333 544.857152,48.8413251 C544.451057,48.9900645 544.044963,49.1430541 543.606773,49.2492967 C543.330461,49.3187083 543.019262,49.3555393 542.724804,49.4079524 C542.345228,49.4759476 541.972622,49.5581083 541.5763,49.6006055 C541.06833,49.654435 540.518499,49.6714339 539.970062,49.6855995 C539.769105,49.6912657 539.576527,49.7153476 539.374177,49.7153476 L522.964329,49.7153476 L522.964329,31.4132886 L539.07135,31.4132886 C539.095072,31.4132886 539.117404,31.4147052 539.141126,31.4147052 M546.08939,79.8188347 C545.951234,79.876914 545.813078,79.9392429 545.674922,79.991656 C545.437684,80.0808998 545.193472,80.1616441 544.94786,80.2381386 C544.834825,80.2749697 544.723183,80.3132168 544.608748,80.3457981 C544.347789,80.4222927 544.082643,80.4888714 543.814704,80.5526168 C543.714224,80.5752818 543.613748,80.6021966 543.514666,80.6234452 C543.238354,80.6829413 542.957855,80.7339376 542.675962,80.7821009 C542.58386,80.797683 542.490359,80.8146818 542.39965,80.8288474 C542.110778,80.8727611 541.819118,80.9081753 541.527453,80.9407567 C541.445118,80.9492561 541.361389,80.9605884 541.280448,80.9676714 C540.963668,80.997419 540.644095,81.021501 540.327315,81.0384998 C540.277075,81.0399163 540.226834,81.0455824 540.179387,81.0469993 C539.809578,81.0639977 539.439765,81.0739141 539.07135,81.0739141 L522.964329,81.0739141 L522.964329,60.8184077 L539.474653,60.8184077 C539.540241,60.8184077 539.604435,60.8226574 539.671422,60.8240739 C540.129151,60.8269072 540.565947,60.8453225 540.991576,60.8708208 C541.219047,60.8864028 541.44233,60.9048181 541.665609,60.9274836 C541.902847,60.9501487 542.133106,60.9784799 542.360576,61.0082279 C542.628515,61.0450586 542.897848,61.0776395 543.158812,61.1258028 C543.17416,61.1286361 543.18672,61.1328859 543.202072,61.1343023 C544.339415,61.3425378 545.39861,61.6612657 546.360122,62.1018182 C546.369889,62.106068 546.379656,62.1089013 546.389424,62.1145674 C546.697835,62.2562242 546.993682,62.4120467 547.278367,62.5806183 C547.30628,62.5962007 547.332794,62.6117828 547.359309,62.6287817 C547.627247,62.7888538 547.88402,62.9616751 548.13103,63.1458292 C548.174291,63.1784101 548.216153,63.2124079 548.25802,63.2449888 C548.479905,63.4178101 548.693421,63.5991309 548.895767,63.791784 C548.959961,63.8526965 549.021367,63.9164419 549.082769,63.9787709 C549.251626,64.1501758 549.413503,64.3272468 549.5698,64.5142337 C549.649347,64.6133934 549.727496,64.7139698 549.802851,64.8145463 C549.924261,64.9746185 550.041488,65.1417732 550.151731,65.3131781 C550.236859,65.4449191 550.3178,65.5794929 550.39455,65.7154836 C550.48247,65.8698891 550.566199,66.0299613 550.645742,66.1928667 C550.721102,66.3486892 550.796458,66.5045116 550.862051,66.6631673 C550.93322,66.8303225 550.99602,67.0059767 551.057422,67.1802149 C551.113243,67.3374537 551.17325,67.494693 551.220698,67.6547652 C551.318381,67.9763259 551.403509,68.3063861 551.473284,68.654862 C551.491425,68.7469391 551.501192,68.8375992 551.517939,68.9282598 C551.570972,69.228572 551.615626,69.5359675 551.64912,69.854695 C551.658887,69.9566879 551.668655,70.0558479 551.675634,70.1578408 C551.709128,70.5615627 551.730056,70.9737841 551.730056,71.4086705 C551.730056,71.8633886 551.704941,72.2968585 551.657493,72.7119127 C551.64912,72.7827412 551.632373,72.8479034 551.622606,72.9173154 C551.576552,73.2572915 551.520731,73.5887685 551.443977,73.9046631 C551.423044,73.9939068 551.390949,74.0774844 551.367223,74.1653117 C551.28768,74.4514583 551.203951,74.7333555 551.099284,74.9982539 C551.065795,75.0860807 551.023928,75.1668255 550.986248,75.2518195 C550.876005,75.5053851 550.762969,75.7575343 550.630394,75.9926846 C550.58434,76.0748453 550.528519,76.1541732 550.479677,76.2349175 C550.342915,76.4587355 550.204759,76.6797197 550.047069,76.8865388 C549.984268,76.9715328 549.910307,77.0494443 549.841926,77.1330219 C549.687027,77.3228416 549.529332,77.5112454 549.357683,77.6840667 C549.264186,77.7789766 549.158125,77.8668039 549.057649,77.958881 C548.895767,78.1076204 548.738076,78.2591931 548.565033,78.3966002 C548.39757,78.5269247 548.214759,78.647333 548.034736,78.7691576 C547.814245,78.9207303 547.586779,79.063804 547.350935,79.1983778 C547.136025,79.3202029 546.923907,79.443444 546.70481,79.5496866 C546.503858,79.6474298 546.295927,79.7310074 546.08939,79.8188347 M563.958946,65.507248 C563.268166,63.5297189 562.236884,61.6754313 560.874863,60.0350454 C560.831602,59.9826327 560.77857,59.9401355 560.735309,59.8891393 C560.221763,59.2856813 559.67472,58.7077212 559.071856,58.1694255 C558.992313,58.0985971 558.900211,58.0433511 558.820664,57.9739391 C558.244318,57.4795571 557.649827,57.0021734 556.996727,56.5743701 C556.672968,56.360468 556.314321,56.1947297 555.975213,55.9992433 C555.542604,55.7541771 555.132323,55.485029 554.670407,55.2668776 C555.389095,54.9382339 556.071502,54.5430114 556.720415,54.0925426 C557.12651,53.8120622 557.48097,53.4834185 557.846597,53.1646906 C558.068482,52.9734539 558.307114,52.8077156 558.519236,52.5994801 C558.94626,52.1801757 559.321654,51.7183746 559.691467,51.2509073 C559.812876,51.0979177 559.952426,50.9661772 560.069649,50.806105 C560.819042,49.7833427 561.410741,48.6585879 561.907544,47.4913359 C562.023368,47.2179381 562.161524,46.9601227 562.264792,46.6782255 C562.495055,46.0563522 562.675074,45.4188967 562.83835,44.7786079 C562.866258,44.6737819 562.906731,44.5746222 562.931851,44.4683795 C563.095123,43.7827606 563.210951,43.0914754 563.300265,42.4001902 C563.310033,42.3236955 563.330966,42.2486174 563.340734,42.1707062 C563.431442,41.3901772 563.480288,40.6110648 563.480288,39.8447015 C563.480288,33.5735548 560.442255,27.5049774 555.174185,24.0103041 C555.103016,23.9649739 555.02766,23.9295597 554.956486,23.8842296 C554.455497,23.5640852 553.939159,23.2623562 553.407468,22.9832923 C553.228839,22.8912154 553.043236,22.8118875 552.861819,22.7254769 C552.41665,22.508742 551.963108,22.2976733 551.495611,22.1092698 C551.310008,22.0341917 551.121616,21.9704461 550.934614,21.8996177 C550.46991,21.7253799 549.995434,21.5582248 549.505611,21.4094852 C549.299074,21.3471562 549.089744,21.2919101 548.881813,21.2338308 C548.424084,21.1063397 547.95938,20.9859314 547.482112,20.8782722 C547.209986,20.8187763 546.937861,20.7663633 546.665736,20.7125337 C546.256853,20.6332059 545.843779,20.5552947 545.416751,20.4901326 C545.039963,20.4306367 544.660382,20.3838899 544.280806,20.3371432 C543.947275,20.2960628 543.617935,20.2535657 543.276034,20.2209846 C542.740157,20.1699882 542.204279,20.1331574 541.669796,20.1005763 C541.447911,20.0878272 541.235793,20.0694119 541.011115,20.0594959 C540.193345,20.0226651 539.376969,20 538.56478,20 L510.743808,20 C510.53867,20 510.353066,20.0849941 510.217703,20.2224012 C510.083734,20.3583917 510,20.5482119 510,20.7564473 L510,92.2449693 C510,92.4532048 510.083734,92.6430251 510.217703,92.7790157 C510.353066,92.9164224 510.53867,93 510.743808,93 L538.56478,93 C539.49698,93 540.424998,92.984418 541.347435,92.9546699 C541.406044,92.9518366 541.460471,92.9475873 541.517686,92.9461705 C542.329875,92.9178393 543.137878,92.8739256 543.9403,92.8087634 C544.173351,92.790348 544.398029,92.7606 544.628288,92.7379349 C545.22138,92.6812726 545.814472,92.6217764 546.399196,92.5381989 C546.824825,92.4787032 547.236501,92.396542 547.650969,92.3214639 C548.026363,92.2534688 548.404549,92.1953895 548.774358,92.1146452 C549.345123,91.9885704 549.900539,91.8313315 550.453163,91.6726758 C550.668074,91.6103468 550.885772,91.5621835 551.09789,91.4941883 C551.72587,91.2944523 552.334315,91.0578855 552.938573,90.8057363 C553.085102,90.7448238 553.238607,90.6980773 553.385136,90.632915 C553.978233,90.3694335 554.555973,90.062038 555.126737,89.7418936 C555.285827,89.6540663 555.450497,89.5832379 555.608192,89.4897445 C556.197098,89.1398521 556.769262,88.7375471 557.33584,88.3168263 C557.457249,88.2275825 557.585633,88.1595874 557.707047,88.0660935 C558.062901,87.7884464 558.369914,87.4838841 558.69786,87.1906546 C558.950446,86.9625873 559.22397,86.7529354 559.462602,86.5149518 C559.878464,86.0956474 560.248278,85.6494287 560.615298,85.2017932 C560.732521,85.0587199 560.86649,84.9298122 560.979526,84.7839057 C561.391201,84.2470264 561.756828,83.6860652 562.101521,83.1137717 C562.148964,83.0344443 562.207577,82.9650323 562.253631,82.884288 C562.874631,81.8190289 563.356086,80.6829413 563.757994,79.5114396 C563.847309,79.2479576 563.957552,78.9972253 564.038493,78.7280772 C564.197583,78.1926144 564.314805,77.6387367 564.434816,77.0862749 C564.475289,76.8907885 564.535296,76.705218 564.572972,76.505482 C564.697174,75.8340289 564.783696,75.1498266 564.853471,74.4571249 C564.863243,74.3607981 564.882777,74.2701375 564.891151,74.1723943 C564.963718,73.3663674 565,72.5475909 565,71.7188989 C565,70.1195933 564.804629,68.5387035 564.412488,67.0130597 C564.284104,66.5045116 564.13199,66.0030465 563.958946,65.507248" id="Fill-14" fill="#FFFFFF" fill-rule="nonzero"></path>
            <path d="M608.435699,52.682608 C608.388425,52.6996307 608.349498,52.7265837 608.300831,52.7421881 C608.093661,52.8116985 607.848953,52.8400701 607.632052,52.8982316 C606.352885,53.2472017 604.952753,53.4628257 603.376042,53.4628257 L586.018302,53.4628257 L586.018302,31.6337544 L603.175824,31.6337544 C603.192506,31.6337544 603.207804,31.6365916 603.225876,31.6365916 C604.022575,31.6394287 604.788683,31.7103576 605.529768,31.8309367 C605.606238,31.8437039 605.685491,31.8479596 605.760572,31.8621454 C606.47246,31.9898174 607.14819,32.1827439 607.798896,32.4182278 C607.892053,32.4522736 607.993552,32.4792266 608.085319,32.5161096 C608.729074,32.7671979 609.33529,33.0778663 609.910916,33.4339293 C609.976261,33.475068 610.049952,33.5119511 610.116692,33.5545084 C610.724298,33.9502915 611.294361,34.4042364 611.814367,34.91918 C611.831054,34.9362029 611.849131,34.9532259 611.867203,34.9716674 C612.346893,35.4525651 612.772352,35.9746017 613.146371,36.5292655 C613.16862,36.5633114 613.192254,36.5973572 613.215893,36.6328216 C613.574614,37.1803926 613.880503,37.7605908 614.133552,38.367742 C614.151629,38.4145551 614.173874,38.4627867 614.19334,38.5110183 C614.436663,39.1210067 614.625756,39.757948 614.757845,40.4147494 C614.766187,40.4544695 614.775917,40.4956083 614.782869,40.5367471 C614.909396,41.21199 614.977525,41.9042558 614.980308,42.6092888 C614.980308,42.6248932 614.981698,42.6376604 614.981698,42.6518461 C614.981698,44.3725807 614.717524,45.9074816 614.207244,47.2423632 C613.200596,49.8681503 611.227622,51.7151379 608.435699,52.682608 M627.870694,40.1579868 C627.806734,39.4983483 627.723312,38.8415469 627.60791,38.1932569 C627.58705,38.0797707 627.556464,37.9705403 627.534219,37.8584726 C627.416033,37.2513214 627.286727,36.6470075 627.122658,36.054042 C627.099024,35.9660902 627.065654,35.8823941 627.040625,35.7958609 C626.865436,35.1872911 626.673559,34.5872328 626.449707,33.9985232 C626.426068,33.9389429 626.398261,33.8836184 626.374626,33.8240381 C626.138255,33.2211427 625.883812,32.6267587 625.595999,32.0493976 C625.568192,31.9954917 625.537606,31.94726 625.509798,31.8947727 C625.217813,31.3216674 624.909144,30.7599106 624.565717,30.2165954 C624.512881,30.1328994 624.450315,30.0562962 624.396085,29.9726001 C624.067951,29.4718422 623.731475,28.9781773 623.358851,28.5043723 C623.222589,28.3284688 623.064086,28.1710066 622.919483,27.9993587 C622.52322,27.528391 622.106101,27.0687719 621.666733,26.6275943 C621.224586,26.1849981 620.760194,25.7608434 620.267995,25.3565488 C620.14981,25.2600855 620.01772,25.1792266 619.898145,25.0856005 C619.404557,24.6997474 618.898449,24.3238244 618.357587,23.9748543 C618.206032,23.878391 618.041967,23.7961135 617.889023,23.7024874 C617.359281,23.3804703 616.821193,23.0669646 616.248351,22.7818305 C616.096796,22.7066459 615.93412,22.6442286 615.778397,22.5718811 C615.190257,22.2952585 614.592386,22.0285659 613.959757,21.7945006 C613.80125,21.7363389 613.634401,21.6909444 613.475894,21.6356199 C612.837702,21.4129032 612.189775,21.1986981 611.507093,21.0199573 C611.313827,20.9688885 611.109436,20.9348426 610.913391,20.886611 C610.257122,20.7305675 609.593902,20.5773611 608.895922,20.4610377 C608.603941,20.4128061 608.296662,20.3872717 608.000508,20.3475515 C607.380388,20.2624368 606.768614,20.1716479 606.119297,20.1191605 C605.507523,20.0709289 604.87211,20.0609988 604.239476,20.0439759 C603.882145,20.0326273 603.541496,20 603.175824,20 L573.741085,20 C573.639586,20 573.540867,20.0212787 573.453272,20.0595803 C573.186314,20.174485 573,20.4425962 573,20.7575204 L573,92.2438983 C573,92.5574039 573.186314,92.8255152 573.453272,92.9404199 C573.540867,92.98014 573.639586,93 573.741085,93 L585.378721,93 C585.788888,93 586.119801,92.6623788 586.119801,92.2438983 L586.119801,65.4072484 L601.964785,65.4072484 L613.677502,92.5488923 C613.794298,92.8226778 614.061255,93 614.35602,93 L626.855701,93 C626.973886,93 627.080947,92.9645359 627.176883,92.9148856 C627.186618,92.9106296 627.199133,92.9120483 627.208863,92.906374 C627.428547,92.7857951 627.573146,92.5559852 627.592612,92.3020598 C627.592612,92.2949669 627.588444,92.2892927 627.588444,92.2836184 C627.595396,92.1672951 627.582881,92.049553 627.531435,91.9346483 L614.881589,63.1417803 C614.930251,63.1233385 614.976135,63.0992229 615.023409,63.0807815 C615.469729,62.9077149 615.907703,62.7247185 616.334556,62.5218616 C616.757237,62.3218425 617.167404,62.1019629 617.572008,61.8735717 C617.616503,61.8494561 617.663776,61.8281774 617.708271,61.8026431 C619.51718,60.7656626 621.121698,59.4577344 622.495413,57.9256706 C623.870516,56.3950255 625.010643,54.6416634 625.892158,52.7109796 C625.903278,52.6854449 625.915792,52.662748 625.926917,52.6386319 C626.104885,52.2456862 626.264782,51.8413915 626.421899,51.4342595 C626.46361,51.3236108 626.512273,51.2172172 626.552595,51.1051499 C626.673559,50.7746212 626.776452,50.4341626 626.883512,50.0937041 C626.944689,49.8993588 627.012818,49.7092695 627.068433,49.5120873 C627.143513,49.2482316 627.201911,48.9758648 627.268651,48.7077535 C627.338169,48.4254569 627.413254,48.1474154 627.473037,47.8608628 C627.511969,47.6778664 627.536998,47.4877771 627.571757,47.303362 C627.64128,46.9231829 627.712187,46.5472599 627.765023,46.1599884 C627.773364,46.0961522 627.776148,46.0308979 627.784489,45.9670617 C627.854007,45.429421 627.906843,44.8832686 627.942996,44.331442 C627.980534,43.7796153 628,43.2192772 628,42.6518461 C628,41.8943258 627.965241,41.1382239 627.899891,40.389215 C627.892939,40.3111932 627.876257,40.2360086 627.870694,40.1579868" id="Fill-16" fill="#FFFFFF" fill-rule="nonzero"></path>
            <path d="M799.826091,68.6507022 C799.718324,69.0762742 799.622371,69.5086885 799.490991,69.9219453 C799.307942,70.5035149 799.074702,71.0618216 798.841461,71.6187604 C798.73665,71.8732824 798.652506,72.1401206 798.537362,72.3878008 C798.228835,73.0391589 797.859783,73.6535701 797.470068,74.255666 C797.382968,74.3911374 797.318016,74.5430299 797.225018,74.6757646 C796.720154,75.4023846 796.150338,76.0852158 795.499333,76.7119426 C795.128805,77.0800423 794.734659,77.4276157 794.31837,77.7546629 C794.01427,77.9927646 793.690983,78.2089718 793.364741,78.4265473 C793.251072,78.5018091 793.14626,78.5880183 793.02964,78.6605435 C791.690723,79.5034774 790.183517,80.1698879 788.596599,80.6351436 C788.565599,80.6447226 788.537549,80.6556694 788.506549,80.6652484 C788.097642,80.7829307 787.679873,80.8732449 787.263584,80.9621913 C787.123346,80.992296 786.984583,81.0333476 786.842869,81.0607157 C786.549103,81.1168201 786.25091,81.1469248 785.955668,81.1893453 C785.688475,81.2249239 785.424234,81.2755544 785.157042,81.3015541 C785.077325,81.3083959 784.996136,81.3056592 784.913468,81.3125014 C784.442556,81.3508163 783.970172,81.3795527 783.499264,81.3795527 C783.025401,81.3795527 782.548586,81.3508163 782.071772,81.3111331 C781.99501,81.3056592 781.918249,81.3083959 781.842963,81.3015541 C781.568388,81.2755544 781.293813,81.2235555 781.019238,81.1852402 C780.731379,81.1441881 780.44352,81.1154517 780.160087,81.0607157 C780.003608,81.0319793 779.85156,80.9868221 779.696557,80.9526123 C779.295028,80.8650348 778.890549,80.7788256 778.497878,80.6652484 C778.449166,80.6529327 778.401925,80.6324069 778.354689,80.6187229 C776.786957,80.1548355 775.294517,79.4938985 773.97036,78.6605435 C773.844882,78.5825444 773.731213,78.4894935 773.610166,78.4073894 C773.292781,78.1966561 772.976872,77.9859224 772.68163,77.7546629 C772.266817,77.4276157 771.871195,77.0800423 771.502143,76.7119426 C770.851138,76.0852158 770.279846,75.4023846 769.776462,74.6771329 C769.680509,74.5389244 769.612601,74.3815584 769.522554,74.2406136 C769.135786,73.6439916 768.769689,73.0364222 768.46559,72.3905375 C768.341591,72.1291733 768.253016,71.8459144 768.142303,71.5777084 C767.91792,71.0344536 767.687631,70.493936 767.509009,69.9287871 C767.374678,69.4950044 767.272818,69.0434327 767.160624,68.5973344 C767.055817,68.1840781 766.936242,67.7762951 766.850622,67.3561965 C766.719241,66.7130486 766.621813,66.056217 766.528811,65.3966483 C766.49781,65.1694943 766.453525,64.9450766 766.424,64.7165538 C766.326571,63.9091985 766.254236,63.0922638 766.199617,62.2739612 C766.19371,62.187752 766.181901,62.0988061 766.177474,62.012597 C766.125807,61.1970306 766.094806,60.3828331 766.074139,59.5686356 C766.071188,59.45369 766.063805,59.3346394 766.060854,59.2196938 C766.047569,58.6107561 766.046089,58.010029 766.041663,57.4079331 C766.041663,57.1246742 766.035756,56.824995 766.035756,56.5499468 C766.035756,56.2680562 766.041663,55.9615349 766.041663,55.6728026 C766.046089,55.0775489 766.047569,54.4822952 766.060854,53.8788309 C766.063805,53.7310439 766.074139,53.5764151 766.07709,53.4272592 C766.097757,52.6486403 766.127282,51.8672843 766.174519,51.0872966 C766.184852,50.9258255 766.205519,50.7616173 766.215853,50.6001462 C766.268996,49.8557371 766.332473,49.1126964 766.419573,48.3764975 C766.459427,48.0426081 766.522904,47.7128237 766.573096,47.381671 C766.654289,46.8233643 766.734002,46.2664255 766.84324,45.7218024 C766.949526,45.1936004 767.094196,44.6790823 767.231483,44.1618273 C767.320054,43.8169907 767.39534,43.4625753 767.501631,43.125949 C767.703871,42.4786962 767.956299,41.8574428 768.219064,41.2402947 C768.303208,41.0418768 768.366685,40.8311433 768.458212,40.6368306 C768.780023,39.9498941 769.163836,39.3012729 769.575698,38.6690724 C769.648033,38.5609688 769.6997,38.4378129 769.773511,38.3310777 C770.27837,37.6017209 770.849662,36.9161528 771.502143,36.2880575 C771.871195,35.919958 772.266817,35.5723846 772.68163,35.2453372 C772.976872,35.0140777 773.292781,34.8033442 773.610166,34.5912423 C773.731213,34.5091383 773.844882,34.4174556 773.97036,34.3380884 C775.300419,33.5019964 776.797291,32.8396911 778.37388,32.3744353 C778.415214,32.3621197 778.453593,32.345699 778.496403,32.3347518 C778.897931,32.2184378 779.309793,32.1308602 779.7187,32.0419143 C779.866321,32.0104411 780.009515,31.9666523 780.158611,31.9392843 C780.453853,31.88318 780.753522,31.8517068 781.051715,31.8106548 C781.315956,31.773708 781.578721,31.7244457 781.841483,31.6998145 C781.946294,31.6888673 782.051105,31.6916041 782.15444,31.6833936 C782.604681,31.6491837 783.054926,31.6204473 783.499264,31.6204473 C783.942123,31.6204473 784.387937,31.6491837 784.832275,31.6833936 C784.941513,31.6916041 785.050755,31.6888673 785.158517,31.6998145 C785.413901,31.7230773 785.667808,31.7709712 785.921716,31.8065496 C786.230242,31.84897 786.538769,31.8818116 786.844344,31.9392843 C786.977201,31.9639155 787.108586,32.0035991 787.241442,32.0323355 C787.666588,32.1226499 788.091735,32.215701 788.508024,32.3347518 C788.531647,32.3415938 788.552314,32.3511725 788.575932,32.3580145 C790.170233,32.8232703 791.68482,33.493786 793.02964,34.3394568 C793.143309,34.4106136 793.243689,34.4927175 793.352931,34.5652427 C793.683601,34.785555 794.012794,35.0058673 794.319845,35.2453372 C794.734659,35.573753 795.128805,35.9213264 795.499333,36.2880575 C796.151813,36.9161528 796.72163,37.6017209 797.227969,38.3310777 C797.298824,38.4337077 797.347541,38.55139 797.416924,38.6567568 C797.833213,39.291694 798.219977,39.9471574 798.544744,40.6409358 C798.627412,40.8201961 798.686458,41.0158772 798.7647,41.1978744 C799.034843,41.8300748 799.294658,42.4691173 799.501324,43.1314226 C799.600229,43.4488913 799.671088,43.7827807 799.755232,44.1070914 C799.899902,44.6448723 800.047518,45.1799165 800.159712,45.7286446 C800.264523,46.2554782 800.341284,46.7946279 800.419522,47.3324088 C800.472665,47.682719 800.537622,48.0330291 800.581907,48.3833393 C800.667527,49.1058542 800.729528,49.8352109 800.781196,50.5659364 C800.794481,50.7410915 800.815148,50.9189833 800.826957,51.09277 C800.874193,51.8686526 800.902243,52.6459032 800.92291,53.4190491 C800.927337,53.5709412 800.93767,53.7296755 800.940626,53.8801997 C800.953911,54.4822952 800.955386,55.0775489 800.958337,55.6728026 C800.959813,55.9629032 800.964244,56.2680562 800.964244,56.5499468 C800.964244,56.824995 800.959813,57.1246742 800.959813,57.4065647 C800.955386,58.0086602 800.953911,58.6093877 800.940626,59.2196938 C800.93767,59.3360077 800.930292,59.4577951 800.927337,59.5754778 C800.905194,60.3828331 800.875669,61.1956623 800.825481,62.0071231 C800.818099,62.1056479 800.80629,62.2069095 800.798907,62.3054343 C800.744288,63.1114217 800.673429,63.9146719 800.577476,64.709712 C800.546475,64.9546555 800.499239,65.1982307 800.465287,65.4431742 C800.373761,66.0835851 800.279283,66.7239959 800.152329,67.3493543 C800.060807,67.7899787 799.936805,68.2182879 799.826091,68.6507022 M814.973426,54.0977752 C814.973426,54.0553548 814.971951,54.0143028 814.970475,53.9718823 C814.955715,53.2822089 814.932096,52.5993777 814.902571,51.9233882 C814.895189,51.7427597 814.88338,51.568973 814.874522,51.3897129 C814.849428,50.8957207 814.821378,50.403097 814.787427,49.917315 C814.765284,49.6135303 814.74019,49.3220613 814.713616,49.0278556 C814.684091,48.6898606 814.656046,48.3518662 814.620614,48.0166084 C814.58076,47.6225094 814.533519,47.2407257 814.486282,46.8630475 C814.455282,46.6263146 814.428708,46.3895817 814.394756,46.155585 C814.33423,45.7259079 814.264851,45.308546 814.193992,44.8966578 C814.161516,44.7009767 814.130515,44.5039272 814.095087,44.3096145 C814.018326,43.8977263 813.932702,43.4981536 813.845607,43.1013178 C813.801321,42.8974264 813.761463,42.6921664 813.714226,42.4910117 C813.621224,42.0941759 813.514937,41.7096557 813.410126,41.3237671 C813.020411,39.8896846 812.543597,38.4980225 811.956064,37.1515175 C811.954589,37.1487807 811.954589,37.1487807 811.953113,37.1474123 C811.454156,36.0047988 810.875481,34.8950269 810.209716,33.8139915 C810.205285,33.8085179 810.202334,33.8030442 810.197907,33.7975707 C809.558707,32.7575872 808.836842,31.7449716 808.021981,30.7610925 C808.008692,30.7460401 807.993931,30.7309877 807.980647,30.7159353 C807.19235,29.7676346 806.32582,28.8425966 805.357431,27.9435582 C805.09319,27.6999831 804.80385,27.4906181 804.532231,27.2579902 C804.077559,26.8707331 803.633221,26.4725289 803.153455,26.1140083 C802.741593,25.8061184 802.301686,25.5392806 801.873583,25.2546535 C801.498629,25.0056048 801.138435,24.7401354 800.748715,24.5088759 C800.295523,24.2379328 799.820184,24.0066733 799.353703,23.7603614 C798.958082,23.5523647 798.575745,23.3293156 798.171265,23.1391081 C797.707735,22.9215326 797.226494,22.7422723 796.75263,22.5479596 C796.315674,22.3673309 795.889052,22.1743866 795.440282,22.0129155 C794.969375,21.8446023 794.485178,21.7118676 794.005412,21.5654489 C793.533029,21.4203986 793.070974,21.2602958 792.588257,21.1357715 C792.076011,21.0030368 791.55196,20.9086172 791.03086,20.7991452 C790.56881,20.7019889 790.112663,20.5884117 789.643226,20.5090446 C788.970078,20.3968358 788.289548,20.3270475 787.607543,20.2517855 C787.276869,20.2148387 786.955058,20.1587343 786.621437,20.1313664 C785.586615,20.0451572 784.545891,20 783.499264,20 C782.454109,20 781.413385,20.0451572 780.380043,20.1313664 C780.046418,20.1587343 779.724606,20.2148387 779.392462,20.2517855 C778.711932,20.3270475 778.029922,20.3968358 777.35825,20.5090446 C776.888817,20.5884117 776.43267,20.7019889 775.970616,20.7991452 C775.449516,20.9086172 774.925465,21.0030368 774.413223,21.1357715 C773.930501,21.2602958 773.468451,21.4203986 772.996064,21.5654489 C772.516298,21.7118676 772.032101,21.8446023 771.561193,22.0129155 C771.112428,22.1743866 770.685801,22.3673309 770.24737,22.5479596 C769.773511,22.7422723 769.292265,22.9215326 768.830215,23.1391081 C768.425735,23.3293156 768.041918,23.5523647 767.647772,23.7603614 C767.181291,24.0066733 766.704477,24.2379328 766.25276,24.5088759 C765.863041,24.7401354 765.502847,25.0056048 765.127892,25.2546535 C764.699794,25.5392806 764.259883,25.8061184 763.84802,26.1140083 C763.368255,26.4725289 762.923916,26.8707331 762.469245,27.2579902 C762.197625,27.4906181 761.90681,27.6999831 761.644049,27.9435582 C760.67418,28.8425966 759.80765,29.7676346 759.017878,30.7159353 C759.006069,30.7309877 758.991308,30.7460401 758.978024,30.7610925 C758.163158,31.7449716 757.441293,32.7575872 756.800617,33.7962023 C756.797666,33.8030442 756.794715,33.8085179 756.790284,33.8139915 C756.124519,34.8950269 755.545844,36.0047988 755.046887,37.1460439 C755.045411,37.1487807 755.043936,37.1487807 755.043936,37.1515175 C754.456408,38.4980225 753.979593,39.8896846 753.589874,41.3223987 C753.483587,41.7082873 753.378776,42.0941759 753.285774,42.4910117 C753.237062,42.6921664 753.197203,42.8974264 753.152918,43.0999494 C753.065823,43.4981536 752.981679,43.8977263 752.903437,44.3096145 C752.86801,44.5025588 752.838484,44.6982399 752.804533,44.8925526 C752.735149,45.3058092 752.66577,45.7245395 752.605244,46.155585 C752.571292,46.39095 752.543243,46.6304197 752.512242,46.8685214 C752.466481,47.2434629 752.419244,47.6225094 752.37791,48.0125033 C752.343958,48.3491294 752.314433,48.691229 752.284908,49.0319607 C752.259814,49.3234297 752.234716,49.6148987 752.212573,49.917315 C752.177146,50.403097 752.149096,50.8943519 752.124003,51.3897129 C752.115145,51.5676047 752.104811,51.7427597 752.095953,51.924757 C752.064952,52.5993777 752.044285,53.2822089 752.028049,53.9718823 C752.028049,54.0143028 752.026574,54.0553548 752.025098,54.0977752 C752.008858,54.9064989 752,55.7206969 752,56.5499468 C752,60.9726134 752.209622,65.0696011 752.928535,68.8764878 C752.944771,68.962697 752.965438,69.0461694 752.981679,69.1310103 C753.082059,69.6455286 753.188345,70.1573099 753.309397,70.6608809 C753.36106,70.8770881 753.421586,71.0891897 753.47768,71.3026601 C753.573633,71.6707593 753.66516,72.038859 753.774398,72.3987481 C753.870351,72.728532 753.981069,73.0501062 754.088831,73.3730484 C754.168544,73.6152552 754.243834,73.8601982 754.330929,74.0996683 C754.480026,74.5183986 754.648314,74.9261815 754.818078,75.3353328 C754.877123,75.4776464 754.928791,75.6240651 754.990792,75.7650104 C755.194508,76.2343712 755.415939,76.6955218 755.644753,77.1539358 C755.687563,77.2360395 755.724466,77.3222486 755.7658,77.4043527 C756.013801,77.8846609 756.282473,78.3581272 756.559999,78.8261196 C756.598378,78.8876975 756.630854,78.9520125 756.669237,79.0149587 C756.945287,79.4692676 757.242005,79.9167338 757.550531,80.3614637 C757.603675,80.4380939 757.652391,80.516093 757.705534,80.5927232 C757.988963,80.992296 758.296014,81.3850266 758.607496,81.7750204 C758.701973,81.8940711 758.786113,82.0158584 758.883546,82.1335407 C759.133023,82.435957 759.404646,82.7315316 759.671838,83.028474 C759.851936,83.2296288 760.018748,83.4335202 760.207699,83.6319383 C760.306607,83.7359366 760.418797,83.8385665 760.520656,83.9411964 C760.883802,84.3147695 761.248423,84.6883426 761.644049,85.0537052 C761.899432,85.2918064 762.181385,85.4943296 762.447102,85.721484 C762.907681,86.1155829 763.359397,86.5206292 763.84802,86.8846233 C764.256931,87.1897764 764.693887,87.4566145 765.119034,87.7385046 C765.496944,87.9902903 765.86009,88.257128 766.25276,88.4911242 C766.704477,88.7606991 767.176864,88.9905902 767.64187,89.2355337 C768.038967,89.4448986 768.42278,89.6679476 768.830215,89.8608922 C769.292265,90.0770993 769.773511,90.2577278 770.24737,90.4520403 C770.685801,90.6313009 771.112428,90.8269818 771.561193,90.9870845 C772.027674,91.1540295 772.508915,91.2853958 772.984254,91.4318144 C773.461069,91.5782331 773.92755,91.7397042 774.414698,91.8642287 C774.919558,91.995595 775.436231,92.0872776 775.946997,92.1967498 C776.419385,92.2952746 776.881435,92.4102202 777.361201,92.4909555 C778.021064,92.601796 778.688309,92.6702161 779.355554,92.7427413 C779.699513,92.7810562 780.034609,92.8398973 780.381518,92.8686337 C781.41486,92.9548429 782.455584,93 783.499264,93 C784.544416,93 785.586615,92.9548429 786.619962,92.8686337 C786.966867,92.8398973 787.301967,92.7810562 787.645921,92.7427413 C788.313167,92.6702161 788.980412,92.601796 789.640275,92.4909555 C790.120041,92.4102202 790.582095,92.2952746 791.054478,92.1967498 C791.565245,92.0872776 792.081918,91.995595 792.586782,91.8642287 C793.073926,91.7397042 793.540407,91.5782331 794.015746,91.4318144 C794.49256,91.2853958 794.973801,91.1540295 795.440282,90.9870845 C795.889052,90.8269818 796.315674,90.6313009 796.75263,90.4520403 C797.227969,90.2577278 797.707735,90.0770993 798.171265,89.8608922 C798.578696,89.6679476 798.962508,89.4448986 799.35961,89.2355337 C799.824611,88.9905902 800.296999,88.7606991 800.748715,88.4911242 C801.13991,88.257128 801.504536,87.9902903 801.882441,87.7385046 C802.307588,87.4566145 802.744544,87.1897764 803.153455,86.8846233 C803.642079,86.5206292 804.0938,86.1155829 804.554374,85.721484 C804.820091,85.4943296 805.100568,85.2918064 805.357431,85.0537052 C805.739768,84.6992895 806.09258,84.3380325 806.445392,83.976775 C806.559061,83.8604611 806.684539,83.7482522 806.795252,83.6305699 C806.981256,83.4335202 807.148064,83.2309971 807.326686,83.0312107 C807.593878,82.7342683 807.865502,82.4373254 808.114978,82.1349091 C808.215363,82.0131217 808.302458,81.8885972 808.399887,81.7668098 C808.708413,81.3781843 809.013988,80.9895589 809.29447,80.5927232 C809.346133,80.5188297 809.390423,80.4449362 809.442086,80.3710427 C809.753569,79.923576 810.053237,79.4720043 810.332239,79.012222 C810.367671,78.9561176 810.397191,78.8959081 810.432623,78.8384353 C810.7131,78.3663373 810.984724,77.8887659 811.2342,77.4029844 C811.275534,77.3222486 811.310962,77.240145 811.352296,77.1594092 C811.582585,76.6996269 811.805492,76.2357395 812.009208,75.7650104 C812.069733,75.6240651 812.121401,75.4817515 812.180447,75.3408067 C812.35021,74.9302866 812.518498,74.5183986 812.669071,74.0996683 C812.75469,73.8615671 812.829981,73.6166235 812.909693,73.3771534 C813.017456,73.0514746 813.128174,72.728532 813.225602,72.3987481 C813.331889,72.0402274 813.424891,71.6734965 813.519369,71.3095019 C813.575463,71.0919264 813.637464,70.8784564 813.690608,70.6595126 C813.811655,70.1545731 813.917941,69.6414231 814.018326,69.1255368 C814.034562,69.0420644 814.055229,68.9613286 814.069989,68.8778566 C814.790378,65.0696011 815,60.9726134 815,56.5499468 C815,55.7206969 814.989666,54.9064989 814.973426,54.0977752" id="Fill-18" fill="#FFFFFF" fill-rule="nonzero"></path>
            <path d="M479.747709,67.0542169 L464.179094,67.0542169 L474.249912,36.2696658 L478.755604,50.0341235 L484.324855,67.0542169 L479.747709,67.0542169 Z M505.950532,91.7786049 L481.704435,20.5050136 C481.60138,20.2028566 481.323809,20 481.01326,20 L467.989486,20 C467.678937,20 467.401371,20.2028566 467.296938,20.5050136 L443.071454,91.7232803 C443.070079,91.724699 443.070079,91.7261177 443.068705,91.7275359 L443.054964,91.7686746 C443.019238,91.8665566 443,91.9715315 443,92.0821807 C443,92.5886129 443.398491,93 443.889046,93 C443.890421,93 443.890421,93 443.891794,93 L455.075643,93 C455.388938,93 455.669255,92.792888 455.769564,92.4864749 L460.188689,78.9972213 L488.313887,78.9972213 L492.734385,92.4864749 C492.834694,92.792888 493.115011,93 493.428306,93 L505.105457,93 L505.105457,92.9985818 C505.10683,92.9985818 505.109581,93 505.110954,93 C505.601507,93 506,92.5886129 506,92.0821807 C506,91.9757871 505.983511,91.8736495 505.950532,91.7786049 Z" id="Fill-20" fill="#FFFFFF" fill-rule="nonzero"></path>
            <path d="M670.748281,67.0542169 L655.178629,67.0542169 L665.24923,36.2696658 L669.754824,50.0341235 L675.323956,67.0542169 L670.748281,67.0542169 Z M696.949159,91.7786049 L672.704967,20.5050136 C672.601911,20.2028566 672.322972,20 672.012432,20 L658.988941,20 C658.678401,20 658.402209,20.2028566 658.29778,20.5050136 L634.07145,91.7232803 C634.07145,91.724699 634.070077,91.7261177 634.070077,91.7275359 L634.054961,91.7686746 C634.020609,91.8665566 634,91.9715315 634,92.0821807 C634,92.5886129 634.39848,93 634.889023,93 C634.890397,93 634.891775,93 634.893148,93 L646.075377,93 C646.388664,93 646.668977,92.792888 646.769285,92.4864749 L651.189686,78.9972213 L679.314272,78.9972213 L683.7333,92.4864749 C683.833608,92.792888 684.113917,93 684.428581,93 L696.104105,93 L696.104105,92.9985818 C696.106852,92.9985818 696.108225,93 696.110972,93 C696.60152,93 697,92.5886129 697,92.0821807 C697,91.9757871 696.982137,91.8736495 696.949159,91.7786049 Z" id="Fill-22" fill="#FFFFFF" fill-rule="nonzero"></path>
            <path d="M750.592569,20.085113 C750.573876,20.0766017 750.553746,20.0780202 750.533617,20.0709275 C750.443033,20.0340452 750.349573,20 750.243171,20 L738.296059,20 C737.961039,20 737.666282,20.214201 737.564195,20.5291191 L719.888682,75.6993647 L711.882721,50.8562989 L702.142714,20.6298362 C702.020493,20.2638503 701.672535,20.0028371 701.259873,20.0014186 L701.259873,20 L688.931731,20 L688.931731,20.0014186 C688.930291,20.0014186 688.930291,20 688.928855,20 C688.415542,20 688,20.4113795 688,20.9178019 C688,21.0185189 688.015818,21.1149803 688.046014,21.2043489 L711.990558,92.480811 C712.095525,92.7900547 712.388847,93 712.719552,93 L726.430905,93 C726.76305,93 727.056372,92.7900547 727.159898,92.4793923 L750.972164,20.992985 C751.003796,20.8951051 751.002356,20.7972251 750.993729,20.7021822 C750.992294,20.680904 751.002356,20.6596258 751,20.6397661 C750.960662,20.4014496 750.808245,20.1957599 750.592569,20.085113" id="Fill-24" fill="#FFFFFF" fill-rule="nonzero"></path>
        </g>
        <g id="Thoma-Bravo-IPOs" transform="translate(119.000000, 582.000000)" fill="#FFFFFF" font-family="Arial-BoldMT, Arial" font-size="375" font-weight="bold" letter-spacing="2.34375">
            <text id="IPOs">
                <tspan x="0" y="339">IPOs</tspan>
            </text>
        </g>
    </g>
</svg>