<?xml version="1.0" encoding="UTF-8"?>
<svg width="181px" height="26px" viewBox="0 0 181 26" version="1.1" xmlns="http://www.w3.org/2000/svg" xmlns:xlink="http://www.w3.org/1999/xlink">
    <!-- Generator: Sketch 50.2 (55047) - http://www.bohemiancoding.com/sketch -->
    <title>Logo</title>
    <desc>Created with Sketch.</desc>
    <defs>
        <polygon id="path-1" points="0 0 13.0843373 0 13.0843373 26 0 26"></polygon>
    </defs>
    <g id="Page-1" stroke="none" stroke-width="1" fill="none" fill-rule="evenodd">
        <g id="Homepage-(1024)" transform="translate(-32.000000, -44.000000)">
            <g id="Top-Navigation" transform="translate(32.000000, 31.000000)">
                <g id="Logo" transform="translate(0.000000, 13.000000)">
                    <path d="M24.2189352,26 L15.3889287,26 C15.3205092,26 15.2650602,25.9459006 15.2650602,25.8791463 L15.2650602,0.120853715 C15.2650602,0.0540994378 15.3205092,0 15.3889287,0 L28.2252049,0 C28.2936243,0 28.3493976,0.0540994378 28.3493976,0.120853715 L28.3493976,21.9700664 C28.3493976,24.1957363 26.5001256,26 24.2189352,26" id="Fill-1" fill="#FFFFFF"></path>
                    <g id="Group-5">
                        <mask id="mask-2" fill="white">
                            <use xlink:href="#path-1"></use>
                        </mask>
                        <g id="Clip-4"></g>
                        <path d="M4.13024052,0 L12.9604658,0 C13.028887,0 13.0843373,0.0540994378 13.0843373,0.120853715 L13.0843373,25.8788299 C13.0843373,25.9455842 13.028887,26 12.9604658,26 L0.123871546,26 C0.0554503516,26 0,25.9455842 0,25.8788299 L0,4.02961719 C0,1.80426371 1.8489936,0 4.13024052,0" id="Fill-3" fill="#FFFFFF" mask="url(#mask-2)"></path>
                    </g>
                    <path d="M47.8154702,4.33333333 L36.1423611,4.33333333 C36.0538669,4.33333333 35.9819277,4.40880457 35.9819277,4.50195945 L35.9819277,6.91546023 C35.9819277,7.00861511 36.0538669,7.08377057 36.1423611,7.08377057 L40.5697808,7.08377057 L40.5697808,20.415023 C40.5697808,20.5081779 40.6417199,20.5833333 40.7302142,20.5833333 L43.2276172,20.5833333 C43.3164124,20.5833333 43.3880506,20.5081779 43.3880506,20.415023 L43.3880506,7.08377057 L47.8154702,7.08377057 C47.9039644,7.08377057 47.9759036,7.00861511 47.9759036,6.91546023 L47.9759036,4.50195945 C47.9759036,4.40880457 47.9039644,4.33333333 47.8154702,4.33333333" id="Fill-6" fill="#FFFFFF"></path>
                    <path d="M62.0524762,4.34659606 C62.0332121,4.33807002 62.0121421,4.33333333 61.989868,4.33333333 L59.492766,4.33333333 C59.4485189,4.33333333 59.4081848,4.35228009 59.3792887,4.3825949 C59.3500917,4.41322548 59.3323326,4.45522412 59.3323326,4.50195945 L59.3323326,10.6823909 L52.9748963,10.6823909 L52.9748963,4.50195945 C52.9748963,4.45522412 52.9568363,4.41322548 52.9279402,4.3825949 C52.8987431,4.35228009 52.85871,4.33333333 52.8144629,4.33333333 L50.3170599,4.33333333 C50.2728128,4.33333333 50.2324787,4.35228009 50.2035826,4.3825949 C50.1746865,4.41322548 50.1566265,4.45522412 50.1566265,4.50195945 L50.1566265,20.415023 C50.1566265,20.4614425 50.1746865,20.503757 50.2035826,20.5340718 C50.2324787,20.5647024 50.2728128,20.5833333 50.3170599,20.5833333 L52.8144629,20.5833333 C52.85871,20.5833333 52.8987431,20.5647024 52.9279402,20.5340718 C52.9568363,20.503757 52.9748963,20.4614425 52.9748963,20.415023 L52.9748963,13.5013522 L59.3323326,13.5013522 L59.3323326,20.415023 C59.3323326,20.4614425 59.3500917,20.503757 59.3792887,20.5340718 C59.4081848,20.5647024 59.4485189,20.5833333 59.492766,20.5833333 L61.989868,20.5833333 C62.0121421,20.5833333 62.0332121,20.5789124 62.0524762,20.5700706 C62.1099673,20.5444925 62.1506024,20.4848102 62.1506024,20.415023 L62.1506024,4.50195945 C62.1506024,4.43217224 62.1099673,4.37217418 62.0524762,4.34659606" id="Fill-8" fill="#FFFFFF"></path>
                    <path d="M75.0930431,15.1582391 C75.0684653,15.2548003 75.0465447,15.35258 75.0166529,15.4467043 C74.9754686,15.5746402 74.9236561,15.6977025 74.8718436,15.8204601 C74.847598,15.8783359 74.8283344,15.9389531 74.8017639,15.9953059 C74.7326806,16.1396908 74.6499799,16.2761558 74.5622973,16.4095747 C74.5423694,16.4403403 74.5277556,16.4744565 74.5064992,16.5043083 C74.4497048,16.5850298 74.3892569,16.6633144 74.3248234,16.7391622 C74.2603899,16.8147053 74.1916388,16.887507 74.1185699,16.9572625 C74.0352049,17.0392025 73.9461937,17.1165733 73.8525327,17.1896795 C73.7844458,17.242377 73.7113769,17.2908099 73.6379759,17.3392428 C73.6124018,17.3559963 73.5888205,17.3748821 73.5629142,17.391331 C73.2616712,17.5786658 72.922233,17.7273152 72.5651919,17.8308824 C72.5582171,17.8327101 72.5519066,17.8354515 72.5449319,17.8372792 C72.4532636,17.8634756 72.3592705,17.8835798 72.2652773,17.9036841 C72.2337249,17.9103855 72.2025045,17.9195237 72.170952,17.9253113 C72.1045258,17.9378003 72.0374353,17.9448063 71.971009,17.9539446 C71.9108933,17.9621691 71.8514418,17.9734396 71.7916581,17.9789226 C71.7733909,17.9807502 71.7551237,17.980141 71.7371886,17.9816641 C71.6305745,17.9898885 71.5242924,17.9965899 71.4186747,17.9965899 C71.3133891,17.9965899 71.2074392,17.9898885 71.1011572,17.9816641 C71.08289,17.980141 71.0642906,17.9807502 71.0456913,17.9789226 C70.9862398,17.9734396 70.9271204,17.9624737 70.8676689,17.9542492 C70.8005784,17.9448063 70.7331557,17.9378003 70.6663973,17.9253113 C70.635177,17.9195237 70.6042888,17.9103855 70.5734006,17.9039887 C70.4787432,17.8838844 70.38475,17.8637802 70.2920854,17.8372792 C70.286107,17.8357561 70.2801287,17.8333193 70.2738182,17.8314916 C69.9161128,17.7279244 69.5760104,17.5789704 69.2744352,17.391331 C69.251186,17.3767097 69.2302617,17.3599562 69.2076768,17.3447257 C69.1312866,17.2947698 69.0552285,17.2445092 68.9844845,17.1893749 C68.8911557,17.1165733 68.8021445,17.0392025 68.7187795,16.9572625 C68.5726418,16.8177514 68.4441069,16.6657513 68.3308502,16.5043083 C68.3092616,16.4741519 68.2946479,16.4397311 68.2743879,16.4086609 C68.1873695,16.275242 68.1043366,16.1393862 68.0355855,15.9953059 C68.0086828,15.9386485 67.9894192,15.8777266 67.9651736,15.8195462 C67.9136933,15.6970932 67.8615487,15.5746402 67.8206965,15.4467043 C67.7908047,15.35258 67.7688841,15.2541911 67.7439742,15.1573253 C67.7193965,15.0628964 67.6921617,14.9696859 67.6722339,14.8740385 C67.6433384,14.7330044 67.6214178,14.5883149 67.6008256,14.4436254 C67.5935187,14.3912326 67.5828905,14.3391443 67.57658,14.2864469 C67.5546594,14.1082504 67.5387171,13.9279216 67.5260961,13.7472882 C67.5247676,13.7265748 67.5221105,13.7052521 67.520782,13.6845386 C67.5094895,13.5036006 67.5025148,13.3226626 67.4975328,13.1420292 C67.4972007,13.1161374 67.49554,13.0893318 67.4948757,13.0637446 C67.4918866,12.9278888 67.4912223,12.7941652 67.490558,12.6601371 C67.4902259,12.5970829 67.4892295,12.5306781 67.4892295,12.469147 C67.4892295,12.406702 67.4902259,12.3384695 67.490558,12.2741969 C67.4915544,12.1413872 67.4918866,12.0091867 67.4948757,11.8748539 C67.49554,11.8416515 67.4975328,11.806926 67.4985292,11.7731144 C67.503179,11.6004008 67.5094895,11.4270781 67.5204499,11.2540599 C67.5227748,11.2165929 67.5274246,11.1788214 67.5300817,11.1410498 C67.5420384,10.9768653 67.5559879,10.8129854 67.5755837,10.6506286 C67.5848833,10.5744762 67.5994971,10.4989331 67.6107896,10.4230853 C67.6290568,10.3012416 67.6466597,10.1787886 67.6705732,10.0596863 C67.6951509,9.93997476 67.7280319,9.82330934 67.7595844,9.7060347 C67.7791801,9.63110078 67.7957867,9.55464381 67.8187037,9.48184215 C67.86487,9.33593423 67.9223287,9.19550928 67.9824445,9.05630276 C68.0007117,9.01396205 68.0143291,8.96918446 68.0339248,8.92745297 C68.1063294,8.77423441 68.1933478,8.62893571 68.2863446,8.48820615 C68.3022869,8.464142 68.3135794,8.43733637 68.3301859,8.41388144 C68.4437748,8.25152461 68.5723096,8.09891528 68.7187795,7.95909954 C68.8021445,7.8771596 68.8911557,7.7997888 68.9844845,7.72698715 C69.0552285,7.67215745 69.1312866,7.62159228 69.2076768,7.57163633 C69.2302617,7.55671047 69.251186,7.53965234 69.2744352,7.52503109 C69.5773389,7.33647784 69.9187698,7.18721921 70.2781359,7.083652 C70.2831179,7.08212895 70.2874356,7.0803013 70.2917533,7.07908286 C70.3860785,7.05227723 70.4823966,7.03156379 70.5783826,7.01115495 C70.6079422,7.00506277 70.6368377,6.9965337 70.6660652,6.99105073 C70.7351485,6.97795252 70.8052282,6.9706419 70.8749758,6.96119901 C70.9321024,6.95358377 70.9885647,6.94292244 71.0453591,6.93743947 C71.070269,6.9353072 71.0951788,6.93591642 71.1200887,6.93378416 C71.2197281,6.92647353 71.3196996,6.92007673 71.4186747,6.92007673 C71.517982,6.92007673 71.6182856,6.92647353 71.7182571,6.93378416 C71.7428348,6.93591642 71.7674125,6.9353072 71.7919903,6.93743947 C71.8491168,6.94292244 71.9062434,6.95358377 71.9637021,6.96150361 C72.0327854,6.97094651 72.102533,6.97825713 72.1712842,6.99105073 C72.201176,6.9965337 72.2304035,7.00536737 72.2602954,7.01145956 C72.3559492,7.0318684 72.451603,7.05258184 72.545264,7.07908286 C72.5505781,7.08060591 72.5555601,7.08273817 72.560542,7.08426122 C72.919576,7.18752382 73.2603426,7.33678245 73.5629142,7.52503109 C73.5878241,7.54087078 73.6107412,7.55914734 73.635651,7.57559625 C73.7097163,7.62463837 73.7837815,7.67337588 73.8528649,7.72698715 C73.9461937,7.7997888 74.0352049,7.8771596 74.1185699,7.95909954 C74.2650398,8.09891528 74.3935746,8.25152461 74.5071635,8.41388144 C74.52377,8.43733637 74.5350625,8.464142 74.5510048,8.48820615 C74.6440016,8.62893571 74.7306878,8.77423441 74.8034246,8.92745297 C74.8230203,8.96887985 74.8363056,9.01365744 74.8545728,9.05569354 C74.9146886,9.19520467 74.9724794,9.33562962 75.0186456,9.48184215 C75.0415627,9.55464381 75.057505,9.63049156 75.0774329,9.70451166 C75.1089854,9.82239551 75.1421985,9.93967015 75.1667762,10.0596863 C75.1906897,10.1787886 75.2082926,10.3012416 75.2265598,10.4230853 C75.2381844,10.4989331 75.2521339,10.5744762 75.2617657,10.6506286 C75.2813615,10.8129854 75.295311,10.9768653 75.3072677,11.1410498 C75.3099248,11.1788214 75.3145746,11.2165929 75.3168995,11.2540599 C75.3278599,11.4270781 75.3341704,11.6004008 75.3388202,11.7731144 C75.3398166,11.806926 75.3418094,11.8416515 75.3424736,11.8748539 C75.3454628,12.0091867 75.345795,12.1413872 75.3464592,12.2741969 C75.3467914,12.3384695 75.3481199,12.406702 75.3481199,12.469147 C75.3481199,12.5306781 75.3467914,12.5970829 75.3467914,12.6601371 C75.345795,12.7941652 75.3454628,12.9278888 75.3424736,13.0637446 C75.3418094,13.0893318 75.3401487,13.1161374 75.3394845,13.1420292 C75.3348346,13.3226626 75.328192,13.5036006 75.3162353,13.6845386 C75.3149068,13.7052521 75.3125818,13.7265748 75.3109212,13.7472882 C75.2986323,13.9279216 75.28269,14.1082504 75.2607694,14.2864469 C75.2541267,14.3391443 75.2438307,14.3912326 75.2361916,14.4436254 C75.2155995,14.5883149 75.194011,14.7330044 75.1651155,14.8740385 C75.1451877,14.9702951 75.1176208,15.0635056 75.0930431,15.1582391 M78.4993815,11.895872 C78.4960602,11.7420442 78.4907461,11.5900441 78.4841034,11.4398717 C78.4824428,11.399054 78.4797857,11.360064 78.4777929,11.3201601 C78.4721467,11.2101961 78.4658362,11.1008413 78.4578651,10.992705 C78.4532152,10.9253863 78.4472369,10.8608091 78.4419228,10.7956227 C78.4352801,10.7200795 78.4283054,10.6442318 78.4206664,10.5696025 C78.4113667,10.4815703 78.4007385,10.3965843 78.3901103,10.3119029 C78.3834677,10.2598147 78.3771572,10.2077265 78.3698503,10.1562475 C78.3562329,10.0596863 78.3406227,9.96586656 78.3243483,9.87296068 C78.3170414,9.83031536 78.3103988,9.78736543 78.3024276,9.74502471 C78.2851568,9.65272805 78.265561,9.56286827 78.2459653,9.4736177 C78.2360014,9.42914472 78.227366,9.38436713 78.2167378,9.34019876 C78.1954813,9.2512528 78.1719,9.16474372 78.1479866,9.07853925 C78.0603039,8.76022238 77.9530255,8.45073919 77.8208373,8.1513081 C77.8208373,8.15100349 77.8205051,8.15039427 77.820173,8.14978506 C77.7082448,7.89604539 77.5777172,7.64870252 77.4282581,7.40836567 C77.4272617,7.40684262 77.4262653,7.40562418 77.425601,7.40440575 C77.2814561,7.17320718 77.1190439,6.94779619 76.9357074,6.728782 C76.9330504,6.72512669 76.929729,6.72208059 76.9267399,6.71842528 C76.7493818,6.50763554 76.5544207,6.30141495 76.3365426,6.10159115 C76.2770911,6.04706606 76.2116612,6.00076543 76.1502169,5.94867721 C76.0482526,5.86247274 75.9482811,5.77383139 75.8403384,5.69432833 C75.7470095,5.62548659 75.6477023,5.56547853 75.55072,5.50181516 C75.4670229,5.44698546 75.386315,5.38819584 75.2996287,5.33702145 C75.1970001,5.27640417 75.0893896,5.22431596 74.9834397,5.16948626 C74.8954249,5.12379484 74.8100672,5.07444811 74.7193954,5.0321074 C74.6144419,4.98336989 74.5055028,4.94285683 74.3978923,4.89929768 C74.3005778,4.85969845 74.2052561,4.81674852 74.1052846,4.78141383 C73.9983384,4.74364225 73.8880708,4.71379053 73.7791317,4.68089271 C73.6741782,4.64890872 73.5708854,4.61357402 73.463607,4.58615917 C73.347361,4.55630745 73.2281259,4.53498479 73.1102193,4.51061603 C73.0069265,4.48929337 72.9056264,4.46401078 72.800673,4.44664805 C72.648889,4.42136546 72.4951122,4.40583038 72.3413354,4.38907686 C72.2676023,4.38115702 72.1955298,4.36866803 72.1208002,4.36257584 C71.8883083,4.34338544 71.6541558,4.33333333 71.4186747,4.33333333 C71.1835258,4.33333333 70.9493732,4.34338544 70.7165492,4.36257584 C70.6421518,4.36866803 70.5704114,4.38115702 70.4970104,4.38907686 C70.3429015,4.40583038 70.1887926,4.42136546 70.0366764,4.44664805 C69.9320551,4.46401078 69.8310872,4.48898876 69.7281265,4.51031142 C69.6098877,4.53498479 69.4903205,4.55630745 69.3737424,4.58615917 C69.2667961,4.61357402 69.1638354,4.64860411 69.0592141,4.68028349 C68.9499429,4.71348592 68.839011,4.74333764 68.7320648,4.78141383 C68.6327575,4.81674852 68.5381001,4.85939384 68.4411178,4.89838385 C68.332843,4.94224761 68.2232396,4.98306528 68.1176219,5.0321074 C68.0276143,5.0741435 67.9429208,5.12318562 67.8552382,5.16857243 C67.7489562,5.22370674 67.6410135,5.27609956 67.5377207,5.33702145 C67.4513666,5.38789123 67.3709908,5.44637624 67.2876258,5.50090133 C67.1903114,5.56486931 67.090672,5.62518198 66.997011,5.69432833 C66.8900647,5.77322217 66.7910896,5.86094969 66.6897895,5.94624034 C66.627681,5.99924238 66.5612547,6.04615224 66.5008068,6.10159115 C66.2829287,6.30141495 66.0879676,6.50763554 65.9106095,6.71842528 C65.9076204,6.72208059 65.904299,6.72512669 65.901642,6.728782 C65.7179734,6.94779619 65.5558933,7.17320718 65.4117484,7.40440575 C65.4110841,7.40562418 65.4100877,7.40684262 65.4090913,7.40836567 C65.2596322,7.64870252 65.1291046,7.89604539 65.0171764,8.14978506 C65.0168443,8.15039427 65.0165121,8.15100349 65.01618,8.1513081 C64.9500859,8.30087134 64.8903022,8.45317606 64.8361648,8.60791766 C64.7820274,8.76235465 64.7332042,8.91922851 64.6893628,9.07853925 C64.6654494,9.16474372 64.641868,9.2512528 64.6202795,9.34019876 C64.6099834,9.38436713 64.6010159,9.42914472 64.5913841,9.4736177 C64.5714562,9.56286827 64.5521926,9.65272805 64.5345896,9.74502471 C64.5269506,9.78736543 64.520308,9.83031536 64.5130011,9.87296068 C64.4967267,9.96586656 64.4811165,10.0596863 64.4674991,10.1562475 C64.4598601,10.2077265 64.4538817,10.2598147 64.4472391,10.3119029 C64.4362788,10.3965843 64.4256506,10.4815703 64.4163509,10.5696025 C64.4087119,10.6442318 64.4024014,10.7200795 64.3957588,10.7956227 C64.3897804,10.8608091 64.3841342,10.9253863 64.3791522,10.992705 C64.3711811,11.1008413 64.3652027,11.2101961 64.3595565,11.3201601 C64.3572315,11.360064 64.3549066,11.399054 64.353246,11.4398717 C64.3462712,11.5900441 64.3412892,11.7420442 64.3379679,11.895872 C64.3376358,11.9053149 64.3373037,11.9141486 64.3373037,11.9235915 C64.3333181,12.103311 64.3313253,12.2845536 64.3313253,12.469147 C64.3313253,13.4530355 64.3784879,14.3647315 64.5402359,15.2115458 C64.5445536,15.2340869 64.5495356,15.2557142 64.5541854,15.2779507 C64.5761061,15.3894377 64.5993552,15.5003155 64.6255936,15.6093657 C64.6378825,15.6596263 64.6521641,15.708973 64.6654494,15.758929 C64.6863736,15.838432 64.7069658,15.9182397 64.730215,15.9965243 C64.7527999,16.0720675 64.778374,16.1454783 64.8032839,16.2194984 C64.8205547,16.271282 64.8368291,16.3236749 64.8554285,16.3751539 C64.8903022,16.4704966 64.9284973,16.5640117 64.9676888,16.6572222 C64.9799777,16.6867693 64.990938,16.7166211 65.0038911,16.7458636 C65.0503895,16.8521723 65.1012056,16.9566533 65.1540145,17.0605251 C65.1626499,17.0772786 65.1699568,17.0943368 65.1785922,17.1110903 C65.2350545,17.2195312 65.2958345,17.3258399 65.3596037,17.4315394 C65.3672428,17.4440284 65.3738854,17.4571266 65.3815244,17.4696156 C65.4446294,17.572269 65.5123841,17.6733993 65.5831281,17.7736158 C65.5940884,17.7891509 65.6037202,17.8052952 65.6146806,17.8208303 C65.6787819,17.9100809 65.7478652,17.9975038 65.818277,18.0846221 C65.8392013,18.1111231 65.8584649,18.1382333 65.8800535,18.1644297 C65.9368479,18.232053 65.9982922,18.2987625 66.0590722,18.3651674 C66.0985958,18.4093357 66.1357945,18.4541133 66.1776431,18.4976725 C66.2025529,18.5238689 66.2307841,18.5491515 66.2566903,18.5750433 C66.3360697,18.6551556 66.415117,18.7358771 66.5008068,18.8141617 C66.5595941,18.8680776 66.6240275,18.9140736 66.6848076,18.9655526 C66.7874361,19.0523663 66.8880719,19.1413122 66.9966788,19.2217291 C67.0896756,19.2905709 67.1889828,19.3502743 67.285633,19.4139377 C67.3699944,19.469072 67.4507023,19.5278616 67.5377207,19.5796452 C67.6403493,19.6399579 67.7476277,19.6917415 67.8532454,19.7465712 C67.9412602,19.7925672 68.0269501,19.8419139 68.1176219,19.8842547 C68.2229075,19.9329922 68.3321787,19.9738098 68.4401214,20.017369 C68.5374358,20.0569682 68.6320933,20.0996135 68.7320648,20.1349482 C68.8383468,20.1727198 68.9482822,20.2025715 69.0568892,20.2351647 C69.1625069,20.2671487 69.2661319,20.302788 69.3740745,20.3302029 C69.488992,20.35975 69.6065664,20.3807681 69.7234766,20.4051368 C69.8277659,20.4267641 69.9307266,20.4523513 70.0370086,20.469714 C70.1864676,20.494692 70.3379195,20.5099225 70.4890392,20.526676 C70.5654294,20.5349004 70.6398268,20.547694 70.7168813,20.5540908 C70.9493732,20.5729766 71.1835258,20.5833333 71.4186747,20.5833333 C71.6538236,20.5833333 71.8879762,20.5729766 72.1204681,20.5540908 C72.1978547,20.547694 72.2725842,20.5345958 72.3489744,20.5263714 C72.5000941,20.5099225 72.6512139,20.494692 72.8003408,20.469714 C72.9066228,20.4523513 73.0099157,20.4267641 73.114537,20.4048322 C73.2311151,20.3807681 73.3486896,20.35975 73.4632749,20.3302029 C73.5715497,20.302788 73.6755068,20.2671487 73.7814566,20.2351647 C73.8897314,20.2022669 73.9990026,20.1727198 74.1049525,20.1349482 C74.2055883,20.0996135 74.30091,20.056359 74.3985565,20.0167598 C74.505835,19.9732006 74.614774,19.9329922 74.7193954,19.8842547 C74.8103993,19.8419139 74.8964213,19.7922626 74.9847683,19.7462666 C75.090386,19.6914369 75.1973323,19.6396533 75.2992966,19.5796452 C75.3866471,19.5278616 75.467355,19.469072 75.5517164,19.4136331 C75.6483666,19.3502743 75.7473417,19.2905709 75.8403384,19.2217291 C75.9492775,19.1413122 76.0499133,19.0523663 76.1525418,18.9655526 C76.2133219,18.9140736 76.2777553,18.8680776 76.3365426,18.8141617 C76.4222324,18.7358771 76.5012797,18.6551556 76.5806591,18.5750433 C76.6062332,18.5491515 76.6347965,18.5238689 76.6597063,18.4976725 C76.7012227,18.4541133 76.7384214,18.4093357 76.7782772,18.3651674 C76.8387251,18.2987625 76.9005015,18.232053 76.9569638,18.1644297 C76.9788845,18.1382333 76.997816,18.1111231 77.0190724,18.0846221 C77.0891521,17.9975038 77.1585675,17.9100809 77.2223367,17.8208303 C77.2336292,17.8052952 77.243261,17.7891509 77.2542213,17.7736158 C77.3246331,17.6733993 77.39272,17.572269 77.455825,17.4696156 C77.463464,17.4571266 77.4701066,17.4440284 77.4777457,17.4315394 C77.5415149,17.3258399 77.6022949,17.2195312 77.6587572,17.1110903 C77.6673926,17.0943368 77.6746995,17.0772786 77.6833349,17.0605251 C77.7361438,16.9566533 77.7866277,16.8521723 77.8331261,16.7458636 C77.8460792,16.7166211 77.8570396,16.6867693 77.8693284,16.6572222 C77.9085199,16.5640117 77.9470472,16.4704966 77.9815888,16.3751539 C78.0005203,16.3236749 78.0164626,16.271282 78.0340655,16.2194984 C78.0589754,16.1454783 78.0845495,16.0720675 78.1071344,15.9965243 C78.1307157,15.9182397 78.1509758,15.838432 78.1719,15.758929 C78.1848531,15.708973 78.1994669,15.6596263 78.2114237,15.6093657 C78.2379942,15.5003155 78.2612433,15.3894377 78.283164,15.2779507 C78.2878138,15.2557142 78.2927958,15.2340869 78.2971135,15.2115458 C78.4588615,14.3647315 78.5060241,13.4530355 78.5060241,12.469147 C78.5060241,12.2845536 78.5040313,12.103311 78.5000457,11.9235915 C78.5000457,11.9141486 78.4993815,11.9053149 78.4993815,11.895872" id="Fill-10" fill="#FFFFFF"></path>
                    <path d="M96.873481,4.33333333 L93.3696521,4.33333333 C93.2990754,4.33333333 93.235778,4.37722665 93.2114085,4.44322451 L88.9565556,15.9072743 L87.1297919,10.959645 L84.7244897,4.44354029 C84.7001202,4.37754243 84.6368228,4.33333333 84.5659297,4.33333333 L80.8557511,4.33333333 C80.7623874,4.33333333 80.686747,4.40880457 80.686747,4.50195945 L80.686747,20.415023 C80.686747,20.5081779 80.7623874,20.5833333 80.8557511,20.5833333 L83.3892306,20.5833333 C83.4825943,20.5833333 83.5579182,20.5081779 83.5579182,20.415023 L83.5579182,8.84992389 L85.5875501,14.4032177 L87.7213063,20.2435549 C87.7456758,20.3098685 87.8089733,20.3540776 87.8798664,20.3540776 L89.8265787,20.3540776 C89.8974718,20.3540776 89.9604527,20.3105001 89.9848223,20.2445022 L94.1703645,8.98728786 L94.1709975,14.5162667 L94.1709975,20.415023 C94.1709975,20.4383907 94.1757448,20.4604952 94.1842899,20.4807051 C94.2099254,20.5410189 94.2697415,20.5833333 94.3396851,20.5833333 L96.873481,20.5833333 C96.9196882,20.5833333 96.9620974,20.5647024 96.9927967,20.5340718 C97.0234959,20.503757 97.0421687,20.4614425 97.0421687,20.415023 L97.0421687,4.50195945 C97.0421687,4.45522412 97.0234959,4.41322548 96.9927967,4.3825949 C96.9620974,4.35228009 96.9196882,4.33333333 96.873481,4.33333333" id="Fill-12" fill="#FFFFFF"></path>
                    <path d="M119.752462,6.87427797 C119.916492,6.87490863 120.07261,6.88373793 120.221119,6.90045052 C120.243639,6.90265784 120.265551,6.90675716 120.287462,6.90959515 C120.421364,6.9269384 120.549484,6.94995763 120.6703,6.98054483 C120.694646,6.98685147 120.717774,6.99473477 120.741512,7.00135674 C120.859893,7.03478192 120.972797,7.07293708 121.077484,7.11960621 C121.093005,7.12654351 121.107916,7.1353728 121.123437,7.14262544 C121.230559,7.19339388 121.331898,7.24983829 121.423804,7.31479667 C121.428369,7.31794999 121.432629,7.32110331 121.437194,7.32425663 C121.55375,7.40845025 121.656002,7.50431115 121.744864,7.61026268 C121.751864,7.61909197 121.758255,7.62918259 121.765254,7.63769656 C121.847726,7.7408101 121.918328,7.85306826 121.975237,7.97541705 C121.981019,7.98834566 121.985888,8.00253559 121.991366,8.01577953 C122.045231,8.13970498 122.088445,8.27182905 122.117356,8.41467442 C122.11979,8.42823369 122.121008,8.44336962 122.123442,8.45724423 C122.150223,8.60355824 122.165439,8.75807088 122.166047,8.92362014 C122.166047,8.92708879 122.166656,8.93024211 122.166656,8.93371076 C122.166656,9.12070259 122.14931,9.29129716 122.118573,9.44801713 C122.106096,9.51139884 122.08175,9.5653206 122.064708,9.62491834 C122.039145,9.71194995 122.017233,9.80276554 121.982236,9.87970653 C121.949978,9.95128688 121.903721,10.0121459 121.862942,10.076789 C121.828858,10.1294494 121.80086,10.1887318 121.762211,10.2357163 C121.688565,10.3252705 121.601224,10.4034729 121.508101,10.4763145 C121.390328,10.5677608 121.263121,10.6481704 121.121915,10.7106061 C121.083875,10.7273187 121.03914,10.7383554 120.998969,10.7534913 C120.910411,10.7866011 120.821853,10.820657 120.726296,10.8443069 C120.66604,10.8597581 120.598176,10.8679568 120.533963,10.8796241 C120.451188,10.89476 120.369933,10.9130492 120.283506,10.9225092 C120.172732,10.9344918 120.052829,10.9382758 119.93323,10.9414291 C119.889407,10.9426904 119.847411,10.9480511 119.803284,10.9480511 L116.224751,10.9480511 L116.224751,6.87396264 L119.737246,6.87396264 C119.742419,6.87396264 119.747289,6.87427797 119.752462,6.87427797 M121.267686,17.6491698 C121.237558,17.6620984 121.20743,17.675973 121.177302,17.6876403 C121.125567,17.7075062 121.072311,17.7254801 121.01875,17.742508 C120.9941,17.7507067 120.969754,17.7592206 120.944799,17.7664733 C120.887891,17.7835012 120.83007,17.7983218 120.77164,17.8125117 C120.749728,17.817557 120.727817,17.8235483 120.70621,17.8282783 C120.645954,17.8415223 120.584785,17.8528742 120.523312,17.8635955 C120.503227,17.8670641 120.482837,17.8708481 120.463056,17.8740014 C120.400061,17.8837767 120.336458,17.89166 120.272854,17.8989127 C120.254899,17.9008047 120.23664,17.9033273 120.218989,17.904904 C120.149908,17.9115259 120.080218,17.9168866 120.011137,17.9206706 C120.000181,17.9209859 119.989225,17.9222472 119.978878,17.9225626 C119.898233,17.9263465 119.817587,17.9285539 119.737246,17.9285539 L116.224751,17.9285539 L116.224751,13.4196227 L119.825195,13.4196227 C119.839498,13.4196227 119.853497,13.4205687 119.868105,13.420884 C119.967923,13.4215147 120.063176,13.425614 120.155994,13.43129 C120.205599,13.4347586 120.254291,13.4388579 120.302982,13.4439033 C120.354717,13.4489486 120.40493,13.4552552 120.454535,13.4618772 C120.512965,13.4700758 120.571699,13.4773284 120.628608,13.4880497 C120.631955,13.4886804 120.634694,13.4896264 120.638042,13.4899417 C120.886065,13.5362955 121.117046,13.6072452 121.326725,13.7053134 C121.328855,13.7062594 121.330985,13.7068901 121.333115,13.7081514 C121.400371,13.7396846 121.464887,13.7743711 121.526969,13.8118956 C121.533056,13.8153643 121.538838,13.8188329 121.54462,13.8226169 C121.60305,13.8582494 121.659045,13.8967199 121.712911,13.9377131 C121.722345,13.9449657 121.731474,13.9525337 121.740604,13.9597863 C121.788991,13.9982568 121.835553,14.0386193 121.879679,14.0815044 C121.893678,14.0950637 121.907069,14.1092536 121.920459,14.1231282 C121.957282,14.1612834 121.992583,14.2006999 122.026667,14.2423237 C122.044014,14.2643969 122.061056,14.2867855 122.077489,14.3091741 C122.103965,14.3448066 122.129529,14.3820157 122.15357,14.4201709 C122.172134,14.4494968 122.189785,14.4794533 122.206522,14.5097252 C122.225695,14.5440963 122.243954,14.5797288 122.2613,14.615992 C122.277734,14.6506785 122.294167,14.685365 122.308471,14.7206822 C122.323991,14.7578914 122.337686,14.7969925 122.351076,14.8357784 C122.363249,14.8707802 122.376335,14.9057821 122.386682,14.9414146 C122.407984,15.0129949 122.426548,15.0864672 122.441764,15.1640389 C122.44572,15.1845355 122.44785,15.2047167 122.451502,15.224898 C122.463067,15.2917483 122.472805,15.3601754 122.480109,15.431125 C122.482239,15.4538289 122.484369,15.4759022 122.485891,15.4986061 C122.493195,15.5884757 122.497759,15.6802373 122.497759,15.7770442 C122.497759,15.8782657 122.492282,15.9747573 122.481935,16.0671495 C122.480109,16.0829161 122.476457,16.0974214 122.474327,16.1128727 C122.464284,16.1885523 122.452111,16.26234 122.435373,16.332659 C122.430808,16.3525249 122.423809,16.3711295 122.418635,16.3906801 C122.401289,16.4543771 122.38303,16.5171282 122.360205,16.5760953 C122.352902,16.5956458 122.343772,16.6136198 122.335555,16.6325397 C122.311514,16.6889841 122.286864,16.7451132 122.257953,16.7974583 C122.24791,16.8157475 122.235737,16.8334061 122.225086,16.85138 C122.195262,16.9012025 122.165134,16.9503942 122.130746,16.9964327 C122.117051,17.0153526 122.100922,17.0326959 122.08601,17.0513005 C122.052231,17.0935549 122.017842,17.1354941 121.98041,17.1739646 C121.960021,17.1950918 121.936892,17.2146424 121.914981,17.235139 C121.879679,17.2682488 121.845291,17.3019893 121.807555,17.3325765 C121.771036,17.3615871 121.73117,17.3883903 121.691912,17.4155088 C121.643829,17.4492493 121.594225,17.4810979 121.542794,17.5110544 C121.495928,17.538173 121.449671,17.5656068 121.401892,17.5892567 C121.35807,17.6110146 121.312726,17.6296192 121.267686,17.6491698 M125.164541,14.4633714 C125.013901,14.023168 124.789007,13.6103985 124.491988,13.2452441 C124.482554,13.2335769 124.470989,13.2241169 124.461555,13.212765 C124.349565,13.0784336 124.23027,12.9497781 124.098802,12.829952 C124.081456,12.8141854 124.061371,12.8018875 124.044024,12.7864362 C123.918339,12.6763854 123.788697,12.5701185 123.646274,12.4748883 C123.575671,12.4272731 123.49746,12.3903793 123.42351,12.3468635 C123.32917,12.2923111 123.239699,12.232398 123.138968,12.1838369 C123.295694,12.1106799 123.444508,12.0227023 123.586018,11.9224267 C123.674576,11.859991 123.751874,11.786834 123.831607,11.7158843 C123.879994,11.6733145 123.932033,11.6364207 123.978291,11.5900669 C124.071413,11.4967286 124.153276,11.3939304 124.233922,11.2898709 C124.260398,11.255815 124.29083,11.2264892 124.316393,11.1908567 C124.479815,10.963187 124.608848,10.7128135 124.717187,10.45298 C124.742445,10.3921209 124.772573,10.3347305 124.795093,10.2719794 C124.845307,10.1335487 124.884564,9.99164936 124.92017,9.84911933 C124.926256,9.82578477 124.935082,9.80371154 124.94056,9.78006164 C124.976165,9.62744099 125.001424,9.47355901 125.020901,9.31967704 C125.023031,9.30264911 125.027596,9.28593652 125.029726,9.26859326 C125.049507,9.09484537 125.060159,8.92141282 125.060159,8.75081825 C125.060159,7.35484382 124.397648,6.00396186 123.248828,5.22603801 C123.233308,5.21594739 123.216875,5.20806409 123.201354,5.19797347 C123.092102,5.12670845 122.979503,5.05954275 122.863556,4.99742236 C122.824602,4.97692579 122.784127,4.9592672 122.744565,4.94003195 C122.647486,4.89178617 122.548581,4.84480171 122.446633,4.80286257 C122.406158,4.78614998 122.365075,4.77196004 122.324295,4.75619344 C122.222956,4.71740762 122.119486,4.68019845 122.012669,4.6470886 C121.967629,4.63321399 121.92198,4.62091605 121.876636,4.60798744 C121.776818,4.57960757 121.675479,4.55280435 121.5714,4.52883913 C121.512057,4.51559518 121.452714,4.5039279 121.393371,4.49194529 C121.304205,4.4742867 121.214125,4.45694345 121.121002,4.44243818 C121.038835,4.42919424 120.956059,4.41878828 120.873284,4.40838233 C120.80055,4.39923771 120.72873,4.38977775 120.654171,4.38252511 C120.537311,4.37117316 120.420451,4.36297453 120.303895,4.3557219 C120.255508,4.35288391 120.209251,4.3487846 120.160255,4.34657727 C119.981922,4.33837864 119.803893,4.33333333 119.626777,4.33333333 L113.559794,4.33333333 C113.515059,4.33333333 113.474584,4.35225325 113.445065,4.38284045 C113.41585,4.41311231 113.39759,4.45536679 113.39759,4.50172058 L113.39759,20.4152614 C113.39759,20.4616152 113.41585,20.5038697 113.445065,20.5341416 C113.474584,20.5647287 113.515059,20.5833333 113.559794,20.5833333 L119.626777,20.5833333 C119.830064,20.5833333 120.032439,20.5798647 120.233597,20.5732427 C120.246378,20.572612 120.258247,20.5716661 120.270724,20.5713507 C120.44784,20.5650441 120.624043,20.5552688 120.799029,20.5407635 C120.849851,20.5366642 120.898847,20.5300422 120.94906,20.5249969 C121.078397,20.5123837 121.207734,20.4991397 121.335246,20.4805351 C121.428064,20.4672912 121.517839,20.4490019 121.608223,20.4322893 C121.690086,20.4171534 121.772558,20.4042248 121.853203,20.3862509 C121.977671,20.3581863 122.098792,20.3231845 122.219304,20.2878673 C122.26617,20.2739927 122.313644,20.2632714 122.359901,20.2481355 C122.496846,20.2036737 122.629531,20.1510133 122.761303,20.0948842 C122.793257,20.0813249 122.826732,20.070919 122.858686,20.0564137 C122.988024,19.997762 123.114013,19.9293349 123.238481,19.8580699 C123.273174,19.8385193 123.309084,19.8227527 123.343473,19.8019408 C123.471897,19.7240538 123.59667,19.6344996 123.720225,19.540846 C123.746701,19.5209801 123.774698,19.5058442 123.801175,19.4850322 C123.878777,19.4232272 123.945728,19.3554308 124.017244,19.2901571 C124.072326,19.2393887 124.131974,19.1927196 124.184013,19.1397438 C124.274701,19.0464055 124.355347,18.947076 124.435384,18.8474311 C124.460947,18.8155826 124.490162,18.7868874 124.514812,18.7544082 C124.604587,18.6348974 124.68432,18.5100259 124.759488,18.3826318 C124.769834,18.3649733 124.782616,18.349522 124.792659,18.3315481 C124.928082,18.0944185 125.033074,17.8415223 125.120719,17.5807428 C125.140196,17.522091 125.164237,17.4662773 125.181888,17.4063642 C125.216581,17.2871687 125.242144,17.163874 125.268315,17.0408945 C125.277141,16.9973787 125.290227,16.9560702 125.298443,16.9116084 C125.325528,16.7621411 125.344396,16.6098358 125.359612,16.4556385 C125.361743,16.4341959 125.366003,16.4140146 125.367829,16.3922567 C125.383654,16.2128329 125.391566,16.030571 125.391566,15.8461019 C125.391566,15.4900921 125.348961,15.1381817 125.263446,14.7985692 C125.235449,14.685365 125.202277,14.5737375 125.164541,14.4633714" id="Fill-14" fill="#FFFFFF"></path>
                    <path d="M135.299833,11.6085714 C135.289524,11.6123607 135.281035,11.6183605 135.270422,11.6218341 C135.225244,11.6373073 135.17188,11.6436229 135.12458,11.6565698 C134.845629,11.7342515 134.540299,11.78225 134.196462,11.78225 L130.41122,11.78225 L130.41122,6.92303893 L134.1528,6.92303893 C134.156438,6.92303893 134.159774,6.92367049 134.163715,6.92367049 C134.337453,6.92430205 134.50452,6.94009101 134.66613,6.96693225 C134.682806,6.96977426 134.700089,6.9707216 134.716462,6.97387939 C134.871705,7.00229952 135.019063,7.0452455 135.160964,7.09766485 C135.181279,7.10524355 135.203413,7.11124336 135.223425,7.11945362 C135.36381,7.17534655 135.496009,7.2445022 135.621537,7.32376279 C135.635787,7.33292039 135.651857,7.34113065 135.666411,7.35060403 C135.798913,7.43870644 135.923228,7.5397558 136.036627,7.65438366 C136.040266,7.65817301 136.044208,7.66196237 136.048149,7.6660675 C136.152756,7.77311666 136.245537,7.88932342 136.3271,8.01279311 C136.331952,8.02037181 136.337106,8.02795051 136.342261,8.03584499 C136.420488,8.15773578 136.487194,8.28688949 136.542377,8.42204301 C136.546319,8.43246373 136.55117,8.44320022 136.555415,8.45393671 C136.608477,8.58972179 136.649713,8.73150667 136.678518,8.87771246 C136.680337,8.88655428 136.682459,8.89571188 136.683975,8.90486948 C136.711567,9.0551804 136.726424,9.20928067 136.727031,9.36622296 C136.727031,9.36969653 136.727334,9.37253854 136.727334,9.37569633 C136.727334,9.75873656 136.669725,10.1004097 136.558447,10.397558 C136.338925,10.9820654 135.908674,11.3932099 135.299833,11.6085714 M139.538067,8.82055642 C139.524119,8.67371907 139.505927,8.52751328 139.480761,8.38320216 C139.476212,8.35793982 139.469542,8.33362482 139.464691,8.30867826 C139.438918,8.17352474 139.41072,8.03900279 139.374941,7.90700706 C139.369787,7.88742875 139.36251,7.86879777 139.357052,7.84953524 C139.318848,7.71406594 139.277005,7.58049132 139.228189,7.44944293 C139.223034,7.4361802 139.21697,7.42386481 139.211816,7.41060209 C139.16027,7.27639591 139.104783,7.1440844 139.042019,7.01556225 C139.035955,7.00356264 139.029285,6.99282614 139.023221,6.98114231 C138.959547,6.8535675 138.892235,6.72851891 138.817343,6.60757546 C138.805821,6.58894449 138.792177,6.57189241 138.780351,6.55326143 C138.708794,6.44179136 138.635418,6.33190018 138.554159,6.22642991 C138.524444,6.18727329 138.489879,6.15222179 138.458345,6.1140125 C138.371931,6.00917379 138.280969,5.90686132 138.185155,5.80865397 C138.088735,5.71013085 137.987464,5.61571285 137.880129,5.52571577 C137.854356,5.50424278 137.825551,5.48624336 137.799475,5.46540193 C137.691837,5.37950998 137.581469,5.29582848 137.463522,5.21814678 C137.430472,5.19667379 137.394694,5.1783586 137.361341,5.15751717 C137.245819,5.08583528 137.128477,5.01604806 137.003556,4.95257643 C136.970506,4.93584013 136.935031,4.92194585 136.901072,4.90584111 C136.772815,4.84426415 136.642436,4.78489766 136.504477,4.73279408 C136.469911,4.71984713 136.433526,4.70974219 136.39896,4.6974268 C136.259788,4.64784946 136.118493,4.6001668 135.969619,4.56037861 C135.927473,4.54901056 135.882901,4.54143186 135.840149,4.53069536 C135.697035,4.49595965 135.552405,4.46185549 135.400195,4.43596159 C135.336522,4.42522509 135.269513,4.41954107 135.20493,4.41069925 C135.069699,4.39175249 134.936288,4.37154262 134.79469,4.35985879 C134.661279,4.3491223 134.522713,4.34691184 134.384753,4.34312249 C134.306829,4.34059626 134.232543,4.33333333 134.1528,4.33333333 L127.733899,4.33333333 C127.711765,4.33333333 127.690237,4.33807002 127.671135,4.34659606 C127.612919,4.37217418 127.572289,4.43185646 127.572289,4.50195945 L127.572289,20.415023 C127.572289,20.4848102 127.612919,20.5444925 127.671135,20.5700706 C127.690237,20.5789124 127.711765,20.5833333 127.733899,20.5833333 L130.271745,20.5833333 C130.361191,20.5833333 130.433354,20.5081779 130.433354,20.415023 L130.433354,14.4411112 L133.888706,14.4411112 L136.442925,20.4829155 C136.468395,20.5438609 136.526611,20.5833333 136.590891,20.5833333 L139.316725,20.5833333 C139.342498,20.5833333 139.365845,20.5754389 139.386766,20.5643866 C139.388889,20.5634392 139.391618,20.563755 139.39374,20.5624919 C139.441647,20.5356507 139.47318,20.4844944 139.477425,20.4279699 C139.477425,20.426391 139.476516,20.4251279 139.476516,20.4238648 C139.478032,20.3979709 139.475303,20.3717612 139.464084,20.3461831 L136.705503,13.9368118 C136.716115,13.9327066 136.726121,13.9273384 136.73643,13.9232333 C136.83376,13.8847082 136.92927,13.8439727 137.022355,13.7988162 C137.11453,13.7542914 137.203976,13.7053456 137.292209,13.6545051 C137.301912,13.6491369 137.312221,13.6444002 137.321924,13.6387162 C137.716397,13.4078815 138.066298,13.1167331 138.365867,12.7756915 C138.665739,12.4349657 138.914369,12.0446625 139.106603,11.614887 C139.109028,11.6092029 139.111757,11.6041505 139.114183,11.5987822 C139.152993,11.5113114 139.187862,11.4213143 139.222125,11.3306856 C139.231221,11.3060549 139.241833,11.2823714 139.250626,11.2574249 C139.277005,11.1838483 139.299443,11.1080613 139.32279,11.0322743 C139.336131,10.9890125 139.350988,10.9466981 139.363116,10.9028048 C139.379489,10.8440698 139.392224,10.7834402 139.406778,10.7237579 C139.421938,10.6609179 139.438312,10.5990251 139.451349,10.5352377 C139.459839,10.4945022 139.465297,10.4521878 139.472877,10.4111365 C139.488038,10.3265076 139.503501,10.2428261 139.515023,10.1566184 C139.516842,10.1424083 139.517449,10.1278825 139.519268,10.1136724 C139.534428,9.9939921 139.54595,9.87241709 139.553834,9.74957896 C139.56202,9.62674083 139.566265,9.50200803 139.566265,9.37569633 C139.566265,9.20707022 139.558685,9.03875988 139.544434,8.87202844 C139.542918,8.85466058 139.53928,8.83792428 139.538067,8.82055642" id="Fill-16" fill="#FFFFFF"></path>
                    <path d="M177.585943,15.1631129 C177.561696,15.2578464 177.540107,15.354103 177.510547,15.4460951 C177.469362,15.5755541 177.416884,15.6998347 177.364406,15.8238108 C177.340824,15.8804681 177.321892,15.939867 177.295985,15.9950013 C177.226568,16.1399954 177.143533,16.276765 177.055849,16.4107932 C177.036252,16.4409495 177.021638,16.4747612 177.000714,16.5043083 C176.887122,16.6660559 176.758916,16.818056 176.612443,16.9575671 C176.529076,17.0395071 176.440395,17.1168779 176.346732,17.1896795 C176.278311,17.2426816 176.205573,17.2908099 176.13217,17.3392428 C176.106595,17.3559963 176.083013,17.3751867 176.056774,17.391331 C175.755524,17.5789704 175.41641,17.7273152 175.059361,17.8308824 C175.052386,17.8330147 175.046075,17.8354515 175.0391,17.8375838 C174.947098,17.8637802 174.853102,17.8838844 174.759439,17.9036841 C174.727886,17.9103855 174.696665,17.9195237 174.66478,17.9256159 C174.598684,17.9381049 174.531592,17.9448063 174.465164,17.9542492 C174.405047,17.9621691 174.345594,17.9734396 174.285477,17.9792272 C174.267541,17.9807502 174.249274,17.980141 174.230674,17.9816641 C174.124721,17.9901931 174.018437,17.9965899 173.912485,17.9965899 C173.805868,17.9965899 173.698587,17.9901931 173.591306,17.9813595 C173.574035,17.980141 173.556764,17.9807502 173.539825,17.9792272 C173.478047,17.9734396 173.416269,17.9618645 173.354491,17.9533354 C173.289724,17.9441971 173.224957,17.9378003 173.161186,17.9256159 C173.125979,17.9192191 173.091769,17.909167 173.056894,17.9015518 C172.966552,17.8820568 172.875546,17.8628664 172.787197,17.8375838 C172.776237,17.8348423 172.765608,17.8302732 172.75498,17.8272271 C172.402248,17.7239645 172.066456,17.5768381 171.768527,17.391331 C171.740295,17.3739682 171.71472,17.3532548 171.687485,17.3349782 C171.616075,17.2880684 171.544997,17.2411585 171.478569,17.1896795 C171.385238,17.1168779 171.296225,17.0395071 171.21319,16.9575671 C171.066717,16.818056 170.938179,16.6660559 170.82492,16.5046129 C170.803331,16.4738473 170.788052,16.4388172 170.767792,16.4074425 C170.680771,16.2746328 170.598401,16.1393862 170.52998,15.9956105 C170.502081,15.9374301 170.482152,15.8743759 170.457242,15.8146725 C170.406757,15.6937425 170.354943,15.5734218 170.314754,15.4476181 C170.28453,15.3510569 170.261612,15.2505358 170.236369,15.1512331 C170.212788,15.0592411 170.185884,14.9684675 170.16662,14.8749524 C170.13706,14.7317859 170.115139,14.5855734 170.094214,14.4387516 C170.087239,14.3881865 170.077275,14.3382305 170.070632,14.2873607 C170.048711,14.1076412 170.032436,13.9257893 170.020147,13.7436329 C170.018818,13.7244425 170.016161,13.7046429 170.015165,13.6854525 C170.00354,13.5039052 169.996565,13.3226626 169.991915,13.14142 C169.991251,13.1158328 169.98959,13.0893318 169.988926,13.0637446 C169.985937,12.9281934 169.985604,12.7944699 169.984608,12.6604417 C169.984608,12.5973875 169.983279,12.5306781 169.983279,12.4694516 C169.983279,12.406702 169.984608,12.3384695 169.984608,12.2741969 C169.985604,12.1416918 169.985937,12.0091867 169.988926,11.8748539 C169.98959,11.8419561 169.991915,11.8075353 169.992579,11.7743328 C169.997229,11.6010101 170.003872,11.4270781 170.0145,11.2534507 C170.016825,11.2175068 170.021475,11.1809536 170.0238,11.1450097 C170.035757,10.9793022 170.050039,10.8138993 170.069636,10.6500194 C170.078603,10.5756947 170.092885,10.5022838 170.104178,10.4285683 C170.122446,10.3042877 170.140381,10.1803116 170.164959,10.059077 C170.188873,9.9414978 170.221423,9.82696465 170.252312,9.71182228 C170.27224,9.6350607 170.289179,9.55616686 170.313094,9.48123293 C170.358597,9.33715267 170.415392,9.19885998 170.474513,9.06148112 C170.493445,9.01731275 170.507727,8.9704029 170.52832,8.92714836 C170.600726,8.77423441 170.687082,8.62984954 170.779749,8.48911998 C170.796024,8.46505583 170.807649,8.43764098 170.824256,8.41388144 C170.937847,8.25152461 171.066385,8.09891528 171.21319,7.95909954 C171.296225,7.8771596 171.385238,7.7997888 171.478569,7.72698715 C171.544997,7.67550815 171.616075,7.6285983 171.687485,7.58138383 C171.71472,7.56310727 171.740295,7.54269843 171.768527,7.52503109 C172.067784,7.33891472 172.404573,7.19148374 172.759298,7.08791653 C172.768598,7.08517505 172.777233,7.08151974 172.786865,7.07908286 C172.877207,7.05319106 172.969874,7.03369605 173.061876,7.01389644 C173.09509,7.00689042 173.127308,6.99714292 173.160854,6.99105073 C173.227282,6.97856174 173.294706,6.97155573 173.361798,6.96241744 C173.421251,6.95419299 173.480372,6.94322705 173.539492,6.93774408 C173.563074,6.9353072 173.586656,6.93591642 173.609906,6.93408876 C173.711208,6.92647353 173.812511,6.92007673 173.912485,6.92007673 C174.012126,6.92007673 174.112432,6.92647353 174.212406,6.93408876 C174.236984,6.93591642 174.261563,6.9353072 174.285809,6.93774408 C174.343269,6.94292244 174.400397,6.95358377 174.457525,6.96150361 C174.526942,6.97094651 174.596359,6.97825713 174.665112,6.99105073 C174.695004,6.9965337 174.724565,7.00536737 174.754457,7.01176417 C174.850113,7.0318684 174.945769,7.05258184 175.039432,7.07908286 C175.044747,7.08060591 175.049397,7.08273817 175.054711,7.08426122 C175.413421,7.18782843 175.754196,7.33708706 176.056774,7.5253357 C176.082349,7.54117539 176.104934,7.55945195 176.129513,7.57559625 C176.203912,7.62463837 176.277979,7.67368049 176.347064,7.72698715 C176.440395,7.80009341 176.529076,7.87746421 176.612443,7.95909954 C176.759248,8.09891528 176.887454,8.25152461 177.001378,8.41388144 C177.01732,8.43672715 177.028281,8.46292356 177.043892,8.48637849 C177.137555,8.62771727 177.224575,8.7736252 177.297646,8.92806218 C177.316246,8.96796602 177.329531,9.01152517 177.347135,9.05203823 C177.407916,9.19276779 177.466373,9.3350204 177.512872,9.48245137 C177.535125,9.55312076 177.551068,9.62744547 177.57,9.69963791 C177.60255,9.81934942 177.635763,9.93845171 177.661006,10.0606001 C177.684588,10.1778747 177.701859,10.2978909 177.719462,10.4176024 C177.731419,10.4955824 177.746034,10.5735624 177.755998,10.6515424 C177.775262,10.8123762 177.789212,10.974733 177.800837,11.1373945 C177.803826,11.1763845 177.808476,11.2159837 177.811133,11.2546691 C177.821761,11.4273827 177.828072,11.6004008 177.832722,11.7725052 C177.833718,11.8063168 177.836043,11.8416515 177.836708,11.8751586 C177.839697,12.0091867 177.840029,12.1416918 177.840693,12.2741969 C177.841025,12.3387741 177.842022,12.406702 177.842022,12.4694516 C177.842022,12.5306781 177.841025,12.5973875 177.841025,12.6601371 C177.840029,12.7941652 177.839697,12.9278888 177.836708,13.0637446 C177.836043,13.0896364 177.834383,13.1167466 177.833718,13.1429431 C177.828736,13.3226626 177.822093,13.5036006 177.810801,13.684234 C177.80914,13.7061659 177.806483,13.728707 177.804822,13.7506389 C177.792533,13.9300539 177.77659,14.1088596 177.755001,14.2858377 C177.748026,14.3403628 177.737398,14.3945833 177.729759,14.4491084 C177.709166,14.5916656 177.687909,14.7342228 177.659345,14.8734293 C177.638753,14.9715135 177.610853,15.0668563 177.585943,15.1631129 M180.994021,11.9235915 C180.994021,11.9141486 180.993689,11.9050103 180.993357,11.8955674 C180.990036,11.7420442 180.984722,11.5900441 180.978079,11.439567 C180.976418,11.3993586 180.973761,11.3606732 180.971768,11.3207694 C180.966122,11.2108054 180.959811,11.101146 180.952172,10.9930096 C180.94719,10.9253863 180.941544,10.8605045 180.935565,10.7950135 C180.928922,10.7197749 180.922612,10.6445364 180.91464,10.5699071 C180.905673,10.4821796 180.895044,10.3971935 180.884416,10.3131213 C180.877441,10.2604239 180.871462,10.2077265 180.863823,10.1556382 C180.850205,10.0599909 180.834595,9.967085 180.818652,9.87539755 C180.811345,9.8318384 180.80437,9.78797464 180.796399,9.7447201 C180.779128,9.65303266 180.759863,9.5640867 180.740267,9.47574996 C180.730303,9.43036316 180.721335,9.38467174 180.710707,9.33989415 C180.689782,9.25155741 180.665868,9.16596216 180.642286,9.0800623 C180.554602,8.7608316 180.447321,8.4510438 180.315129,8.1513081 C180.314797,8.15069888 180.314797,8.15069888 180.314465,8.15039427 C180.202202,7.89604539 180.072003,7.64900713 179.922209,7.40836567 C179.921212,7.40714723 179.920548,7.40592879 179.919552,7.40471036 C179.775735,7.17320718 179.613319,6.94779619 179.429979,6.728782 C179.426989,6.7254313 179.423668,6.72208059 179.420679,6.71872989 C179.243316,6.50763554 179.048351,6.30171956 178.830468,6.10159115 C178.771015,6.04737067 178.705915,6.00076543 178.644802,5.94898182 C178.542503,5.86277735 178.442529,5.774136 178.334584,5.69432833 C178.241917,5.6257912 178.14294,5.56639236 178.046619,5.5030336 C177.962256,5.44759468 177.881214,5.38850045 177.793529,5.33702145 C177.691563,5.27670878 177.584614,5.22522978 177.479658,5.17040008 C177.390645,5.12409945 177.304621,5.07444811 177.213615,5.0321074 C177.109323,4.9836745 177.001046,4.94377066 176.894429,4.90051612 C176.796116,4.86030767 176.700128,4.81735774 176.599157,4.78141383 C176.493205,4.74394686 176.384263,4.71439975 176.276318,4.68180654 C176.170034,4.64951794 176.066074,4.61387863 175.957465,4.58615917 C175.842212,4.55661206 175.724303,4.535594 175.607058,4.51122525 C175.503099,4.48959798 175.400468,4.46431539 175.294847,4.44664805 C175.143392,4.42167007 174.990276,4.40613499 174.836828,4.38938147 C174.762428,4.38115702 174.690022,4.36866803 174.614959,4.36257584 C174.382129,4.34338544 174.147971,4.33333333 173.912485,4.33333333 C173.67733,4.33333333 173.443172,4.34338544 173.210675,4.36257584 C173.135611,4.36866803 173.063205,4.38115702 172.988474,4.38938147 C172.835358,4.40613499 172.681909,4.42167007 172.530786,4.44664805 C172.425166,4.46431539 172.322535,4.48959798 172.218575,4.51122525 C172.10133,4.535594 171.983421,4.55661206 171.868169,4.58615917 C171.759559,4.61387863 171.6556,4.64951794 171.549315,4.68180654 C171.44137,4.71439975 171.332428,4.74394686 171.226476,4.78141383 C171.125506,4.81735774 171.029517,4.86030767 170.930872,4.90051612 C170.824256,4.94377066 170.715978,4.9836745 170.612019,5.0321074 C170.521013,5.07444811 170.434656,5.12409945 170.345975,5.17040008 C170.241019,5.22522978 170.133738,5.27670878 170.032104,5.33702145 C169.944419,5.38850045 169.863377,5.44759468 169.779014,5.5030336 C169.682694,5.56639236 169.583716,5.6257912 169.491049,5.69432833 C169.383104,5.774136 169.28313,5.86277735 169.180831,5.94898182 C169.119718,6.00076543 169.054286,6.04737067 168.995166,6.10159115 C168.77695,6.30171956 168.581985,6.50763554 168.40429,6.71872989 C168.401633,6.72208059 168.398312,6.7254313 168.395323,6.728782 C168.211982,6.94779619 168.049566,7.17320718 167.905417,7.40440575 C167.904753,7.40592879 167.904089,7.40714723 167.903092,7.40836567 C167.753298,7.64900713 167.623099,7.89604539 167.510836,8.15008966 C167.510504,8.15069888 167.510172,8.15069888 167.510172,8.1513081 C167.377981,8.4510438 167.2707,8.7608316 167.183015,9.07975769 C167.159101,9.16565755 167.135519,9.25155741 167.114594,9.33989415 C167.103634,9.38467174 167.094666,9.43036316 167.084702,9.47544535 C167.065106,9.5640867 167.046174,9.65303266 167.02857,9.7447201 C167.020599,9.78767003 167.013956,9.83122919 167.006317,9.87448373 C166.990706,9.96647578 166.975096,10.0596863 166.961478,10.1556382 C166.953839,10.2080311 166.947528,10.2613377 166.940553,10.3143398 C166.930257,10.3978028 166.919629,10.4821796 166.910329,10.5689933 C166.90269,10.6439272 166.896047,10.7200795 166.889404,10.7959273 C166.883758,10.8608091 166.878111,10.9256909 166.873129,10.9930096 C166.865158,11.101146 166.858847,11.2105007 166.853201,11.3207694 C166.851208,11.3603686 166.848883,11.3993586 166.84689,11.4398717 C166.839915,11.5900441 166.835265,11.7420442 166.831612,11.8955674 C166.831612,11.9050103 166.83128,11.9141486 166.830948,11.9235915 C166.827294,12.1036156 166.825301,12.2848583 166.825301,12.4694516 C166.825301,13.4539493 166.872465,14.36595 167.034217,15.2133734 C167.03787,15.2325638 167.04252,15.251145 167.046174,15.2700308 C167.068759,15.384564 167.092673,15.4984879 167.119909,15.6105842 C167.131533,15.6587125 167.145151,15.7059269 167.157772,15.753446 C167.179361,15.8353859 167.199954,15.9173259 167.224532,15.9974382 C167.246121,16.070849 167.271032,16.1424323 167.295278,16.2143201 C167.313213,16.268236 167.330153,16.322761 167.349749,16.3760677 C167.383295,16.4692782 167.421159,16.5600518 167.459355,16.65113 C167.47264,16.6828094 167.484265,16.7154026 167.498215,16.7467774 C167.54405,16.8512584 167.593871,16.9539118 167.645353,17.055956 C167.654985,17.0742325 167.663288,17.0934229 167.672588,17.1116995 C167.728387,17.2186174 167.788837,17.3240123 167.851279,17.4281887 C167.859914,17.4418961 167.867221,17.4562128 167.875857,17.4702248 C167.937967,17.5713552 168.004727,17.6709624 168.074144,17.7699605 C168.086101,17.7870186 168.097062,17.8043814 168.109019,17.8214395 C168.172789,17.9103855 168.241874,17.9978084 168.311956,18.0846221 C168.333213,18.1111231 168.352144,18.1382333 168.374066,18.1644297 C168.430197,18.2317484 168.491311,18.2975441 168.551428,18.3636443 C168.591949,18.4084219 168.629481,18.4538087 168.671994,18.4979771 C168.694248,18.5211274 168.71949,18.5439731 168.742408,18.5668188 C168.824114,18.6499772 168.906152,18.7331356 168.995166,18.8144663 C169.052626,18.8674683 169.116064,18.9125505 169.175849,18.9631157 C169.279477,19.0508432 169.381111,19.1410076 169.491049,19.2220337 C169.583052,19.2899616 169.681365,19.3493605 169.777021,19.41211 C169.862049,19.4681582 169.943755,19.527557 170.032104,19.5796452 C170.133738,19.6396533 170.240023,19.6908277 170.344647,19.7453528 C170.433992,19.791958 170.520348,19.8416093 170.612019,19.8845593 C170.715978,19.9326876 170.824256,19.972896 170.930872,20.0161505 C171.029517,20.0560544 171.125506,20.0996135 171.226476,20.1352528 C171.331432,20.1724152 171.439709,20.2016577 171.546658,20.2342509 C171.653939,20.2668441 171.758895,20.302788 171.868501,20.3305075 C171.982092,20.35975 172.098341,20.3801588 172.213261,20.4045276 C172.319546,20.4264595 172.423505,20.4520467 172.53145,20.4700186 C172.679916,20.494692 172.830043,20.5099225 172.98017,20.5260668 C173.057559,20.5345958 173.132954,20.547694 173.211007,20.5540908 C173.443504,20.5732812 173.677662,20.5833333 173.912485,20.5833333 C174.147639,20.5833333 174.382129,20.5732812 174.614627,20.5540908 C174.692679,20.547694 174.768075,20.5345958 174.845463,20.5260668 C174.99559,20.5099225 175.145717,20.494692 175.294183,20.4700186 C175.402128,20.4520467 175.506088,20.4264595 175.612372,20.4045276 C175.727292,20.3801588 175.843541,20.35975 175.957133,20.3305075 C176.066738,20.302788 176.171694,20.2668441 176.278643,20.2342509 C176.385924,20.2016577 176.494201,20.1724152 176.599157,20.1352528 C176.700128,20.0996135 176.796116,20.0560544 176.894429,20.0161505 C177.001378,19.972896 177.109323,19.9326876 177.213615,19.8845593 C177.305285,19.8416093 177.391641,19.791958 177.480987,19.7453528 C177.58561,19.6908277 177.691895,19.6396533 177.793529,19.5796452 C177.881546,19.527557 177.963585,19.4681582 178.048612,19.41211 C178.144268,19.3493605 178.242581,19.2899616 178.334584,19.2220337 C178.444522,19.1410076 178.546157,19.0508432 178.649784,18.9631157 C178.709569,18.9125505 178.772675,18.8674683 178.830468,18.8144663 C178.916492,18.7355724 178.995873,18.6551556 179.075254,18.5747387 C179.100829,18.5488469 179.129061,18.5238689 179.153971,18.4976725 C179.195821,18.4538087 179.233352,18.4087265 179.273541,18.3642535 C179.333658,18.2981533 179.394772,18.232053 179.450903,18.1647343 C179.473489,18.1376241 179.493085,18.1099046 179.515006,18.0827944 C179.584423,17.9962853 179.653176,17.9097762 179.716283,17.8214395 C179.727907,17.8049906 179.737872,17.7885417 179.749496,17.7720928 C179.819578,17.6724855 179.887002,17.5719644 179.949776,17.4696156 C179.957748,17.4571266 179.96439,17.4437238 179.972362,17.4309302 C180.035468,17.3258399 180.096582,17.2195312 180.152713,17.1113949 C180.162013,17.0934229 180.169984,17.0751464 180.179284,17.0571744 C180.231098,16.9548256 180.281251,16.851563 180.327086,16.7467774 C180.340704,16.7154026 180.352329,16.6837232 180.365614,16.6523485 C180.40381,16.5609656 180.441674,16.4692782 180.475552,16.3760677 C180.494816,16.3230657 180.511756,16.2685406 180.529691,16.2152339 C180.553937,16.1427369 180.578848,16.070849 180.600769,15.9974382 C180.624683,15.9176305 180.645608,15.8359952 180.666865,15.754969 C180.679486,15.7065361 180.693436,15.6590171 180.705393,15.6102796 C180.732628,15.4978787 180.756542,15.3836501 180.779128,15.2688124 C180.782781,15.2502312 180.787431,15.2322592 180.790752,15.2136781 C180.952836,14.36595 181,13.4539493 181,12.4694516 C181,12.2848583 180.997675,12.1036156 180.994021,11.9235915" id="Fill-18" fill="#FFFFFF"></path>
                    <path d="M106.400589,14.8077309 L102.897725,14.8077309 L105.163611,7.95500551 L106.17737,11.0190115 L107.430425,14.8077309 L106.400589,14.8077309 Z M112.296099,20.3114474 L106.840843,4.44575074 C106.817656,4.37848977 106.755204,4.33333333 106.685332,4.33333333 L103.755045,4.33333333 C103.685173,4.33333333 103.622722,4.37848977 103.599225,4.44575074 L98.1486068,20.299132 C98.1482976,20.2994478 98.1482976,20.2997636 98.1479885,20.3000793 L98.1448968,20.3092369 C98.1368585,20.3310257 98.1325301,20.3543934 98.1325301,20.3790242 C98.1325301,20.4917574 98.2221886,20.5833333 98.3325613,20.5833333 C98.3328705,20.5833333 98.3328705,20.5833333 98.3331796,20.5833333 L100.849492,20.5833333 C100.919982,20.5833333 100.983052,20.5372296 101.005621,20.4690212 L101.999903,17.4662764 L108.327938,17.4662764 L109.322529,20.4690212 C109.345098,20.5372296 109.408168,20.5833333 109.478658,20.5833333 L112.105961,20.5833333 L112.105961,20.5830176 C112.10627,20.5830176 112.106889,20.5833333 112.107198,20.5833333 C112.21757,20.5833333 112.307229,20.4917574 112.307229,20.3790242 C112.307229,20.3553407 112.303519,20.3326046 112.296099,20.3114474 Z" id="Fill-20" fill="#FFFFFF"></path>
                    <path d="M148.924814,14.8077309 L145.421717,14.8077309 L147.687554,7.95500551 L148.701291,11.0190115 L149.954319,14.8077309 L148.924814,14.8077309 Z M154.819886,20.3114474 L149.365059,4.44575074 C149.341872,4.37848977 149.279112,4.33333333 149.209242,4.33333333 L146.279019,4.33333333 C146.209149,4.33333333 146.147007,4.37848977 146.123511,4.44575074 L140.672703,20.299132 C140.672703,20.2994478 140.672394,20.2997636 140.672394,20.3000793 L140.668993,20.3092369 C140.661264,20.3310257 140.656627,20.3543934 140.656627,20.3790242 C140.656627,20.4917574 140.746283,20.5833333 140.856653,20.5833333 C140.856962,20.5833333 140.857272,20.5833333 140.857581,20.5833333 L143.373529,20.5833333 C143.444017,20.5833333 143.507086,20.5372296 143.529655,20.4690212 L144.524224,17.4662764 L150.852121,17.4662764 L151.846381,20.4690212 C151.86895,20.5372296 151.932018,20.5833333 152.002816,20.5833333 L154.629753,20.5833333 L154.629753,20.5830176 C154.630371,20.5830176 154.63068,20.5833333 154.631298,20.5833333 C154.741669,20.5833333 154.831325,20.4917574 154.831325,20.3790242 C154.831325,20.3553407 154.827306,20.3326046 154.819886,20.3114474 Z" id="Fill-22" fill="#FFFFFF"></path>
                    <path d="M166.733631,4.35227972 C166.729425,4.35038508 166.724896,4.35070085 166.720367,4.34912199 C166.699986,4.34091189 166.678958,4.33333333 166.655018,4.33333333 L163.966975,4.33333333 C163.891597,4.33333333 163.825278,4.38101507 163.802309,4.4511167 L159.825403,16.7321645 L158.0241,11.20203 L155.832645,4.47353659 C155.805146,4.39206713 155.726857,4.33396488 155.63401,4.33364911 L155.63401,4.33333333 L152.860237,4.33333333 L152.860237,4.33364911 C152.859913,4.33364911 152.859913,4.33333333 152.85959,4.33333333 C152.744097,4.33333333 152.650602,4.42490754 152.650602,4.53763854 C152.650602,4.56005843 152.654161,4.581531 152.660955,4.6014247 L158.048363,20.4677604 C158.07198,20.5365989 158.137976,20.5833333 158.212383,20.5833333 L161.297372,20.5833333 C161.372103,20.5833333 161.438099,20.5365989 161.461392,20.4674446 L166.819038,4.55437451 C166.826155,4.53258617 166.825831,4.51079782 166.82389,4.48964102 C166.823567,4.48490443 166.825831,4.48016783 166.825184,4.47574701 C166.81645,4.42269712 166.782157,4.37691002 166.733631,4.35227972" id="Fill-24" fill="#FFFFFF"></path>
                </g>
            </g>
        </g>
    </g>
</svg>