<?xml version="1.0" encoding="UTF-8" standalone="no"?>
<!-- Created with Inkscape (http://www.inkscape.org/) -->

<svg
   xmlns:dc="http://purl.org/dc/elements/1.1/"
   xmlns:cc="http://creativecommons.org/ns#"
   xmlns:rdf="http://www.w3.org/1999/02/22-rdf-syntax-ns#"
   xmlns:svg="http://www.w3.org/2000/svg"
   xmlns="http://www.w3.org/2000/svg"
   xmlns:sodipodi="http://sodipodi.sourceforge.net/DTD/sodipodi-0.dtd"
   xmlns:inkscape="http://www.inkscape.org/namespaces/inkscape"
   width="141.46729mm"
   height="20.896669mm"
   viewBox="0 0 141.46729 20.89667"
   version="1.1"
   id="svg8"
   inkscape:version="0.92.0 r15299"
   sodipodi:docname="instructure.svg">
  <defs
     id="defs2">
	
	

		
		
		
		
	
		
		
		
		
		
		
		
		
		
		
		
	</defs>
  <sodipodi:namedview
     id="base"
     pagecolor="#ffffff"
     bordercolor="#666666"
     borderopacity="1.0"
     inkscape:pageopacity="0.0"
     inkscape:pageshadow="2"
     inkscape:zoom="1.6895837"
     inkscape:cx="265.45"
     inkscape:cy="37.6"
     inkscape:document-units="mm"
     inkscape:current-layer="layer1"
     showgrid="false"
     fit-margin-top="0"
     fit-margin-left="0"
     fit-margin-right="0"
     fit-margin-bottom="0"
     inkscape:window-width="1280"
     inkscape:window-height="744"
     inkscape:window-x="-4"
     inkscape:window-y="-4"
     inkscape:window-maximized="1" />
  <metadata
     id="metadata5">
    <rdf:RDF>
      <cc:Work
         rdf:about="">
        <dc:format>image/svg+xml</dc:format>
        <dc:type
           rdf:resource="http://purl.org/dc/dcmitype/StillImage" />
        <dc:title></dc:title>
      </cc:Work>
    </rdf:RDF>
  </metadata>
  <g
     inkscape:label="Layer 1"
     inkscape:groupmode="layer"
     id="layer1"
     transform="translate(32.436026,-289.07546)">
    <g
       id="g121"
       transform="translate(0.49999773,-0.50001218)">
      <path
         style="fill:#2a7ba0;stroke-width:0.26458332"
         inkscape:connector-curvature="0"
         class="st0"
         d="m -5.8718598,307.35276 v -14.7902 h 2.460625 v 14.7902 z"
         id="path12" />
      <path
         style="fill:#2a7ba0;stroke-width:0.26458332"
         inkscape:connector-curvature="0"
         class="st0"
         d="m 0.90147348,307.35276 v -14.7902 H 3.3620984 l 3.095625,9.15458 v -9.15458 h 2.2489583 v 14.7902 H 6.3783484 l -3.2279166,-9.63083 v 9.63083 z"
         id="path14" />
      <path
         style="fill:#2a7ba0;stroke-width:0.26458332"
         inkscape:connector-curvature="0"
         class="st0"
         d="m 30.349598,294.70568 h -2.460625 v 12.64708 h -2.460625 v -12.64708 h -2.487083 v -2.16958 h 7.408333 z"
         id="path16" />
      <path
         style="fill:#2a7ba0;stroke-width:0.26458332"
         inkscape:connector-curvature="0"
         class="st0"
         d="m 39.292515,307.35276 -1.878542,-5.9002 H 36.19689 v 5.9002 h -2.460625 v -14.7902 h 3.836458 c 2.248958,0 3.730625,0.89958 3.730625,3.12208 v 2.64583 c 0,1.42875 -0.582083,2.30188 -1.613958,2.75167 l 2.116666,6.27062 z m -3.095625,-8.01687 h 1.296458 c 0.79375,0 1.349375,-0.29104 1.349375,-1.34938 v -1.93145 c 0,-1.05834 -0.555625,-1.34938 -1.349375,-1.34938 H 36.19689 Z"
         id="path18" />
      <path
         style="fill:#2a7ba0;stroke-width:0.26458332"
         inkscape:connector-curvature="0"
         class="st0"
         d="m 52.733348,304.38943 c 0,2.27542 -1.42875,3.12208 -3.677708,3.12208 h -0.07937 c -2.248959,0 -3.677709,-0.8202 -3.677709,-3.12208 V 292.5361 h 2.460625 v 11.45646 c 0,1.05833 0.47625,1.34937 1.27,1.34937 0.79375,0 1.27,-0.29104 1.27,-1.34937 V 292.5361 h 2.460625 v 11.85333 z"
         id="path20" />
      <path
         style="fill:#2a7ba0;stroke-width:0.26458332"
         inkscape:connector-curvature="0"
         class="st0"
         d="m 64.322098,304.38943 c 0,2.27542 -1.481667,3.12208 -3.730625,3.12208 h -0.05292 c -2.248958,0 -3.730625,-0.8202 -3.730625,-3.12208 v -8.89 c 0,-2.19604 1.481667,-3.12208 3.730625,-3.12208 h 0.05292 c 2.248958,0 3.730625,0.92604 3.730625,3.12208 v 1.71979 h -2.460625 v -1.32291 c 0,-1.03188 -0.502709,-1.34938 -1.296459,-1.34938 -0.79375,0 -1.296458,0.3175 -1.296458,1.34938 v 8.1227 c 0,1.03188 0.502708,1.34938 1.296458,1.34938 0.79375,0 1.296459,-0.3175 1.296459,-1.34938 v -1.69333 h 2.460625 z"
         id="path22" />
      <path
         style="fill:#2a7ba0;stroke-width:0.26458332"
         inkscape:connector-curvature="0"
         class="st0"
         d="m 74.852514,294.70568 h -2.487083 v 12.64708 h -2.460625 v -12.64708 h -2.487083 v -2.16958 h 7.408333 v 2.16958 z"
         id="path24" />
      <path
         style="fill:#2a7ba0;stroke-width:0.26458332"
         inkscape:connector-curvature="0"
         class="st0"
         d="m 85.621056,304.38943 c 0,2.27542 -1.42875,3.12208 -3.677709,3.12208 h -0.07937 c -2.248958,0 -3.677708,-0.8202 -3.677708,-3.12208 V 292.5361 h 2.460625 v 11.45646 c 0,1.05833 0.47625,1.34937 1.27,1.34937 0.79375,0 1.27,-0.29104 1.27,-1.34937 V 292.5361 h 2.460625 v 11.85333 z"
         id="path26" />
      <path
         style="fill:#2a7ba0;stroke-width:0.26458332"
         inkscape:connector-curvature="0"
         class="st0"
         d="m 95.384181,307.35276 -1.878542,-5.9002 h -1.217083 v 5.9002 h -2.460625 v -14.7902 h 3.836458 c 2.248958,0 3.730625,0.89958 3.730625,3.12208 v 2.64583 c 0,1.42875 -0.582083,2.30188 -1.613958,2.75167 l 2.116666,6.27062 z m -3.122084,-8.01687 h 1.296459 c 0.79375,0 1.349375,-0.29104 1.349375,-1.34938 v -1.93145 c 0,-1.05834 -0.555625,-1.34938 -1.349375,-1.34938 h -1.296459 z"
         id="path28" />
      <path
         style="fill:#2a7ba0;stroke-width:0.26458332"
         inkscape:connector-curvature="0"
         class="st0"
         d="m 17.543765,296.84881 v -1.0848 c 0,-0.92604 -0.529167,-1.27 -1.243542,-1.27 -0.714375,0 -1.243541,0.34396 -1.243541,1.27 v 1.00542 c 0,0.76729 0.264583,1.11125 0.9525,1.50813 l 1.74625,0.97895 c 1.42875,0.79375 2.275416,1.45521 2.275416,3.04271 v 2.14313 c 0,2.27541 -1.42875,3.09562 -3.65125,3.09562 h -0.05292 c -2.248959,0 -3.65125,-0.79375 -3.65125,-3.09562 v -1.5875 h 2.407708 v 1.24354 c 0,0.89958 0.529167,1.32292 1.27,1.32292 0.740833,0 1.27,-0.39688 1.27,-1.32292 v -1.16417 c 0,-0.76729 -0.238125,-1.13771 -0.978958,-1.53458 l -1.719792,-0.97896 c -1.42875,-0.82021 -2.275417,-1.50812 -2.275417,-3.04271 v -1.95791 c 0,-2.19605 1.613959,-3.04271 3.624792,-3.04271 h 0.05292 c 2.037291,0 3.624791,0.84666 3.624791,3.04271 v 1.42875 z"
         id="path30" />
      <polygon
         transform="matrix(0.26458333,0,0,0.26458333,-66.831859,219.48464)"
         style="fill:#2a7ba0"
         class="st0"
         points="658.2,299.6 658.2,307.8 645.4,307.8 645.4,323.9 660.9,323.9 660.9,332 636.1,332 636.1,276.1 660.6,276.1 660.6,284.3 645.4,284.3 645.4,299.6 "
         id="polygon32" />
      <polygon
         transform="matrix(0.26458333,0,0,0.26458333,-66.831859,219.48464)"
         style="fill:#2a7ba0"
         class="st0"
         points="196.8,323.2 163.4,342 130,323.2 163.4,304.4 "
         id="polygon36" />
      <polygon
         transform="matrix(0.26458333,0,0,0.26458333,-66.831859,219.48464)"
         style="fill:#fbcc15"
         class="st1"
         points="146.7,295 163.4,285.6 146.7,276.2 130,285.6 "
         id="polygon38" />
      <polygon
         transform="matrix(0.26458333,0,0,0.26458333,-66.831859,219.48464)"
         style="fill:#f78f21"
         class="st2"
         points="163.4,285.6 180.1,276.2 163.4,266.8 146.7,276.2 "
         id="polygon40" />
      <polygon
         transform="matrix(0.26458333,0,0,0.26458333,-66.831859,219.48464)"
         style="fill:#e9262a"
         class="st3"
         points="180.1,295 196.8,285.6 180.1,276.2 163.4,285.6 "
         id="polygon42" />
    </g>
  </g>
  <style
     id="style10"
     type="text/css">
	.st0{fill:#2A7BA0;}
	.st1{fill:#FBCC15;}
	.st2{fill:#F78F21;}
	.st3{fill:#E9262A;}
</style>
</svg>
