<?xml version="1.0" encoding="utf-8"?>
<!-- Generator: Adobe Illustrator 21.0.0, SVG Export Plug-In . SVG Version: 6.00 Build 0)  -->
<svg version="1.1" id="Layer_1" xmlns="http://www.w3.org/2000/svg" xmlns:xlink="http://www.w3.org/1999/xlink" x="0px" y="0px"
	 viewBox="0 0 66 68" style="enable-background:new 0 0 66 68;" xml:space="preserve">
<style type="text/css">
	.st0{fill-rule:evenodd;clip-rule:evenodd;fill:#012169;}
	.st1{fill:#012169;}
</style>
<g>
	<path class="st0" d="M38.1,15.6c0,0,18.3,18.3,9.9,36c0,0-10.3,0.9-22.1,3C25.8,54.6,44.8,40.5,38.1,15.6z"/>
	<path class="st1" d="M34.7,3.3c0.7,1.7,1.5,3.9,2.3,6.6v0c0.1,0.3,0.2,0.6,0.3,1c11.4,2,20.1,12,20.1,24
		c0,13.5-10.9,24.4-24.4,24.4c-5.9,0-11.4-2.1-15.6-5.7c3.8-0.7,7.3-0.7,7.3-0.7C40,39.8,38,21.6,34.8,10.6
		c-1.7-5.8-3.7-9.5-3.7-9.5c-0.5,3.3-1.1,6.6-1.8,9.7C26,26,20.4,38.5,13.7,47.2l-0.9,1.4c-2.7-3.9-4.2-8.6-4.2-13.7
		c0-11.3,7.7-20.8,18.1-23.6c0.1-0.4,0.2-0.7,0.2-1.1c0.5-2.2,0.9-4.4,1.3-6.6C13.1,5.9,1.4,19,1.4,34.9c0,17.5,14.2,31.6,31.6,31.6
		s31.6-14.2,31.6-31.6C64.6,18,51.4,4.2,34.7,3.3z"/>
</g>
</svg>
