<?xml version="1.0" standalone="no"?>
<!DOCTYPE svg PUBLIC "-//W3C//DTD SVG 20010904//EN"
 "http://www.w3.org/TR/2001/REC-SVG-20010904/DTD/svg10.dtd">
<svg version="1.0" xmlns="http://www.w3.org/2000/svg"
 width="672.000000pt" height="672.000000pt" viewBox="0 0 672.000000 672.000000"
 preserveAspectRatio="xMidYMid meet">
<metadata>
Created by potrace 1.14, written by Peter Selinger 2001-2017
</metadata>
<g transform="translate(0.000000,672.000000) scale(0.100000,-0.100000)"
fill="#000000" stroke="none">
<path d="M3140 6464 c-91 -51 -181 -102 -200 -112 -19 -10 -57 -31 -85 -47
-636 -358 -740 -417 -805 -451 -19 -11 -40 -25 -48 -31 -7 -7 -17 -13 -22 -13
-4 0 -46 -22 -93 -50 -47 -27 -90 -50 -96 -50 -6 0 -11 -4 -11 -8 0 -5 -17
-17 -37 -26 -21 -9 -51 -25 -68 -34 -79 -46 -255 -145 -340 -192 -33 -18 -72
-42 -87 -52 -16 -11 -28 -16 -28 -12 0 4 -8 0 -17 -8 -10 -8 -110 -66 -223
-128 -113 -63 -206 -118 -208 -122 -2 -4 -8 -8 -14 -8 -14 0 -267 -143 -268
-152 0 -3 35 -25 78 -49 42 -23 79 -46 80 -50 2 -5 10 -9 18 -9 11 0 94 -45
164 -90 8 -5 31 -17 50 -25 19 -9 37 -19 40 -23 3 -4 25 -17 50 -30 25 -13 61
-32 80 -44 36 -21 247 -140 328 -185 26 -15 61 -35 77 -45 17 -10 37 -21 45
-25 8 -3 83 -45 165 -91 83 -47 168 -95 190 -107 l40 -22 245 139 c135 77 253
142 263 145 9 3 17 9 17 14 0 5 3 8 8 7 7 -2 188 97 379 209 50 29 96 53 102
53 6 0 11 3 11 8 0 4 10 12 23 18 46 22 152 79 157 84 9 9 84 51 113 63 15 6
27 15 27 19 0 4 6 8 14 8 8 0 21 7 30 15 14 14 20 14 58 -6 24 -12 45 -21 47
-20 2 2 7 -1 10 -6 8 -12 150 -93 162 -93 5 0 9 -3 9 -8 0 -4 25 -18 55 -32
30 -14 55 -28 55 -32 0 -5 4 -8 9 -8 7 0 46 -21 236 -130 17 -9 57 -32 90 -50
33 -18 147 -82 253 -142 106 -60 209 -118 230 -129 20 -11 53 -29 72 -41 149
-87 157 -90 176 -71 10 10 18 16 18 14 1 -3 58 27 128 67 70 39 145 82 168 94
23 13 49 28 58 33 17 10 145 82 213 120 342 189 797 451 793 456 -2 4 -35 24
-72 45 -37 21 -83 46 -102 57 -19 11 -55 31 -80 45 -25 14 -90 51 -145 82 -55
31 -122 70 -150 85 -27 15 -90 50 -140 78 -49 27 -115 64 -145 80 -30 16 -60
34 -67 39 -7 5 -27 17 -45 27 -18 9 -42 22 -53 29 -83 48 -217 122 -221 122
-3 0 -18 8 -32 18 -15 11 -52 32 -82 49 -44 24 -480 270 -655 369 -22 12 -56
30 -75 39 -19 9 -37 19 -40 23 -3 4 -23 16 -45 28 -22 11 -56 30 -75 41 -19
11 -61 34 -94 52 -32 18 -81 46 -108 62 -27 16 -51 29 -54 29 -2 0 -21 10 -42
23 -40 25 -115 68 -227 128 l-70 37 -165 -94z"/>
<path d="M3279 3359 c-13 -10 -27 -19 -31 -19 -3 0 -64 -33 -135 -73 -70 -41
-157 -90 -193 -109 -36 -20 -81 -45 -100 -56 -19 -12 -55 -31 -80 -44 -25 -13
-47 -26 -50 -29 -3 -3 -40 -25 -84 -48 -106 -57 -120 -65 -126 -71 -3 -3 -23
-14 -45 -26 -22 -11 -89 -49 -149 -82 -60 -34 -113 -62 -118 -62 -4 0 -8 -4
-8 -8 0 -4 -12 -13 -27 -19 -16 -7 -53 -26 -83 -43 -30 -18 -75 -43 -100 -57
-25 -14 -75 -43 -112 -64 -36 -21 -71 -39 -77 -39 -6 0 -11 -4 -11 -9 0 -5
-12 -14 -27 -20 -16 -5 -53 -25 -83 -42 -100 -58 -259 -149 -325 -184 -22 -12
-56 -32 -75 -44 -19 -11 -42 -24 -50 -28 -8 -4 -76 -41 -150 -83 -74 -43 -155
-88 -180 -102 -25 -14 -63 -35 -85 -48 -22 -12 -69 -38 -105 -58 -36 -19 -68
-40 -72 -46 -4 -6 -8 -7 -8 -3 0 4 -17 -4 -37 -18 -21 -14 -43 -25 -50 -25
-21 0 -14 -24 10 -35 31 -15 111 -59 117 -65 3 -3 21 -13 40 -24 91 -49 143
-78 180 -101 22 -14 42 -25 46 -25 4 0 32 -15 63 -34 55 -33 130 -75 201 -112
19 -11 37 -21 40 -24 3 -3 19 -12 35 -20 17 -8 32 -17 35 -20 3 -3 19 -12 35
-21 103 -56 151 -83 160 -89 6 -4 46 -26 90 -50 44 -23 87 -49 96 -56 8 -8 18
-14 21 -14 4 0 55 -28 115 -61 59 -34 137 -77 173 -97 36 -19 67 -39 68 -44 2
-4 12 -8 22 -8 9 0 23 -7 30 -15 7 -8 16 -15 20 -15 5 0 47 -22 95 -50 48 -27
90 -50 95 -50 5 0 10 -3 12 -7 2 -5 19 -16 38 -25 19 -10 42 -22 50 -28 48
-31 461 -260 470 -260 5 0 10 -4 10 -10 0 -5 4 -10 9 -10 6 0 36 -15 68 -34
32 -18 78 -45 103 -58 25 -14 68 -38 95 -53 28 -15 75 -42 106 -60 l56 -33 54
30 c30 16 65 37 79 46 14 9 39 23 55 32 17 9 106 58 198 110 93 52 194 109
225 125 31 17 59 33 60 38 2 4 7 7 12 7 4 0 103 54 219 120 116 66 216 120
221 120 6 0 10 4 10 8 0 4 12 13 28 19 15 7 52 26 82 44 103 60 175 100 193
106 9 3 17 9 17 14 0 5 5 9 11 9 6 0 52 24 102 54 51 29 133 76 182 103 50 27
113 63 140 78 72 42 146 83 175 97 14 7 27 15 30 18 3 3 19 12 35 20 17 8 36
21 43 28 7 6 17 12 22 12 5 0 59 29 121 65 61 36 113 65 115 65 1 0 40 22 86
48 46 26 90 51 98 55 8 4 24 13 35 20 11 7 55 32 98 55 42 24 77 45 77 47 0 4
-77 49 -135 80 -49 26 -134 74 -244 137 -46 26 -88 48 -92 48 -5 0 -9 5 -9 10
0 6 -3 9 -7 8 -5 -1 -28 9 -53 24 -25 14 -81 46 -125 71 -44 24 -98 55 -120
67 -22 13 -60 34 -85 48 -25 13 -58 32 -75 42 -16 10 -50 29 -75 42 -25 14
-63 35 -85 48 -22 13 -65 36 -95 53 -30 16 -59 33 -65 37 -5 4 -46 26 -90 50
-44 24 -92 51 -107 61 -14 11 -28 19 -31 19 -2 0 -134 73 -293 163 -159 90
-296 166 -304 170 -8 4 -31 17 -50 28 -19 12 -84 49 -145 82 -60 34 -111 65
-113 69 -2 5 -8 8 -13 8 -5 0 -56 26 -112 58 -57 32 -110 62 -118 66 -8 4 -31
17 -51 29 -20 12 -58 34 -85 49 -48 26 -49 26 -74 7z"/>
</g>
</svg>
