<?xml version="1.0" standalone="no"?>
<!DOCTYPE svg PUBLIC "-//W3C//DTD SVG 20010904//EN"
 "http://www.w3.org/TR/2001/REC-SVG-20010904/DTD/svg10.dtd">
<svg version="1.0" xmlns="http://www.w3.org/2000/svg"
 width="300.000000pt" height="300.000000pt" viewBox="0 0 300.000000 300.000000"
 preserveAspectRatio="xMidYMid meet">
<metadata>
Created by potrace 1.11, written by Peter Selinger 2001-2013
</metadata>
<g transform="translate(0.000000,300.000000) scale(0.100000,-0.100000)"
fill="#000000" stroke="none">
<path d="M1054 2950 c-34 -16 -89 -57 -129 -96 -61 -59 -261 -248 -395 -375
-450 -425 -463 -438 -488 -498 -19 -46 -20 -65 -17 -263 4 -209 12 -415 20
-513 2 -27 7 -86 10 -130 3 -44 8 -109 10 -145 5 -61 7 -83 20 -202 3 -27 7
-69 10 -95 3 -27 7 -64 10 -83 2 -19 7 -57 10 -85 3 -27 8 -59 10 -70 2 -11 4
-28 4 -38 1 -10 5 -17 10 -15 5 1 89 80 187 173 98 94 214 204 258 245 44 41
127 121 185 176 l105 102 2 303 c1 314 7 425 32 678 6 69 9 74 32 78 14 3 165
6 335 6 289 2 445 -3 623 -19 l72 -7 83 80 c80 78 241 232 342 327 28 26 110
105 183 174 l134 127 -34 6 c-75 14 -225 40 -253 45 -16 2 -41 6 -55 9 -14 2
-45 7 -70 10 -25 3 -85 12 -135 20 -49 7 -112 16 -140 19 -27 4 -66 9 -85 11
-37 5 -88 10 -180 20 -30 3 -89 10 -130 15 -41 5 -111 12 -155 15 -44 3 -98 8
-120 11 -22 2 -86 6 -141 9 -96 4 -105 2 -160 -25z"/>
<path d="M2794 2635 c-16 -15 -105 -100 -199 -189 -254 -243 -339 -323 -428
-408 l-82 -77 -1 -278 c-1 -250 -4 -332 -19 -578 -6 -93 -16 -189 -21 -196
-15 -26 -992 -10 -1035 17 -4 2 -54 -40 -110 -93 -56 -54 -114 -109 -129 -123
-29 -27 -303 -289 -440 -419 -65 -61 -80 -81 -65 -81 11 -1 27 -3 35 -5 31 -7
427 -73 475 -80 28 -3 61 -8 75 -10 14 -2 48 -6 75 -10 28 -3 61 -8 75 -10 70
-10 110 -15 165 -20 33 -3 98 -10 145 -15 168 -19 411 -35 493 -34 103 2 147
31 349 225 95 91 185 177 199 190 28 25 340 323 465 444 101 97 126 153 124
277 -2 253 -19 603 -35 738 -1 14 -6 54 -10 90 -7 65 -9 81 -19 155 -7 49 -13
115 -21 220 -4 44 -8 96 -10 115 -2 19 -7 67 -11 105 -3 39 -7 71 -9 73 -1 2
-16 -9 -31 -23z"/>
</g>
</svg>
